<?xml version="1.0" encoding="UTF-8"?>
<!DOCTYPE svg PUBLIC "-//W3C//DTD SVG 1.1//EN" "http://www.w3.org/Graphics/SVG/1.1/DTD/svg11.dtd">
<!-- Creator: CorelDRAW X7 -->
<svg xmlns="http://www.w3.org/2000/svg" xml:space="preserve" width="86.6986mm" height="86.6986mm" version="1.1" style="shape-rendering:geometricPrecision; text-rendering:geometricPrecision; image-rendering:optimizeQuality; fill-rule:evenodd; clip-rule:evenodd"
viewBox="0 0 8670 8670"
 xmlns:xlink="http://www.w3.org/1999/xlink">
 <defs>
  <style type="text/css">
   <![CDATA[
    .str2 {stroke:#FEFEFE;stroke-width:8.46}
    .str1 {stroke:#373435;stroke-width:8.46}
    .str10 {stroke:#FEFEFE;stroke-width:8.47}
    .str9 {stroke:#373435;stroke-width:8.47}
    .str12 {stroke:#FBCEA8;stroke-width:8.47}
    .str6 {stroke:#F4E2BC;stroke-width:8.47}
    .str5 {stroke:#BA3538;stroke-width:8.47}
    .str11 {stroke:#882F30;stroke-width:8.47}
    .str8 {stroke:#AD9E7E;stroke-width:8.47}
    .str7 {stroke:#626567;stroke-width:8.47}
    .str3 {stroke:#414242;stroke-width:8.47}
    .str4 {stroke:#2C2D45;stroke-width:8.47}
    .str0 {stroke:#2C2D45;stroke-width:67.73}
    .fil1 {fill:#FEFEFE}
    .fil4 {fill:#373435}
    .fil2 {fill:#373435}
    .fil10 {fill:#FBCEA8}
    .fil6 {fill:#F4E2BC}
    .fil5 {fill:#BA3538}
    .fil9 {fill:#882F30}
    .fil8 {fill:#AD9E7E}
    .fil7 {fill:#626567}
    .fil3 {fill:#414242}
    .fil0 {fill:#2C2D45}
   ]]>
  </style>
 </defs>
 <g id="Layer_x0020_1">
  <metadata id="CorelCorpID_0Corel-Layer"/>
  <polygon class="fil0 str0" points="7667,308 1116,308 1116,3308 7667,3308 "/>
  <path class="fil1 str1" d="M5709 2266c-68,-5 -119,-14 -171,-24 -30,9 -61,17 -96,23 -21,4 -42,7 -66,9 -26,3 -54,4 -82,4 -46,0 -91,-4 -126,-13 -48,-12 -75,-34 -96,-44 -3,-1 -7,-3 -10,-4 -15,-3 -28,3 -48,11 -10,4 -21,9 -36,12 -32,8 -78,14 -120,16 -17,1 -33,1 -46,0 -47,-2 -67,-12 -91,-9 -12,1 -24,5 -37,9l0 134c0,159 130,289 290,289l1199 0c159,0 289,-130 289,-289l0 -132c-2,0 -5,0 -8,0 -36,-3 -64,-19 -88,-22 -24,-3 -44,8 -92,10 -4,0 -9,0 -14,0 -47,1 -112,-6 -152,-16 -3,-1 -5,-2 -8,-2 -39,-12 -55,-26 -76,-21 -1,0 -2,1 -3,1 -22,8 -50,33 -103,47 -18,5 -39,8 -61,10 -48,4 -102,4 -148,1z"/>
  <path class="fil1 str1" d="M4896 1650c0,-2 0,-2 0,0zm-186 284c0,0 0,0 0,0zm587 -100c17,-36 52,-60 94,-60l8 0c-47,-57 -90,-135 -105,-231 0,-15 2,-30 5,-45l-124 -77c-39,-27 -31,-34 24,-21 25,-2 51,-10 65,-31 15,-22 12,-48 4,-73 -25,-31 -19,-36 19,-15l0 0c20,10 44,11 65,3 22,-8 39,-24 49,-44l-2 -5c-10,-30 -3,-30 20,-1l8 9 4 5c10,11 26,14 46,13 22,-2 42,-15 53,-35l1 -13c2,-23 7,-21 14,6l2 7c10,12 20,24 36,24 15,0 24,-12 35,-25l1 -4c6,-27 11,-29 14,-6l1 13c10,20 30,33 53,35 20,1 39,-7 53,-21l4 -6c23,-29 30,-29 21,1l-1 4c9,21 26,37 47,45 22,8 45,7 66,-3 37,-21 44,-16 19,15l-1 1c-8,24 -10,50 4,72 15,21 39,29 64,32 55,-13 65,-7 26,20l-124 77c2,14 4,29 4,43 -14,96 -57,174 -104,231 36,3 67,25 83,56l1 -1c2,-1 5,-4 9,-7 4,-4 9,-9 13,-14 5,-4 8,-9 11,-15 4,-6 8,-13 11,-20 4,-7 7,-15 9,-20 3,-5 5,-9 9,-13 3,-4 7,-9 12,-14 5,-4 11,-8 20,-12 9,-5 21,-11 34,-16 13,-4 28,-7 41,-8 13,-2 25,-2 38,-2 12,0 26,0 42,3 17,2 37,7 51,9 14,1 22,0 32,-3 9,-2 20,-5 27,-9 2,-1 4,-2 5,-3l-11 -14c14,3 26,-1 36,-13 1,-1 1,-3 2,-4 2,-2 3,-4 4,-5 1,0 2,0 3,3 0,5 -1,21 -4,31 -2,11 -6,17 -10,22 -4,6 -8,12 -16,18 -9,7 -22,13 -40,19 -18,6 -42,11 -61,16 -20,5 -37,10 -50,14 -13,4 -23,8 -33,12 -10,5 -19,11 -28,23 -8,13 -15,31 -26,52 -10,21 -24,45 -46,60 -19,13 -48,21 -74,27l0 0 0 67c14,-10 22,-13 38,-20 15,-6 36,-5 58,-5 23,0 47,-2 63,-7 16,-6 24,-16 31,-25 8,-9 16,-17 25,-25 9,-7 18,-14 29,-22 10,-8 22,-17 36,-23 13,-7 29,-11 47,-9 19,1 41,8 56,15 15,6 24,13 36,23 13,10 29,22 44,32 15,10 29,18 44,19 15,1 32,-5 44,-8 6,-2 11,-4 15,-5l-7 -12c18,2 27,-3 30,-17 0,0 1,0 1,1 2,2 6,11 6,19 0,8 -4,14 -10,22 -6,8 -14,17 -26,25 -11,8 -25,15 -40,18 -14,4 -29,4 -41,3 -12,-1 -22,-3 -34,-7 -11,-4 -24,-9 -37,-13 -12,-4 -23,-6 -33,-8 -10,-2 -18,-2 -30,1 -12,3 -28,10 -41,17 -12,7 -20,13 -28,22 -7,9 -13,20 -20,29 -7,10 -15,19 -26,30 -12,12 -26,26 -42,37 -15,12 -33,22 -55,29 -23,8 -50,14 -72,12 -21,-1 -35,-10 -45,-16 -6,-3 -12,-7 -16,-10l0 18 0 73c11,-7 25,-16 42,-21 21,-7 51,-12 81,-7 13,2 25,6 39,10 1,0 2,-1 3,-1 21,-5 37,9 76,21 26,-7 56,-27 94,-17 46,11 52,25 66,35 5,0 10,0 14,0 48,-2 68,-13 92,-10 24,3 52,19 88,22 3,0 6,0 8,0l0 -1068c0,-159 -130,-289 -289,-289l-1199 0c-160,0 -290,130 -290,289l0 1066c13,-4 25,-8 37,-9 24,-3 44,7 91,9 13,1 29,1 46,0 14,-12 34,-35 66,-42 26,-5 59,9 90,14 20,-8 33,-14 48,-11 3,1 7,3 10,4 33,-7 59,-19 85,-23 30,-5 61,1 81,7 16,5 37,14 49,22l0 -77 0 0 -6 4c-10,6 -25,15 -46,16 -21,2 -48,-4 -70,-11 -23,-8 -40,-18 -56,-29 -16,-12 -30,-26 -41,-37 -11,-11 -19,-20 -26,-30 -7,-10 -13,-20 -21,-29 -7,-9 -15,-15 -27,-22 -13,-7 -28,-14 -41,-17 -12,-3 -20,-3 -30,-1 -10,2 -21,4 -33,8 -12,4 -25,9 -37,13 -11,4 -21,6 -33,7 -12,1 -27,1 -41,-3 -15,-3 -29,-10 -40,-18 -12,-8 -20,-17 -26,-25 -6,-7 -10,-14 -10,-21 0,-8 4,-18 6,-20 1,-1 1,-1 1,-1 1,0 1,1 1,3 7,14 18,19 35,15l-8 13 10 3c12,3 29,9 44,8 15,-1 29,-9 44,-19 14,-10 31,-22 43,-32 13,-9 21,-16 36,-23 16,-7 37,-13 56,-15 18,-1 34,3 47,9 14,7 25,16 36,24 10,8 20,14 28,22 9,7 17,15 25,24 8,9 15,19 31,25 16,5 41,7 63,7 22,0 43,-1 58,5 12,5 20,11 28,18l0 -73c-29,-7 -59,-14 -81,-29 -21,-15 -35,-39 -46,-60 -10,-21 -17,-39 -26,-51 -8,-13 -18,-19 -28,-23 -9,-5 -19,-9 -33,-13 -13,-4 -29,-9 -49,-14 -20,-5 -43,-10 -61,-16 -18,-6 -32,-12 -40,-18 -9,-7 -13,-13 -17,-18 -3,-6 -7,-12 -10,-22 -2,-11 0,-28 0,-34 10,25 25,33 45,25l-8 14c7,3 17,6 26,8 10,3 18,4 32,3 14,-2 34,-7 50,-9 17,-2 30,-2 43,-2 13,0 24,0 37,1 14,1 28,4 42,9 13,4 25,10 34,15 9,5 14,8 19,13 5,4 10,9 13,13 4,5 6,8 9,13 2,6 5,13 8,20 4,8 8,14 11,20 4,6 7,11 11,16 5,4 10,9 14,13 4,3 7,6 9,8 2,1 0,0 3,2 2,1 3,1 3,2z"/>
  <path class="fil2 str2" d="M4202 2258c-37,-3 -65,-19 -89,-22 -23,-3 -43,8 -91,10 -4,0 -9,0 -14,0 -47,1 -112,-6 -152,-16 -3,-1 -5,-2 -8,-2 -39,-12 -55,-26 -76,-21 -1,0 -2,1 -3,1 -22,8 -50,33 -103,47 -18,5 -39,8 -61,10 -48,4 -102,4 -148,1 -68,-5 -119,-14 -171,-24 -30,9 -61,17 -97,23 -20,4 -41,7 -65,9 -26,3 -54,4 -82,4 -46,0 -91,-4 -126,-13 -48,-12 -75,-34 -96,-44 -3,-1 -7,-3 -10,-4 -15,-3 -28,3 -48,11 -10,4 -21,9 -36,12 -32,8 -78,14 -120,16 -17,1 -33,1 -46,0 -48,-2 -68,-12 -92,-9 -11,1 -23,5 -36,9l0 134c0,159 130,289 289,289l1200 0c159,0 289,-130 289,-289l0 -132c-2,0 -5,0 -8,0z"/>
  <path class="fil2 str2" d="M2644 1650c0,-2 0,-2 0,0zm-186 284c0,0 0,0 0,0zm689 -160c-47,-57 -91,-135 -105,-231 0,-15 2,-30 4,-45l-123 -77c-39,-27 -31,-34 24,-21 25,-2 51,-10 65,-31 15,-22 12,-48 4,-73 -25,-31 -19,-36 19,-15l0 0c20,10 44,11 65,3 21,-8 39,-24 48,-44l-1 -5c-10,-30 -3,-30 20,-1l8 9 4 5c10,11 26,14 46,13 22,-2 42,-15 53,-35l1 -13c2,-23 7,-21 14,6l2 7c10,12 20,24 36,24 15,0 24,-12 35,-25l0 -4c7,-27 12,-29 15,-6l1 13c10,20 30,33 53,35 20,1 39,-7 53,-21l4 -6c23,-29 30,-29 21,1l-1 4c9,21 26,37 47,45 22,8 45,7 66,-3 37,-21 44,-16 18,15l0 1c-8,24 -10,50 4,72 15,21 39,29 64,32 55,-13 65,-7 26,20l-124 77c2,14 4,29 4,43 -14,96 -57,174 -104,231 36,3 67,25 83,56l1 -1c2,-1 5,-4 9,-7 4,-4 9,-9 13,-14 4,-4 8,-9 11,-15 4,-6 8,-13 11,-20 4,-7 6,-15 9,-20 3,-5 5,-9 8,-13 4,-4 8,-9 13,-14 5,-4 11,-8 20,-12 8,-5 20,-11 34,-16 13,-4 28,-7 41,-8 13,-2 25,-2 38,-2 12,0 26,0 42,3 17,2 37,7 51,9 14,1 22,0 32,-3 9,-2 20,-5 27,-9 2,-1 4,-2 5,-3l-11 -14c14,3 26,-1 36,-13 1,-1 1,-3 2,-4 2,-2 3,-4 4,-5 1,0 2,0 3,3 0,5 -1,21 -4,31 -2,11 -6,17 -10,22 -4,6 -8,12 -16,18 -9,7 -22,13 -40,19 -18,6 -42,11 -61,16 -20,5 -37,10 -50,14 -13,4 -23,8 -33,12 -10,5 -19,11 -28,23 -8,13 -15,31 -26,52 -10,21 -24,45 -46,60 -19,13 -48,21 -74,27l0 0 0 67c14,-10 22,-13 38,-20 15,-6 35,-5 58,-5 22,0 47,-2 63,-7 16,-6 23,-16 31,-25 8,-9 16,-17 25,-25 9,-7 18,-14 29,-22 10,-8 22,-17 36,-23 13,-7 29,-11 47,-9 19,1 40,8 56,15 15,6 24,13 36,23 13,10 29,22 44,32 15,10 29,18 44,19 15,1 32,-5 44,-8 6,-2 11,-4 15,-5l-7 -12c17,2 27,-3 30,-17 0,0 1,0 1,1 2,2 6,11 6,19 0,8 -4,14 -10,22 -6,8 -14,17 -26,25 -11,8 -25,15 -40,18 -14,4 -29,4 -41,3 -13,-1 -22,-3 -34,-7 -11,-4 -24,-9 -37,-13 -12,-4 -23,-6 -33,-8 -10,-2 -18,-2 -30,1 -13,3 -29,10 -41,17 -12,7 -20,13 -28,22 -7,9 -13,20 -20,29 -7,10 -15,19 -26,30 -12,12 -26,26 -42,37 -16,12 -33,22 -56,29 -22,8 -49,14 -71,12 -21,-1 -36,-10 -45,-16 -6,-3 -12,-7 -16,-10l0 18 0 73c11,-7 25,-16 42,-21 21,-7 51,-12 81,-7 13,2 25,6 39,10 1,0 2,-1 3,-1 21,-5 37,9 76,21 26,-7 56,-27 94,-17 46,11 52,25 66,35 5,0 10,0 14,0 48,-2 68,-13 91,-10 24,3 52,19 89,22 3,0 6,0 8,0l0 -1068c0,-159 -130,-289 -289,-289l-1200 0c-159,0 -289,130 -289,289l0 1066c13,-4 25,-8 36,-9 24,-3 44,7 92,9 13,1 29,1 46,0 14,-12 34,-35 66,-42 26,-5 59,9 90,14 20,-8 33,-14 48,-11 3,1 7,3 10,4 33,-7 59,-19 85,-23 30,-5 61,1 81,7 16,5 37,14 49,22l0 -77 0 0 -6 4c-10,6 -25,15 -46,16 -21,2 -48,-4 -70,-11 -23,-8 -40,-18 -56,-29 -16,-12 -30,-26 -41,-37 -11,-11 -19,-20 -26,-30 -7,-10 -13,-20 -21,-29 -7,-9 -15,-15 -27,-22 -13,-7 -29,-14 -41,-17 -12,-3 -20,-3 -30,-1 -10,2 -21,4 -33,8 -12,4 -26,9 -37,13 -11,4 -21,6 -33,7 -12,1 -27,1 -42,-3 -14,-3 -28,-10 -39,-18 -12,-8 -20,-17 -26,-25 -6,-7 -10,-14 -10,-21 0,-8 4,-18 6,-20 0,-1 1,-1 1,-1 1,0 1,1 1,3 7,14 18,19 35,15l-8 13 10 3c12,3 29,9 44,8 15,-1 29,-9 43,-19 15,-10 32,-22 44,-32 13,-9 21,-16 36,-23 16,-7 37,-13 56,-15 18,-1 34,3 47,9 14,7 25,16 36,24 10,8 20,14 28,22 9,7 17,15 25,24 8,9 15,19 31,25 16,5 41,7 63,7 22,0 43,-1 58,5 12,5 20,11 28,18l0 -73c-29,-7 -59,-14 -81,-29 -21,-15 -35,-39 -46,-60 -10,-21 -18,-39 -26,-51 -8,-13 -18,-19 -28,-23 -10,-5 -20,-9 -33,-13 -13,-4 -29,-9 -49,-14 -20,-5 -43,-10 -61,-16 -18,-6 -32,-12 -40,-18 -9,-7 -13,-13 -17,-18 -3,-6 -7,-12 -10,-22 -2,-11 0,-28 0,-34 9,25 24,33 45,25l-8 14c7,3 17,6 26,8 10,3 18,4 32,3 14,-2 34,-7 50,-9 17,-2 30,-2 43,-2 12,0 24,0 37,1 13,1 28,4 42,9 13,4 25,10 34,15 9,5 14,8 19,13 5,4 10,9 13,13 3,5 6,8 8,13 3,6 6,13 9,20 4,8 8,14 11,20 4,6 7,11 11,16 4,4 10,9 14,13 4,3 6,6 9,8 2,1 0,0 3,2 2,1 2,1 3,2 16,-36 52,-60 94,-60l8 0z"/>
  <path class="fil3 str3" d="M3762 4254c-1,-2 0,-3 0,0zm0 0c9,24 24,33 45,25l-9 13c8,4 18,7 27,9 9,2 18,4 31,2 14,-1 34,-6 51,-8 16,-3 30,-3 42,-3 13,0 25,0 38,2 13,1 28,4 41,8 14,5 26,11 34,15 9,5 15,9 20,13 5,5 9,10 13,14 3,4 5,7 8,13 3,5 5,13 9,20 3,7 7,14 11,20 3,6 7,10 11,15 4,5 9,10 13,13 4,4 7,6 9,8 3,2 1,1 3,2 3,1 3,2 4,2 16,-35 52,-60 93,-60l9 0c-47,-57 -91,-135 -105,-231 0,-15 1,-30 4,-44l-124 -78c-39,-26 -31,-33 24,-20 26,2 51,-10 66,-32 14,-22 16,-49 4,-73 -25,-30 -19,-35 18,-15l0 0c21,10 44,11 66,4 21,-8 38,-24 48,-45l-2 -5c-9,-30 -2,-30 21,-1l8 10 3 4c11,12 26,14 46,13 23,-2 43,-15 53,-35l1 -12c3,-23 8,-21 15,5l1 7c6,15 21,24 36,24 16,0 29,-10 35,-25l1 -3c7,-27 12,-29 14,-6l1 12c11,20 31,34 53,35 20,2 40,-6 53,-21l5 -6c23,-29 30,-28 20,1l-1 4c9,21 27,38 48,46 21,7 45,6 65,-4 38,-20 44,-15 19,16 -12,23 -11,51 4,72 14,22 39,34 65,32 55,-13 63,-6 24,20l-123 78c2,14 3,28 3,43 -14,95 -57,173 -103,231 36,3 66,25 82,56l1 -1c3,-2 5,-4 9,-8 4,-4 10,-8 14,-13 4,-5 7,-10 11,-16 3,-5 7,-12 11,-19 3,-8 6,-15 9,-21 2,-5 5,-8 8,-12 3,-5 8,-10 13,-14 5,-4 10,-8 19,-13 9,-5 21,-11 34,-15 14,-4 29,-7 42,-9 13,-1 25,-1 37,-1 13,0 26,0 43,2 17,3 36,8 50,9 14,2 23,0 32,-2 10,-3 21,-6 28,-10 2,-1 3,-1 4,-2l-10 -14c13,3 25,-2 35,-13 1,-2 2,-3 3,-5 1,-2 3,-4 4,-4 1,-1 2,0 2,2 1,6 -1,21 -3,32 -3,11 -6,16 -10,22 -4,6 -8,12 -17,18 -8,6 -21,12 -40,18 -18,6 -41,11 -61,16 -20,5 -36,10 -49,14 -13,4 -23,8 -33,13 -10,5 -20,11 -28,23 -8,12 -16,30 -26,51 -11,21 -25,45 -46,60 -19,14 -48,21 -74,28l0 0 0 67c14,-11 22,-13 37,-20 15,-7 36,-5 59,-6 22,0 46,-1 62,-7 16,-6 24,-16 32,-25 8,-9 16,-17 25,-24 8,-8 18,-14 28,-22 11,-8 23,-17 36,-24 14,-6 29,-10 48,-9 18,2 40,8 55,15 16,7 24,14 37,24 12,9 29,22 44,32 15,10 28,17 43,18 16,1 33,-4 45,-8 6,-2 11,-3 15,-4l-7 -12c17,2 27,-4 29,-18 1,0 1,0 2,1 2,3 5,12 5,20 0,8 -3,14 -9,22 -6,7 -15,16 -26,24 -12,8 -26,15 -40,19 -15,3 -29,3 -42,2 -12,-1 -22,-3 -33,-6 -12,-4 -25,-9 -37,-13 -12,-4 -23,-7 -33,-8 -10,-2 -19,-3 -31,0 -12,4 -28,11 -40,17 -12,7 -21,14 -28,23 -7,8 -13,19 -20,29 -8,10 -16,19 -27,30 -11,11 -25,25 -41,37 -16,12 -33,21 -56,29 -22,8 -50,13 -71,12 -21,-2 -36,-10 -46,-16 -5,-4 -11,-8 -15,-10l0 18 0 72c10,-7 25,-15 42,-21 20,-6 51,-12 81,-7 13,2 25,6 38,11 2,-1 3,-1 4,-1 21,-6 36,9 76,20 26,-6 55,-27 93,-17 47,12 52,25 67,36 5,0 9,0 14,-1 47,-2 67,-12 91,-9 24,3 52,19 89,21 3,1 5,1 8,1l0 -1068c0,-159 -130,-290 -289,-290l-1200 0c-159,0 -289,131 -289,290l0 1066c13,-4 25,-9 36,-10 24,-3 44,8 91,10 14,0 30,0 47,-1 14,-11 34,-35 66,-41 26,-5 58,9 89,14 21,-8 33,-15 48,-11 4,1 7,2 11,4 33,-7 59,-19 85,-24 30,-4 60,1 81,8 16,5 36,14 49,22l0 -77 0 0 -7 4c-9,6 -24,15 -45,16 -21,2 -48,-4 -71,-12 -22,-8 -40,-17 -55,-29 -16,-12 -30,-25 -41,-37 -12,-11 -20,-20 -27,-29 -7,-10 -13,-21 -20,-30 -7,-8 -16,-15 -28,-22 -12,-6 -28,-13 -40,-17 -12,-3 -21,-2 -30,0 -10,1 -21,4 -34,8 -12,4 -25,9 -36,12 -12,4 -21,6 -34,7 -12,1 -26,1 -41,-2 -14,-4 -28,-11 -40,-19 -11,-7 -19,-16 -25,-24 -6,-8 -10,-14 -10,-22 0,-8 4,-17 6,-20 0,0 0,0 1,0 0,0 1,1 1,2 7,15 18,20 34,16l-7 13 9 2c12,4 29,9 44,8 16,-1 29,-8 44,-18 15,-10 31,-22 44,-32 12,-10 21,-17 36,-23 15,-7 37,-14 55,-15 19,-1 34,3 48,9 13,6 25,15 35,23 11,8 20,15 29,22 9,7 17,16 25,25 7,9 15,18 31,24 16,6 40,7 63,7 22,1 42,-1 58,6 11,5 20,10 28,18l0 -73c-30,-7 -60,-14 -81,-29 -22,-16 -36,-39 -46,-60 -11,-21 -18,-40 -26,-52 -9,-12 -18,-18 -28,-23 -10,-5 -20,-8 -33,-12 -13,-5 -30,-9 -50,-14 -19,-5 -42,-11 -61,-16 -18,-6 -31,-13 -40,-19 -8,-6 -12,-12 -16,-18 -4,-6 -7,-11 -10,-22 -3,-10 0,-27 0,-33z"/>
  <path class="fil4" d="M2767 5806l-56 0 -149 439 -150 -439 -56 0 -80 501 48 0 66 -436 149 436 45 0 149 -436 66 436 49 0 -81 -501zm329 466c-82,0 -142,-57 -145,-154l176 0c101,0 110,-42 110,-80 0,-83 -74,-129 -145,-129 -102,0 -185,80 -185,205 0,115 76,199 185,199 59,0 105,-14 143,-44l-30 -32c-30,23 -62,35 -109,35zm-7 -322c52,0 104,30 104,87 0,20 -4,41 -72,41l-169 0c9,-65 64,-128 137,-128zm225 159c0,102 58,204 179,204 48,0 84,-13 115,-45l13 39 32 0 0 -577 -44 0 0 219c-39,-29 -70,-40 -116,-40 -114,0 -179,100 -179,200zm46 0c0,-82 49,-158 133,-158 42,0 88,18 116,55l0 202c-31,46 -70,63 -115,63 -89,0 -134,-77 -134,-162zm406 198l44 0 0 -391 -44 0 0 391zm22 -533c-19,0 -34,16 -34,35 0,19 15,34 34,34 19,0 34,-15 34,-34 0,-19 -15,-35 -34,-35zm309 135c-108,0 -191,88 -191,202 0,118 75,202 169,202 48,0 89,-16 115,-41l12 35 31 0 0 -359c-36,-22 -77,-39 -136,-39zm92 309c-25,33 -65,54 -108,54 -85,0 -130,-79 -130,-161 0,-94 64,-160 151,-160 33,0 61,7 87,22l0 245zm470 -484c0,2 -6,9 -18,23 -5,5 -8,9 -8,13 0,3 4,5 11,5 9,0 14,1 17,5l0 1c0,3 -14,20 -42,50 -30,32 -60,65 -91,98 -31,33 -47,51 -48,54 0,2 38,43 115,121 76,77 114,118 114,122 -3,4 -8,6 -17,6 -8,0 -12,2 -12,6 0,2 3,7 9,13 13,15 20,24 20,27l0 2c-3,4 -20,6 -51,6l-48 0 -97 -101c-65,-68 -100,-101 -106,-101 -3,0 -6,6 -7,20 -2,13 -3,39 -4,79 -1,60 -4,93 -8,98 -1,1 -5,2 -10,4l-4 0c-6,0 -11,-1 -14,-3 -5,-3 -9,-5 -10,-6 -1,-1 -1,-1 -2,-1 -2,0 -5,1 -9,4 -4,4 -10,6 -17,6l-6 0 -16 -3 -2 -268 0 -118c0,-102 1,-155 2,-159 2,-5 9,-7 20,-8l2 0c9,0 16,2 19,7 2,2 4,3 5,3 1,0 2,-1 3,-1 1,-2 5,-4 11,-6 5,-2 10,-3 15,-3l4 0c7,1 12,5 14,12 1,7 2,29 3,66 1,50 4,76 7,76 3,0 30,-26 82,-77l77 -78 49 0c32,0 48,2 48,6zm185 162c9,-4 25,-5 47,-5 7,0 14,0 23,1l50 1 1 46 0 12c0,16 -1,26 -3,30 -3,4 -15,8 -36,12 -17,3 -32,10 -46,22 -19,16 -31,33 -36,51 -5,18 -9,56 -11,115l-3 108 -101 0 0 -131c0,-66 1,-105 3,-120 1,-14 7,-31 16,-50 10,-20 24,-39 43,-57 19,-18 36,-30 53,-35zm157 90c9,-18 19,-33 30,-45 11,-13 21,-23 32,-30 11,-7 22,-13 33,-17 12,-5 23,-8 34,-9 11,-1 22,-2 33,-2 6,-1 11,-1 16,-1 5,0 10,0 15,1 55,0 97,8 126,22 29,15 52,40 70,76 9,20 15,37 16,51 2,15 3,54 3,119l0 131 -61 2c-28,1 -56,2 -85,3 -28,1 -48,2 -60,3 -9,1 -19,2 -30,2 -3,0 -7,-1 -10,-1l-26 0c-1,0 -1,1 -2,1 -4,0 -9,-1 -16,-3 -8,-2 -13,-4 -16,-5 -3,-2 -8,-5 -17,-9 -20,-11 -36,-22 -49,-35 -13,-12 -25,-29 -36,-51 -7,-12 -11,-24 -13,-36 -1,-12 -2,-34 -2,-66 0,-32 1,-53 2,-65 2,-12 6,-24 13,-36zm225 7c-13,-6 -24,-9 -33,-9l-2 0c-9,0 -22,5 -39,14 -19,8 -34,22 -47,40 -12,18 -18,35 -18,53 0,27 14,52 41,76 22,19 44,29 65,29 5,0 9,-1 14,-1 16,-3 32,-12 49,-27 17,-15 29,-31 37,-48 6,-14 9,-23 9,-28 0,-6 -2,-14 -7,-26 -7,-16 -17,-31 -30,-44 -12,-14 -25,-23 -39,-29zm203 21l0 -121c0,-104 1,-159 2,-163 1,-4 11,-6 30,-6l15 0 42 1 2 124c1,82 3,127 6,134 0,1 1,2 2,2 6,0 24,-15 53,-44l51 -51 52 0c35,0 53,1 55,5l0 1c0,4 -6,12 -18,26 -5,6 -8,11 -8,15 0,3 3,5 9,6 8,0 14,1 17,5l0 1c0,6 -21,30 -64,73l-69 69 69 69c43,42 64,67 64,73l0 1c-3,3 -9,5 -17,5 -7,0 -11,2 -11,6 0,2 3,7 8,13 13,16 20,25 20,29 -2,3 -20,5 -55,5l-52 0 -50 -50c-33,-34 -52,-50 -55,-50 -3,0 -5,15 -5,47 0,25 -2,41 -7,49 -3,3 -6,5 -10,5 -5,0 -10,-2 -17,-6 -3,-3 -5,-4 -8,-4 -3,0 -6,1 -9,3 -6,3 -12,5 -18,5l-6 0 -16 -2 -2 -275zm447 -112c18,-8 50,-12 96,-12 40,0 70,3 91,11 21,7 42,21 64,43 21,21 35,41 41,58 7,18 10,45 10,82l0 64 -137 2c-92,0 -139,3 -143,7 -1,0 -1,1 -1,3 0,2 3,6 8,10 7,6 16,13 27,19 11,7 21,11 30,13 3,0 6,1 10,1 6,0 12,-2 18,-4 8,-4 14,-7 18,-10 0,-1 2,-1 4,-1 3,0 7,1 13,4 4,3 8,5 12,5 2,0 4,-1 7,-2 6,-3 11,-6 16,-8 1,-1 2,-1 3,-1 5,0 12,3 20,11 6,6 10,11 11,14 0,3 -3,8 -9,14 -6,6 -9,11 -9,13 0,2 2,7 8,13 5,6 8,11 8,15 0,2 -1,3 -1,5 -4,6 -14,13 -30,21 -11,5 -22,9 -34,11 -12,2 -32,3 -58,3 -30,0 -50,-1 -61,-3 -11,-2 -25,-7 -40,-15 -72,-36 -108,-98 -108,-186 0,-7 0,-14 1,-21 5,-87 43,-147 115,-179zm127 103c-9,-5 -18,-7 -26,-7l-3 0c-10,0 -22,5 -38,13 -27,13 -41,24 -41,34 0,2 1,4 2,6 3,4 28,6 77,6 3,0 6,1 10,1 41,0 63,-2 66,-6l0 -2c0,-4 -5,-11 -14,-20 -12,-12 -23,-20 -33,-25zm306 -94c13,-7 26,-11 39,-13 6,-1 17,-1 31,-1 11,0 25,0 41,1 39,0 64,2 74,4 11,2 23,8 37,18 19,14 36,30 51,49 18,24 29,49 35,76 4,23 6,62 6,118l0 23 -2 116 -94 0 -3 -108c-2,-52 -4,-84 -6,-96 -2,-13 -8,-26 -16,-39 -12,-17 -27,-31 -47,-41 -17,-9 -32,-13 -44,-13 -4,0 -7,0 -9,1 -28,5 -54,24 -78,56 -10,12 -15,24 -17,35 -2,12 -4,44 -5,97l-3 108 -101 0 0 -131c0,-60 1,-98 2,-115 2,-17 6,-32 12,-46 9,-20 23,-38 40,-57 18,-18 37,-32 57,-42z"/>
  <path class="fil0 str4" d="M4480 5983c1,-3 17,-21 48,-54 31,-33 61,-66 91,-98 28,-30 42,-47 42,-50l0 -1c-3,-4 -8,-5 -17,-5 -7,0 -11,-2 -11,-5 0,-4 3,-8 8,-13 12,-14 18,-21 18,-23 0,-4 -16,-6 -48,-6l-49 0 -77 78c-52,51 -79,77 -82,77 -3,0 -6,-26 -7,-76 -1,-37 -2,-59 -3,-66 -2,-7 -7,-11 -14,-12l-4 0c-5,0 -10,1 -15,3 -6,2 -10,4 -11,6 -1,0 -2,1 -3,1 -1,0 -3,-1 -5,-3 -3,-5 -10,-7 -19,-7l-2 0c-11,1 -18,3 -20,8 -1,4 -2,57 -2,159l0 118 2 268 16 3 6 0c7,0 13,-2 17,-6 4,-3 7,-4 9,-4 1,0 1,0 2,1 1,1 5,3 10,6 3,2 8,3 14,3l4 0c5,-2 9,-3 10,-4 4,-5 7,-38 8,-98 1,-40 2,-66 4,-79 1,-14 4,-20 7,-20 6,0 41,33 106,101l97 101 48 0c31,0 48,-2 51,-6l0 -2c0,-3 -7,-12 -20,-27 -6,-6 -9,-11 -9,-13 0,-4 4,-6 12,-6 9,0 14,-2 17,-6 0,-4 -38,-45 -114,-122 -77,-78 -115,-119 -115,-121z"/>
  <path class="fil0 str4" d="M4748 5988c-9,19 -15,36 -16,50 -2,15 -3,54 -3,120l0 131 101 0 3 -108c2,-59 6,-97 11,-115 5,-18 17,-35 36,-51 14,-12 29,-19 46,-22 21,-4 33,-8 36,-12 2,-4 3,-14 3,-30l0 -12 -1 -46 -50 -1c-9,-1 -16,-1 -23,-1 -22,0 -38,1 -47,5 -17,5 -34,17 -53,35 -19,18 -33,37 -43,57z"/>
  <path class="fil0 str4" d="M5031 5941c-11,12 -21,27 -30,45 -7,12 -11,24 -13,36 -1,12 -2,33 -2,65 0,32 1,54 2,66 2,12 6,24 13,36 11,22 23,39 36,51 13,13 29,24 49,35 9,4 14,7 17,9 3,1 8,3 16,5 7,2 12,3 16,3 1,0 1,-1 2,-1l26 0c3,0 7,1 10,1 11,0 21,-1 30,-2 12,-1 32,-2 60,-3 29,-1 57,-2 85,-3l61 -2 0 -131c0,-65 -1,-104 -3,-119 -1,-14 -7,-31 -16,-51 -18,-36 -41,-61 -70,-76 -29,-14 -71,-22 -126,-22 -5,-1 -10,-1 -15,-1 -5,0 -10,0 -16,1 -11,0 -22,1 -33,2 -11,1 -22,4 -34,9 -11,4 -22,10 -33,17 -11,7 -21,17 -32,30zm162 43c9,0 20,3 33,9 14,6 27,15 39,29 13,13 23,28 30,44 5,12 7,20 7,26 0,5 -3,14 -9,28 -8,17 -20,33 -37,48 -17,15 -33,24 -49,27 -5,0 -9,1 -14,1 -21,0 -43,-10 -65,-29 -27,-24 -41,-49 -41,-76 0,-18 6,-35 18,-53 13,-18 28,-32 47,-40 17,-9 30,-14 39,-14l2 0z"/>
  <path class="fil0 str4" d="M5429 5893l0 121 2 275 16 2 6 0c6,0 12,-2 18,-5 3,-2 6,-3 9,-3 3,0 5,1 8,4 7,4 12,6 17,6 4,0 7,-2 10,-5 5,-8 7,-24 7,-49 0,-32 2,-47 5,-47 3,0 22,16 55,50l50 50 52 0c35,0 53,-2 55,-5 0,-4 -7,-13 -20,-29 -5,-6 -8,-11 -8,-13 0,-4 4,-6 11,-6 8,0 14,-2 17,-5l0 -1c0,-6 -21,-31 -64,-73l-69 -69 69 -69c43,-43 64,-67 64,-73l0 -1c-3,-4 -9,-5 -17,-5 -6,-1 -9,-3 -9,-6 0,-4 3,-9 8,-15 12,-14 18,-22 18,-26l0 -1c-2,-4 -20,-5 -55,-5l-52 0 -51 51c-29,29 -47,44 -53,44 -1,0 -2,-1 -2,-2 -3,-7 -5,-52 -6,-134l-2 -124 -42 -1 -15 0c-19,0 -29,2 -30,6 -1,4 -2,59 -2,163z"/>
  <path class="fil0 str4" d="M5876 5902c-72,32 -110,92 -115,179 -1,7 -1,14 -1,21 0,88 36,150 108,186 15,8 29,13 40,15 11,2 31,3 61,3 26,0 46,-1 58,-3 12,-2 23,-6 34,-11 16,-8 26,-15 30,-21 0,-2 1,-3 1,-5 0,-4 -3,-9 -8,-15 -6,-6 -8,-11 -8,-13 0,-2 3,-7 9,-13 6,-6 9,-11 9,-14 -1,-3 -5,-8 -11,-14 -8,-8 -15,-11 -20,-11 -1,0 -2,0 -3,1 -5,2 -10,5 -16,8 -3,1 -5,2 -7,2 -4,0 -8,-2 -12,-5 -6,-3 -10,-4 -13,-4 -2,0 -4,0 -4,1 -4,3 -10,6 -18,10 -6,2 -12,4 -18,4 -4,0 -7,-1 -10,-1 -9,-2 -19,-6 -30,-13 -11,-6 -20,-13 -27,-19 -5,-4 -8,-8 -8,-10 0,-2 0,-3 1,-3 4,-4 51,-7 143,-7l137 -2 0 -64c0,-37 -3,-64 -10,-82 -6,-17 -20,-37 -41,-58 -22,-22 -43,-36 -64,-43 -21,-8 -51,-11 -91,-11 -46,0 -78,4 -96,12zm98 155c-49,0 -74,-2 -77,-6 -1,-2 -2,-4 -2,-6 0,-10 14,-21 41,-34 16,-8 28,-13 38,-13l3 0c8,0 17,2 26,7 10,5 21,13 33,25 9,9 14,16 14,20l0 2c-3,4 -25,6 -66,6 -4,0 -7,-1 -10,-1z"/>
  <path class="fil0 str4" d="M6252 5953c-17,19 -31,37 -40,57 -6,14 -10,29 -12,46 -1,17 -2,55 -2,115l0 131 101 0 3 -108c1,-53 3,-85 5,-97 2,-11 7,-23 17,-35 24,-32 50,-51 78,-56 2,-1 5,-1 9,-1 12,0 27,4 44,13 20,10 35,24 47,41 8,13 14,26 16,39 2,12 4,44 6,96l3 108 94 0 2 -116 0 -23c0,-56 -2,-95 -6,-118 -6,-27 -17,-52 -35,-76 -15,-19 -32,-35 -51,-49 -14,-10 -26,-16 -37,-18 -10,-2 -35,-4 -74,-4 -16,-1 -30,-1 -41,-1 -14,0 -25,0 -31,1 -13,2 -26,6 -39,13 -20,10 -39,24 -57,42z"/>
  <polygon class="fil5 str5" points="2848,6307 2767,5806 2711,5806 2562,6245 2412,5806 2356,5806 2276,6307 2324,6307 2390,5871 2539,6307 2584,6307 2733,5871 2799,6307 "/>
  <path class="fil5 str5" d="M2907 6114c0,115 76,199 185,199 59,0 105,-14 143,-44l-30 -32c-30,23 -62,35 -109,35 -82,0 -142,-57 -145,-154l176 0c101,0 110,-42 110,-80 0,-83 -74,-129 -145,-129 -102,0 -185,80 -185,205zm214 -36l-169 0c9,-65 64,-128 137,-128 52,0 104,30 104,87 0,20 -4,41 -72,41z"/>
  <path class="fil5 str5" d="M3493 5909c-114,0 -179,100 -179,200 0,102 58,204 179,204 48,0 84,-13 115,-45l13 39 32 0 0 -577 -44 0 0 219c-39,-29 -70,-40 -116,-40zm0 42c42,0 88,18 116,55l0 202c-31,46 -70,63 -115,63 -89,0 -134,-77 -134,-162 0,-82 49,-158 133,-158z"/>
  <polygon class="fil5 str5" points="3766,5916 3766,6307 3810,6307 3810,5916 "/>
  <path class="fil5 str5" d="M3788 5843c19,0 34,-15 34,-34 0,-19 -15,-35 -34,-35 -19,0 -34,16 -34,35 0,19 15,34 34,34z"/>
  <path class="fil5 str5" d="M4097 5909c-108,0 -191,88 -191,202 0,118 75,202 169,202 48,0 89,-16 115,-41l12 35 31 0 0 -359c-36,-22 -77,-39 -136,-39zm5 42c33,0 61,7 87,22l0 245c-25,33 -65,54 -108,54 -85,0 -130,-79 -130,-161 0,-94 64,-160 151,-160z"/>
  <path class="fil0 str4" d="M3927 4821c-15,-4 -27,3 -48,11 -9,4 -21,8 -35,12 -32,8 -79,14 -120,15 -17,1 -33,1 -47,1 -47,-2 -67,-13 -91,-10 -11,1 -23,6 -36,10l0 133c0,159 130,290 289,290l1200 0c159,0 289,-131 289,-290l0 -131c-3,0 -5,0 -8,-1 -37,-2 -65,-18 -89,-21 -24,-3 -44,7 -91,9 -5,1 -9,1 -14,1 -47,0 -112,-6 -153,-17 -2,0 -5,-1 -7,-2 -40,-11 -55,-26 -76,-20 -1,0 -2,0 -4,1 -21,7 -49,33 -102,47 -18,4 -39,7 -62,9 -47,5 -101,4 -148,1 -68,-4 -119,-14 -170,-23 -31,8 -61,16 -97,23 -20,4 -42,7 -66,9 -25,2 -53,4 -82,4 -45,0 -91,-4 -125,-13 -48,-12 -75,-34 -96,-44 -4,-2 -7,-3 -11,-4z"/>
  <path class="fil6 str6" d="M4064 4004l127 28c8,-13 16,-26 26,-38l-83 -95c12,24 10,51 -4,73 -15,22 -40,34 -66,32z"/>
  <path class="fil6 str6" d="M4159 3888l105 58c10,-8 20,-15 31,-22l-29 -81c-10,21 -27,37 -48,45 -22,7 -45,6 -66,-4l7 4z"/>
  <path class="fil6 str6" d="M4296 3851l42 51c17,-7 35,-12 53,-15l4 -58c-10,20 -30,33 -53,35 -20,1 -35,-1 -46,-13z"/>
  <path class="fil6 str6" d="M4412 3829l15 53c4,0 8,-1 12,-1 6,0 12,0 18,1 4,0 8,0 12,1l14 -55c-6,15 -19,25 -35,25 -15,0 -30,-9 -36,-24z"/>
  <path class="fil6 str6" d="M4499 3831l5 56c18,4 36,9 53,17l3 -4 45 -55c-13,15 -33,23 -53,21 -22,-1 -42,-15 -53,-35z"/>
  <path class="fil6 str6" d="M4629 3844l-29 81c11,7 22,15 32,23l104 -58 6 -4c-20,10 -44,11 -65,4 -21,-8 -39,-25 -48,-46z"/>
  <path class="fil6 str6" d="M4761 3902l-83 94c9,12 18,25 25,38l127 -28c-26,2 -51,-10 -65,-32 -15,-21 -16,-49 -4,-72z"/>
  <path class="fil7 str7" d="M4662 3964c-8,-9 -22,-14 -37,-12l7 -4c-10,-8 -21,-16 -32,-23l-4 11c-2,-10 -7,-20 -17,-25 -8,-4 -19,-4 -29,2l7 -9c-17,-8 -35,-13 -53,-17l0 7c-5,-6 -10,-11 -19,-12 -6,0 -14,3 -19,10l3 -9c-4,-1 -8,-1 -12,-1 -6,-1 -12,-1 -18,-1 -4,0 -8,1 -12,1l2 8c-6,-7 -13,-10 -20,-10 -8,0 -14,6 -18,12l0 -5c-18,3 -36,8 -53,15l7 9c-11,-6 -22,-6 -30,-2 -10,5 -14,15 -16,25l-4 -10c-11,7 -21,14 -31,22l6 4c-16,-2 -29,3 -38,12 -10,12 -10,26 -8,39l-7 -7c-10,12 -18,25 -26,38l13 3c-18,3 -31,13 -36,26 -8,15 -4,31 3,45l-7 -4c-3,14 -4,29 -4,44 14,96 58,174 105,231l357 0c3,0 6,0 9,1 46,-58 89,-136 103,-231 0,-15 -1,-29 -3,-43l-7 4c7,-14 10,-30 3,-45 -6,-13 -19,-23 -36,-26l12 -3c-7,-13 -16,-26 -25,-38l-7 8c2,-14 1,-28 -9,-40zm-148 214c51,-4 58,-50 101,-78 26,-8 47,-7 55,6 14,22 -11,67 -56,100 -46,34 -94,44 -109,23 -7,-11 -2,-31 9,-51zm-235 -78c44,29 51,74 101,79 12,20 16,40 9,50 -14,22 -63,12 -108,-22 -46,-34 -71,-79 -57,-100 9,-13 30,-15 55,-7z"/>
  <path class="fil7 str7" d="M4028 4302c-13,-4 -28,-7 -41,-8 -13,-2 -25,-2 -38,-2 -12,0 -26,0 -42,3 -17,2 -37,7 -51,8 -13,2 -22,0 -31,-2 -9,-2 -19,-5 -27,-9l9 -13c-21,8 -36,-1 -45,-25 0,6 -3,23 0,33 3,11 6,16 10,22 4,6 8,12 16,18 9,6 22,13 40,19 19,5 42,11 61,16 20,5 37,9 50,14 13,4 23,7 33,12 10,5 19,11 28,23 8,12 15,31 26,52 10,21 24,44 46,60 21,15 51,22 81,29l0 -72c0,-15 3,-30 10,-43 -1,0 -1,-1 -4,-2 -2,-1 0,0 -3,-2 -2,-2 -5,-4 -9,-8 -4,-3 -9,-8 -13,-13 -4,-5 -8,-9 -11,-15 -4,-6 -8,-13 -11,-20 -4,-7 -6,-15 -9,-20 -3,-6 -5,-9 -8,-13 -4,-4 -8,-9 -13,-14 -5,-4 -11,-8 -20,-13 -8,-4 -20,-10 -34,-15zm-121 23c3,-11 20,-16 38,-11 18,5 31,18 28,29 -3,11 -21,16 -39,11 -18,-4 -30,-17 -27,-29zm-48 -12c12,2 19,11 17,18 -1,7 -12,11 -23,8 -11,-2 -19,-11 -17,-18 1,-7 12,-11 23,-8zm143 36c6,-13 29,-16 49,-6 20,10 32,30 25,43 -7,14 -29,17 -50,6 -20,-10 -31,-29 -24,-43zm63 69c14,-12 37,-7 52,11 14,17 15,41 1,53 -14,11 -37,7 -52,-11 -15,-18 -15,-41 -1,-53z"/>
  <path class="fil7 str7" d="M4004 4594c-16,-6 -24,-15 -31,-24 -8,-9 -16,-18 -25,-25 -9,-7 -18,-14 -29,-22 -10,-8 -22,-17 -35,-23 -14,-6 -29,-10 -48,-9 -18,1 -40,8 -55,15 -15,6 -24,13 -36,23 -13,10 -29,22 -44,32 -15,10 -28,17 -44,18 -15,1 -32,-4 -44,-8l-9 -2 7 -13c-16,4 -27,-1 -34,-16 -1,-1 -1,-1 -1,-2 -1,0 -1,0 -1,0 -2,3 -6,12 -6,20 0,8 4,14 10,22 6,8 14,17 25,24 12,8 26,15 40,19 15,3 29,3 41,2 13,-1 22,-3 34,-7 11,-3 24,-8 36,-12 13,-4 24,-7 34,-8 9,-2 18,-3 30,0 12,4 28,11 40,17 12,7 21,14 28,22 7,9 13,20 20,30 7,9 15,18 27,29 11,12 25,25 41,37 15,12 33,21 55,29 23,8 50,14 71,12 21,-1 36,-10 45,-16l7 -4 0 -129c-8,-8 -17,-13 -28,-18 -16,-7 -36,-5 -58,-6 -23,0 -47,-1 -63,-7zm-70 -25c19,16 26,40 14,54 -11,15 -36,14 -56,-1 -19,-15 -25,-39 -13,-54 11,-14 36,-14 55,1zm-188 7c2,8 -6,17 -19,21 -13,4 -25,1 -28,-6 -2,-7 7,-16 19,-20 13,-4 26,-2 28,5zm106 -26c2,12 -13,25 -33,29 -21,3 -39,-4 -41,-16 -2,-13 12,-26 33,-29 21,-4 39,3 41,16zm130 105c9,-24 48,-32 87,-18 38,14 63,46 54,70 -9,24 -48,32 -87,18 -38,-14 -63,-46 -54,-70z"/>
  <path class="fil7 str7" d="M4104 4809c-21,-7 -51,-12 -81,-8 -26,5 -52,17 -85,24 21,10 48,32 96,44 34,9 80,13 125,13 -4,-12 -6,-24 -6,-36l0 -12 0 -3c-13,-8 -33,-17 -49,-22z"/>
  <path class="fil7 str7" d="M3879 4832c-31,-5 -63,-19 -89,-14 -32,6 -52,30 -66,41 41,-1 88,-7 120,-15 14,-4 26,-8 35,-12z"/>
  <path class="fil7 str7" d="M4725 4829l0 17c0,8 -1,15 -3,22 23,-2 44,-5 62,-9 53,-14 81,-40 102,-47 -13,-5 -25,-9 -38,-11 -30,-5 -61,1 -81,7 -17,6 -32,14 -42,21z"/>
  <path class="fil7 str7" d="M5059 4814c-38,-10 -67,11 -93,17 2,1 5,2 7,2 41,11 106,17 153,17 -15,-11 -20,-24 -67,-36z"/>
  <path class="fil7 str7" d="M4766 4691c-9,-24 15,-55 54,-69 38,-15 77,-7 86,18 9,24 -15,55 -54,69 -39,15 -78,7 -86,-18zm91 62c23,-8 40,-17 56,-29 16,-12 30,-26 41,-37 11,-11 19,-20 27,-30 7,-10 13,-21 20,-29 7,-9 16,-16 28,-23 12,-6 28,-13 40,-17 12,-3 21,-2 31,0 10,1 21,4 33,8 12,4 25,9 37,13 11,3 21,5 33,6 13,1 27,1 42,-2 14,-4 28,-11 40,-19 11,-8 20,-17 26,-24 6,-8 9,-14 9,-22 0,-8 -3,-17 -5,-20 -1,-1 -1,-1 -2,-1 -2,14 -12,20 -29,18l7 12c-4,1 -9,2 -15,4 -12,4 -29,9 -45,8 -15,-1 -28,-8 -43,-18 -15,-10 -32,-23 -44,-32 -13,-10 -21,-17 -37,-24 -15,-7 -37,-13 -55,-15 -19,-1 -34,3 -48,9 -13,7 -25,16 -36,24 -10,8 -20,14 -28,22 -9,7 -17,15 -25,24 -8,9 -16,19 -32,25 -16,6 -40,7 -62,7 -23,1 -44,-1 -59,6 -15,7 -23,9 -37,20l0 2 0 120c4,2 10,6 15,10 10,6 25,14 46,16 21,1 49,-4 71,-12zm83 -145c-11,-15 -5,-39 14,-54 19,-15 44,-16 56,-1 11,14 5,38 -14,54 -19,15 -44,15 -56,1zm222 -27c-13,-4 -22,-13 -19,-20 2,-7 14,-10 27,-6 13,4 22,13 19,21 -2,7 -14,10 -27,5zm-92 -18c-21,-3 -36,-16 -34,-29 2,-12 21,-19 41,-16 21,4 36,17 34,29 -2,13 -21,20 -41,16z"/>
  <path class="fil7 str7" d="M4725 4550c26,-7 55,-14 74,-28 21,-15 35,-39 46,-60 10,-21 18,-39 26,-51 8,-12 18,-18 28,-23 10,-5 20,-9 33,-13 13,-4 29,-9 49,-14 20,-5 43,-10 61,-16 19,-6 32,-12 40,-18 9,-6 13,-12 17,-18 4,-6 7,-11 10,-22 2,-11 4,-26 3,-32 0,-2 -1,-3 -2,-2 -2,3 -4,6 -7,9 -10,11 -22,16 -35,13l10 14c-1,1 -2,1 -4,2 -7,4 -18,7 -28,10 -9,2 -18,4 -32,2 -14,-1 -33,-6 -50,-9 -17,-2 -30,-2 -43,-2 -12,0 -24,0 -37,1 -13,2 -28,5 -42,9 -13,4 -25,10 -34,15 -9,5 -14,9 -19,13 -5,4 -10,9 -13,14 -3,4 -6,7 -8,12 -3,6 -6,13 -9,21 -4,7 -8,14 -11,19 -4,6 -7,11 -11,16 -4,5 -10,9 -14,13 -4,4 -6,6 -9,8l-1 1c8,14 12,30 12,47l0 69zm260 -218c-2,-7 6,-15 17,-18 11,-3 22,1 23,8 2,8 -5,16 -17,19 -11,2 -22,-1 -23,-9zm-190 140c-15,18 -38,23 -52,11 -14,-12 -13,-35 1,-53 15,-17 38,-22 52,-11 14,12 14,36 -1,53zm132 -116c-18,5 -36,0 -39,-12 -3,-11 10,-24 28,-29 18,-5 35,0 38,12 3,11 -9,24 -27,29zm-92 38c-21,10 -43,7 -50,-6 -6,-14 5,-33 25,-44 21,-10 43,-7 49,7 7,13 -4,33 -24,43z"/>
  <path class="fil8 str8" d="M4171 4106c-7,-14 -11,-30 -3,-45 5,-13 18,-23 36,-26l-13 -3 -127 -28c-55,-13 -63,-6 -24,20l124 78 7 4z"/>
  <path class="fil8 str8" d="M4134 3899l83 95 7 7c-2,-13 -2,-27 8,-39 9,-9 22,-14 38,-12l-6 -4 -105 -58 -7 -4 0 0c-37,-20 -43,-15 -18,15z"/>
  <path class="fil8 str8" d="M4266 3843l29 81 4 10c2,-10 6,-20 16,-25 8,-4 19,-4 30,2l-7 -9 -42 -51c-1,-1 -2,-3 -3,-4l-8 -10c-23,-29 -30,-29 -21,1l2 5z"/>
  <path class="fil8 str8" d="M4395 3829l-4 58 0 5c4,-6 10,-12 18,-12 7,0 14,3 20,10l-2 -8 -15 -53 -1 -7c-7,-26 -12,-28 -15,-5l-1 12z"/>
  <path class="fil8 str8" d="M4483 3828l-14 55 -3 9c5,-7 13,-10 19,-10 9,1 14,6 19,12l0 -7 -5 -56 -1 -12c-2,-23 -7,-21 -14,6l-1 3z"/>
  <path class="fil8 str8" d="M4605 3845l-45 55 -3 4 -7 9c10,-6 21,-6 29,-2 10,5 15,15 17,25l4 -11 29 -81 1 -4c10,-29 3,-30 -20,-1 -2,2 -3,4 -5,6z"/>
  <path class="fil8 str8" d="M4736 3890l-104 58 -7 4c15,-2 29,3 37,12 10,12 11,26 9,40l7 -8 83 -94c25,-31 19,-36 -19,-16l-6 4z"/>
  <path class="fil8 str8" d="M4830 4006l-127 28 -12 3c17,3 30,13 36,26 7,15 4,31 -3,45l7 -4 123 -78c39,-26 31,-33 -24,-20z"/>
  <path class="fil2 str9" d="M4380 4179c-50,-5 -57,-50 -101,-79 -25,-8 -46,-6 -55,7 -14,21 11,66 57,100 45,34 94,44 108,22 7,-10 3,-30 -9,-50zm-98 -60c14,11 20,24 16,30 -5,7 -20,3 -34,-8 -13,-10 -20,-24 -15,-30 5,-6 20,-3 33,8z"/>
  <path class="fil2 str9" d="M4514 4178c-11,20 -16,40 -9,51 15,21 63,11 109,-23 45,-33 70,-78 56,-100 -8,-13 -29,-14 -55,-6 -43,28 -50,74 -101,78zm116 -37c-13,10 -28,14 -33,8 -5,-6 2,-20 15,-31 14,-10 29,-14 34,-7 5,6 -2,19 -16,30z"/>
  <path class="fil1 str10" d="M4298 4149c4,-6 -2,-19 -16,-30 -13,-11 -28,-14 -33,-8 -5,6 2,20 15,30 14,11 29,15 34,8z"/>
  <path class="fil1 str10" d="M4612 4118c-13,11 -20,25 -15,31 5,6 20,2 33,-8 14,-11 21,-24 16,-30 -5,-7 -20,-3 -34,7z"/>
  <path class="fil5 str5" d="M4622 4377l-357 0 -9 0c-41,0 -77,25 -93,60 -7,13 -10,28 -10,43l0 72 0 73 0 129 0 0 0 77 0 3 0 12c0,12 2,24 6,36 29,0 57,-2 82,-4 24,-2 46,-5 66,-9l-18 -18c-5,-5 -8,-13 -8,-23l0 -318c-1,-16 9,-28 23,-31 1,0 3,0 4,0 7,-1 14,0 20,4l286 163 0 1 9 9 102 101 0 -18 0 -120 0 -2 0 -67 0 0 0 -69c0,-17 -4,-33 -12,-47 -16,-31 -46,-53 -82,-56 -3,-1 -6,-1 -9,-1z"/>
  <path class="fil9 str11" d="M4615 4689l-289 166c-14,7 -28,5 -37,-4l18 18c36,-7 66,-15 97,-23 51,9 102,19 170,23 47,3 101,4 148,-1 2,-7 3,-14 3,-22l0 -17 0 -72 -102 -101c8,11 6,25 -8,33z"/>
  <path class="fil10 str12" d="M4123 4707c9,-24 -16,-56 -54,-70 -39,-14 -78,-6 -87,18 -9,24 16,56 54,70 39,14 78,6 87,-18z"/>
  <path class="fil10 str12" d="M3948 4623c12,-14 5,-38 -14,-54 -19,-15 -44,-15 -55,-1 -12,15 -6,39 13,54 20,15 45,16 56,1z"/>
  <path class="fil10 str12" d="M3819 4579c20,-4 35,-17 33,-29 -2,-13 -20,-20 -41,-16 -21,3 -35,16 -33,29 2,12 20,19 41,16z"/>
  <path class="fil10 str12" d="M3727 4597c13,-4 21,-13 19,-21 -2,-7 -15,-9 -28,-5 -12,4 -21,13 -19,20 3,7 15,10 28,6z"/>
  <path class="fil10 str12" d="M4820 4622c-39,14 -63,45 -54,69 8,25 47,33 86,18 39,-14 63,-45 54,-69 -9,-25 -48,-33 -86,-18z"/>
  <path class="fil10 str12" d="M4954 4554c-19,15 -25,39 -14,54 12,14 37,14 56,-1 19,-16 25,-40 14,-54 -12,-15 -37,-14 -56,1z"/>
  <path class="fil10 str12" d="M5036 4534c-2,13 13,26 34,29 20,4 39,-3 41,-16 2,-12 -13,-25 -34,-29 -20,-3 -39,4 -41,16z"/>
  <path class="fil10 str12" d="M5143 4561c-3,7 6,16 19,20 13,5 25,2 27,-5 3,-8 -6,-17 -19,-21 -13,-4 -25,-1 -27,6z"/>
  <path class="fil10 str12" d="M4795 4472c15,-17 15,-41 1,-53 -14,-11 -37,-6 -52,11 -14,18 -15,41 -1,53 14,12 37,7 52,-11z"/>
  <path class="fil10 str12" d="M4785 4388c7,13 29,16 50,6 20,-10 31,-30 24,-43 -6,-14 -28,-17 -49,-7 -20,11 -31,30 -25,44z"/>
  <path class="fil10 str12" d="M4888 4344c3,12 21,17 39,12 18,-5 30,-18 27,-29 -3,-12 -20,-17 -38,-12 -18,5 -31,18 -28,29z"/>
  <path class="fil10 str12" d="M5002 4314c-11,3 -19,11 -17,18 1,8 12,11 23,9 12,-3 19,-11 17,-19 -1,-7 -12,-11 -23,-8z"/>
  <path class="fil10 str12" d="M4118 4482c14,-12 13,-36 -1,-53 -15,-18 -38,-23 -52,-11 -14,12 -14,35 1,53 15,18 38,22 52,11z"/>
  <path class="fil10 str12" d="M4026 4392c21,11 43,8 50,-6 7,-13 -5,-33 -25,-43 -20,-10 -43,-7 -49,6 -7,14 4,33 24,43z"/>
  <path class="fil10 str12" d="M3934 4354c18,5 36,0 39,-11 3,-11 -10,-24 -28,-29 -18,-5 -35,0 -38,11 -3,12 9,25 27,29z"/>
  <path class="fil10 str12" d="M3876 4331c2,-7 -5,-16 -17,-18 -11,-3 -22,1 -23,8 -2,7 6,16 17,18 11,3 22,-1 23,-8z"/>
  <path class="fil1 str10" d="M4281 4510l0 318c0,10 3,18 8,23 9,9 23,11 37,4l289 -166c14,-8 16,-22 8,-33l-9 -9 0 -1 -286 -163c-6,-4 -13,-5 -20,-4 -2,0 -3,0 -4,0 -14,3 -24,15 -23,31z"/>
  <path class="fil2 str2" d="M2854 1785c10,4 20,10 28,23 8,12 16,30 26,51 11,21 25,45 46,60 22,15 52,22 81,29l0 -71c0,-16 4,-30 10,-43 -1,-1 -1,-1 -3,-2 -3,-2 -1,-1 -3,-2 -3,-2 -5,-5 -9,-8 -4,-4 -10,-9 -14,-13 -4,-5 -7,-10 -11,-16 -3,-6 -7,-12 -11,-20 -3,-7 -6,-14 -9,-20 -2,-5 -5,-8 -8,-13 -3,-4 -8,-9 -13,-13 -5,-5 -10,-8 -19,-13 -9,-5 -21,-11 -34,-15 -14,-5 -29,-8 -42,-9 -13,-1 -25,-1 -37,-1 -13,0 -26,0 -43,2 -16,2 -36,7 -50,9 -14,1 -22,0 -32,-3 -9,-2 -19,-5 -26,-8l8 -14c-21,8 -36,0 -45,-25 0,6 -2,23 0,34 3,10 7,16 10,22 4,5 8,11 17,18 8,6 22,12 40,18 18,6 41,11 61,16 20,5 36,10 49,14 13,4 23,8 33,13zm-37 -34c-19,-5 -31,-18 -28,-29 3,-11 20,-17 39,-12 18,5 30,18 27,30 -3,11 -20,16 -38,11zm-75 -42c11,3 19,11 17,18 -2,8 -13,12 -24,9 -11,-3 -19,-11 -17,-19 2,-7 13,-11 24,-8zm216 74c-7,13 -29,16 -49,6 -21,-10 -32,-30 -25,-43 7,-14 29,-17 49,-6 21,10 32,29 25,43zm-9 85c-15,-18 -16,-42 -2,-53 14,-12 38,-7 52,10 15,18 15,42 1,53 -14,12 -37,7 -51,-10z"/>
  <path class="fil2 str2" d="M2802 1920c-11,-8 -22,-17 -36,-24 -13,-6 -29,-10 -47,-9 -19,2 -40,8 -56,15 -15,7 -23,14 -36,23 -12,10 -29,22 -44,32 -14,10 -28,18 -43,19 -15,1 -32,-5 -44,-8l-10 -3 8 -13c-17,4 -28,-1 -35,-15 0,-1 0,-2 -1,-3 0,0 -1,0 -1,1 -2,2 -6,12 -6,20 0,7 4,14 10,21 6,8 14,17 26,25 11,8 25,15 39,18 15,4 30,4 42,3 12,-1 22,-3 33,-7 11,-4 25,-9 37,-13 12,-4 23,-6 33,-8 10,-2 18,-2 30,1 12,3 28,10 41,17 12,7 20,13 27,22 8,9 14,19 21,29 7,10 15,19 26,30 11,11 25,25 41,37 16,11 33,21 56,29 22,7 49,13 70,11 21,-1 36,-10 46,-16l6 -4 0 -129c-8,-7 -16,-13 -28,-18 -15,-6 -36,-5 -58,-5 -22,0 -47,-2 -63,-7 -16,-6 -23,-16 -31,-25 -8,-9 -16,-17 -25,-24 -8,-8 -18,-14 -28,-22zm-109 10c21,-3 39,4 42,16 2,13 -13,26 -34,29 -20,4 -39,-3 -41,-16 -2,-12 13,-25 33,-29zm-65 43c2,7 -6,16 -19,20 -13,4 -25,2 -27,-5 -3,-8 6,-17 19,-21 13,-4 25,-1 27,6zm133 -8c11,-15 36,-14 56,1 19,15 25,39 13,54 -11,14 -36,14 -55,-1 -19,-16 -26,-40 -14,-54zm104 87c9,-25 47,-33 86,-18 39,14 63,45 54,69 -9,24 -48,33 -86,18 -39,-14 -63,-45 -54,-69z"/>
  <path class="fil2 str2" d="M2905 2198c-26,4 -52,16 -85,23 21,10 48,32 96,44 35,9 80,13 126,13 -4,-11 -7,-23 -7,-36l0 -11 0 -4c-12,-8 -33,-17 -49,-22 -20,-6 -51,-12 -81,-7z"/>
  <path class="fil2 str2" d="M2762 2228c-31,-5 -64,-19 -90,-14 -32,7 -52,30 -66,42 42,-2 88,-8 120,-16 15,-3 26,-8 36,-12z"/>
  <path class="fil2 str2" d="M3607 2226l0 17c0,7 -1,15 -2,22 22,-2 43,-5 61,-10 53,-14 81,-39 103,-47 -14,-4 -26,-8 -39,-10 -30,-5 -60,0 -81,7 -17,5 -31,14 -42,21z"/>
  <path class="fil2 str2" d="M3942 2211c-38,-10 -68,10 -94,17 3,0 5,1 8,2 40,10 105,17 152,16 -14,-10 -20,-24 -66,-35z"/>
  <path class="fil2 str2" d="M3668 2161c22,2 49,-4 71,-12 23,-7 40,-17 56,-29 16,-11 30,-25 42,-37 11,-11 19,-20 26,-30 7,-9 13,-20 20,-29 8,-9 16,-15 28,-22 12,-7 28,-14 41,-17 12,-3 20,-3 30,-1 10,2 21,4 33,8 13,4 26,9 37,13 12,4 21,6 34,7 12,1 27,1 41,-3 15,-3 29,-10 40,-18 12,-8 20,-17 26,-25 6,-8 10,-14 10,-22 0,-8 -4,-17 -6,-19 0,-1 -1,-1 -1,-1 -3,14 -13,19 -30,17l7 12c-4,1 -9,3 -15,5 -12,3 -29,9 -44,8 -15,-1 -29,-9 -44,-19 -15,-10 -31,-22 -44,-32 -12,-10 -21,-17 -36,-23 -16,-7 -37,-14 -56,-15 -18,-2 -34,2 -47,9 -14,6 -26,15 -36,23 -11,8 -20,15 -29,22 -9,8 -17,16 -25,25 -8,9 -15,19 -31,25 -16,5 -41,7 -63,7 -23,0 -43,-1 -58,5 -16,7 -24,10 -38,20l0 2 0 120c4,3 10,7 16,10 9,6 24,15 45,16zm66 -55c-38,14 -77,6 -86,-18 -9,-24 15,-56 54,-70 39,-14 77,-6 86,18 9,24 -15,56 -54,70zm310 -128c-13,-4 -21,-13 -19,-21 2,-7 15,-9 28,-5 12,4 21,13 19,20 -3,7 -15,10 -28,6zm-221 26c-12,-14 -6,-38 14,-54 19,-15 44,-15 55,-1 12,15 6,39 -14,54 -19,15 -44,16 -55,1zm129 -44c-21,-4 -35,-17 -33,-29 2,-13 20,-20 41,-16 20,3 35,16 33,29 -2,12 -20,19 -41,16z"/>
  <path class="fil2 str2" d="M3607 1946c26,-6 55,-14 74,-27 22,-15 36,-39 46,-60 11,-21 18,-39 26,-52 9,-12 18,-18 28,-23 10,-4 20,-8 33,-12 13,-4 30,-9 50,-14 19,-5 43,-10 61,-16 18,-6 31,-12 40,-19 8,-6 12,-12 16,-18 4,-5 8,-11 10,-22 3,-10 4,-26 4,-31 -1,-3 -2,-3 -3,-3 -2,3 -4,6 -6,9 -10,12 -22,16 -36,13l11 14c-1,1 -3,2 -5,3 -7,4 -18,7 -27,9 -10,3 -18,4 -32,3 -14,-2 -34,-7 -51,-9 -16,-3 -30,-3 -42,-3 -13,0 -25,0 -38,2 -13,1 -28,4 -41,8 -14,5 -26,11 -34,16 -9,4 -15,8 -20,12 -5,5 -9,10 -13,14 -3,4 -5,8 -8,13 -3,5 -5,13 -9,20 -3,7 -7,14 -11,20 -3,6 -7,11 -11,15 -4,5 -9,10 -13,14 -4,3 -7,6 -9,7l-1 1c7,14 11,30 11,47l0 69zm260 -217c-2,-8 6,-16 17,-19 11,-2 22,1 24,9 2,7 -6,15 -17,18 -12,3 -22,-1 -24,-8zm-58 23c-18,5 -35,0 -38,-11 -3,-11 9,-24 27,-29 19,-5 36,0 39,11 3,11 -9,24 -28,29zm-132 117c-14,17 -37,22 -51,11 -14,-12 -14,-36 1,-53 14,-18 37,-23 52,-11 14,12 13,35 -2,53zm40 -79c-20,10 -42,8 -49,-6 -7,-14 4,-33 25,-43 20,-10 42,-8 49,6 7,14 -4,33 -25,43z"/>
  <path class="fil2 str2" d="M3074 1429c7,-14 16,-27 25,-39l-83 -94c8,25 11,51 -4,73 -14,21 -40,29 -65,31l127 29z"/>
  <path class="fil2 str2" d="M3041 1285l105 58c10,-8 20,-16 31,-22l-29 -81c-9,20 -27,36 -48,44 -21,8 -45,7 -65,-3l6 4z"/>
  <path class="fil2 str2" d="M3179 1248l41 51c17,-7 35,-12 53,-16l5 -57c-11,20 -31,33 -53,35 -20,1 -36,-2 -46,-13z"/>
  <path class="fil2 str2" d="M3295 1226l14 53c5,-1 8,-1 13,-1 5,0 11,0 17,0 4,0 8,1 12,1l15 -54c-11,13 -20,25 -35,25 -16,0 -26,-12 -36,-24z"/>
  <path class="fil2 str2" d="M3382 1228l4 55c19,4 37,10 54,17l2 -3 46 -55c-14,14 -33,22 -53,21 -23,-2 -43,-15 -53,-35z"/>
  <path class="fil2 str2" d="M3512 1241l-30 81c12,6 22,14 32,22l104 -57 7 -4c-21,10 -44,11 -66,3 -21,-8 -38,-24 -47,-45z"/>
  <path class="fil2 str2" d="M3643 1299l-83 93c10,12 18,25 26,39l125 -28c-25,-3 -49,-11 -64,-32 -14,-22 -12,-48 -4,-72z"/>
  <path class="fil2 str2" d="M3711 1403l-125 28 -13 3c18,3 31,13 36,25 8,16 4,31 -3,45l7 -4 124 -77c39,-27 29,-33 -26,-20z"/>
  <path class="fil2 str2" d="M3560 1392l83 -93 0 -1c26,-31 19,-36 -18,-15l-7 4 -104 57 -7 4c16,-1 29,4 38,13 10,11 10,25 8,39l7 -8z"/>
  <path class="fil2 str2" d="M3482 1322l30 -81 1 -4c9,-30 2,-30 -21,-1 -1,2 -3,4 -4,6l-46 55 -2 3 -8 9c11,-5 22,-5 30,-1 10,5 14,14 16,24l4 -10z"/>
  <path class="fil2 str2" d="M3386 1283l-4 -55 -1 -13c-3,-23 -8,-21 -15,6l0 4 -15 54 -3 10c6,-7 13,-11 20,-10 8,0 14,5 18,11l0 -7z"/>
  <path class="fil2 str2" d="M3309 1279l-14 -53 -2 -7c-7,-27 -12,-29 -14,-6l-1 13 -5 57 0 5c5,-6 10,-11 19,-11 7,-1 14,3 19,10l-2 -8z"/>
  <path class="fil2 str2" d="M3220 1299l-41 -51c-2,-2 -3,-3 -4,-5l-8 -9c-23,-29 -30,-29 -20,1l1 5 29 81 4 9c2,-10 7,-20 17,-25 8,-4 19,-3 29,2l-7 -8z"/>
  <path class="fil2 str2" d="M3146 1343l-105 -58 -6 -4 0 0c-38,-21 -44,-16 -19,15l83 94 7 8c-2,-14 -1,-28 9,-39 8,-9 22,-14 37,-13l-6 -3z"/>
  <path class="fil2 str2" d="M3074 1429l-127 -29c-55,-13 -63,-6 -24,21l123 77 7 4c-7,-14 -10,-29 -3,-45 6,-12 19,-22 36,-25l-12 -3z"/>
  <path class="fil2 str2" d="M3099 1390c-9,12 -18,25 -25,39l12 3c-17,3 -30,13 -36,25 -7,16 -4,31 3,45l-7 -4c-2,15 -4,30 -4,45 14,96 58,174 105,231l357 0c3,0 6,0 9,0 47,-57 90,-135 104,-231 0,-14 -2,-29 -4,-43l-7 4c7,-14 11,-29 3,-45 -5,-12 -18,-22 -36,-25l13 -3c-8,-14 -16,-27 -26,-39l-7 8c2,-14 2,-28 -8,-39 -9,-9 -22,-14 -38,-13l7 -4c-10,-8 -20,-16 -32,-22l-4 10c-2,-10 -6,-19 -16,-24 -8,-4 -19,-4 -30,1l8 -9c-17,-7 -35,-13 -54,-17l0 7c-4,-6 -10,-11 -18,-11 -7,-1 -14,3 -20,10l3 -10c-4,0 -8,-1 -12,-1 -6,0 -12,0 -17,0 -5,0 -8,0 -13,1l2 8c-5,-7 -12,-11 -19,-10 -9,0 -14,5 -19,11l0 -5c-18,4 -36,9 -53,16l7 8c-10,-5 -21,-6 -29,-2 -10,5 -15,15 -17,25l-4 -9c-11,6 -21,14 -31,22l6 3c-15,-1 -29,4 -37,13 -10,11 -11,25 -9,39l-7 -8zm298 185c50,-5 57,-50 101,-79 25,-8 46,-6 55,7 14,21 -12,66 -57,100 -46,34 -94,44 -108,22 -7,-11 -3,-30 9,-50zm-236 -78c44,28 51,74 102,78 11,20 16,40 9,51 -15,21 -63,11 -109,-23 -45,-33 -70,-78 -56,-100 8,-13 29,-14 54,-6z"/>
  <path class="fil1 str2" d="M3000 1878c14,-11 14,-35 -1,-53 -14,-17 -38,-22 -52,-10 -14,11 -13,35 2,53 14,17 37,22 51,10z"/>
  <path class="fil1 str2" d="M2909 1789c20,10 42,7 49,-6 7,-14 -4,-33 -25,-43 -20,-11 -42,-8 -49,6 -7,13 4,33 25,43z"/>
  <path class="fil1 str2" d="M2817 1751c18,5 35,0 38,-11 3,-12 -9,-25 -27,-30 -19,-5 -36,1 -39,12 -3,11 9,24 28,29z"/>
  <path class="fil1 str2" d="M2735 1736c11,3 22,-1 24,-9 2,-7 -6,-15 -17,-18 -11,-3 -22,1 -24,8 -2,8 6,16 17,19z"/>
  <path class="fil1 str2" d="M2951 2034c-39,-15 -77,-7 -86,18 -9,24 15,55 54,69 38,15 77,6 86,-18 9,-24 -15,-55 -54,-69z"/>
  <path class="fil1 str2" d="M2830 2020c12,-15 6,-39 -13,-54 -20,-15 -45,-16 -56,-1 -12,14 -5,38 14,54 19,15 44,15 55,1z"/>
  <path class="fil1 str2" d="M2701 1975c21,-3 36,-16 34,-29 -3,-12 -21,-19 -42,-16 -20,4 -35,17 -33,29 2,13 21,20 41,16z"/>
  <path class="fil1 str2" d="M2609 1993c13,-4 21,-13 19,-20 -2,-7 -14,-10 -27,-6 -13,4 -22,13 -19,21 2,7 14,9 27,5z"/>
  <path class="fil1 str2" d="M3702 2018c-39,14 -63,46 -54,70 9,24 48,32 86,18 39,-14 63,-46 54,-70 -9,-24 -47,-32 -86,-18z"/>
  <path class="fil1 str2" d="M3837 1950c-20,16 -26,40 -14,54 11,15 36,14 55,-1 20,-15 26,-39 14,-54 -11,-14 -36,-14 -55,1z"/>
  <path class="fil1 str2" d="M3919 1931c-2,12 12,25 33,29 21,3 39,-4 41,-16 2,-13 -13,-26 -33,-29 -21,-4 -39,3 -41,16z"/>
  <path class="fil1 str2" d="M4025 1957c-2,8 6,17 19,21 13,4 25,1 28,-6 2,-7 -7,-16 -19,-20 -13,-4 -26,-2 -28,5z"/>
  <path class="fil1 str2" d="M3677 1869c15,-18 16,-41 2,-53 -15,-12 -38,-7 -52,11 -15,17 -15,41 -1,53 14,11 37,6 51,-11z"/>
  <path class="fil1 str2" d="M3668 1784c7,14 29,16 49,6 21,-10 32,-29 25,-43 -7,-14 -29,-16 -49,-6 -21,10 -32,29 -25,43z"/>
  <path class="fil1 str2" d="M3771 1741c3,11 20,16 38,11 19,-5 31,-18 28,-29 -3,-11 -20,-16 -39,-11 -18,5 -30,18 -27,29z"/>
  <path class="fil1 str2" d="M3884 1710c-11,3 -19,11 -17,19 2,7 12,11 24,8 11,-3 19,-11 17,-18 -2,-8 -13,-11 -24,-9z"/>
  <path class="fil1 str2" d="M3272 1626c7,-11 2,-31 -9,-51 -51,-4 -58,-50 -102,-78 -25,-8 -46,-7 -54,6 -14,22 11,67 56,100 46,34 94,44 109,23zm-108 -111c14,11 21,25 16,31 -5,6 -20,3 -33,-8 -14,-11 -21,-24 -16,-30 5,-7 20,-3 33,7z"/>
  <path class="fil1 str2" d="M3397 1575c-12,20 -16,39 -9,50 14,22 62,12 108,-22 45,-34 71,-79 57,-100 -9,-13 -30,-15 -55,-7 -44,29 -51,74 -101,79zm116 -38c-14,11 -29,14 -34,8 -5,-6 2,-20 16,-30 13,-11 28,-14 33,-8 5,6 -2,20 -15,30z"/>
  <path class="fil2 str2" d="M3035 2150l0 77 0 4 0 11c0,13 3,25 7,36 28,0 56,-1 82,-4 24,-2 45,-5 65,-9 36,-6 67,-14 97,-23 52,10 103,19 171,24 46,3 100,3 148,-1 1,-7 2,-15 2,-22l0 -17 0 -73 0 -18 0 -120 0 -2 0 -67 0 0 0 -69c0,-17 -4,-33 -11,-47 -16,-31 -47,-53 -83,-56 -3,0 -6,0 -9,0l-357 0 -8 0c-42,0 -78,24 -94,60 -6,13 -10,27 -10,43l0 71 0 73 0 129 0 0zm128 75l0 -319c-1,-15 10,-27 23,-30 2,-1 3,-1 4,-1 7,-1 14,1 20,4l286 164 0 0 10 9c7,11 6,25 -9,34l-289 165c-14,7 -28,5 -36,-3 -6,-6 -9,-13 -9,-23z"/>
  <path class="fil1 str2" d="M3163 1906l0 319c0,10 3,17 9,23 8,8 22,10 36,3l289 -165c15,-9 16,-23 9,-34l-10 -9 0 0 -286 -164c-6,-3 -13,-5 -20,-4 -1,0 -3,1 -4,1 -13,3 -24,15 -23,30z"/>
  <path class="fil1 str1" d="M5199 1400l127 29c7,-14 16,-27 25,-39l-83 -94c8,25 11,51 -4,73 -14,21 -40,29 -65,31z"/>
  <path class="fil1 str1" d="M5293 1285l105 58c10,-8 20,-16 32,-22l-29 -81c-10,20 -27,36 -49,44 -21,8 -45,7 -65,-3l6 4z"/>
  <path class="fil1 str1" d="M5431 1248l41 51c17,-7 35,-12 53,-16l5 -57c-11,20 -31,33 -53,35 -20,1 -36,-2 -46,-13z"/>
  <path class="fil1 str1" d="M5547 1226l14 53c5,-1 8,-1 13,-1 5,0 11,0 17,0 4,0 8,1 12,1l15 -54c-11,13 -20,25 -35,25 -16,0 -26,-12 -36,-24z"/>
  <path class="fil1 str1" d="M5634 1228l4 55c19,4 37,10 54,17l3 -3 45 -55c-14,14 -33,22 -53,21 -23,-2 -43,-15 -53,-35z"/>
  <path class="fil1 str1" d="M5764 1241l-30 81c12,6 22,14 32,22l104 -57 7 -4c-21,10 -44,11 -66,3 -21,-8 -38,-24 -47,-45z"/>
  <path class="fil1 str1" d="M5895 1299l-83 93c10,12 18,25 26,39l125 -28c-25,-3 -49,-11 -64,-32 -14,-22 -12,-48 -4,-72z"/>
  <path class="fil1 str1" d="M5963 1403l-125 28 -13 3c18,3 31,13 37,25 7,16 3,31 -4,45l7 -4 124 -77c39,-27 29,-33 -26,-20z"/>
  <path class="fil1 str1" d="M5812 1392l83 -93 1 -1c25,-31 18,-36 -19,-15l-7 4 -104 57 -7 4c16,-1 29,4 38,13 10,11 10,25 8,39l7 -8z"/>
  <path class="fil1 str1" d="M5734 1322l30 -81 1 -4c9,-30 2,-30 -21,-1 -1,2 -3,4 -4,6l-45 55 -3 3 -8 9c11,-5 22,-5 30,-1 10,5 14,14 17,24l3 -10z"/>
  <path class="fil1 str1" d="M5638 1283l-4 -55 -1 -13c-3,-23 -8,-21 -14,6l-1 4 -15 54 -3 10c6,-7 13,-11 20,-10 8,0 14,5 19,11l-1 -7z"/>
  <path class="fil1 str1" d="M5561 1279l-14 -53 -2 -7c-7,-27 -12,-29 -14,-6l-1 13 -5 57 0 5c5,-6 10,-11 19,-11 7,-1 14,3 19,10l-2 -8z"/>
  <path class="fil1 str1" d="M5472 1299l-41 -51c-2,-2 -3,-3 -4,-5l-8 -9c-23,-29 -30,-29 -20,1l2 5 29 81 3 9c2,-10 7,-20 17,-25 8,-4 19,-3 29,2l-7 -8z"/>
  <path class="fil1 str1" d="M5398 1343l-105 -58 -6 -4 0 0c-38,-21 -44,-16 -19,15l83 94 7 8c-2,-14 -1,-28 9,-39 8,-9 22,-14 37,-13l-6 -3z"/>
  <path class="fil1 str1" d="M5326 1429l-127 -29c-55,-13 -63,-6 -24,21l124 77 6 4c-7,-14 -10,-29 -3,-45 6,-12 19,-22 36,-25l-12 -3z"/>
  <path class="fil1 str1" d="M5351 1390c-9,12 -18,25 -25,39l12 3c-17,3 -30,13 -36,25 -7,16 -4,31 3,45l-6 -4c-3,15 -5,30 -5,45 15,96 58,174 105,231l357 0c3,0 6,0 9,0 47,-57 90,-135 104,-231 0,-14 -2,-29 -4,-43l-7 4c7,-14 11,-29 4,-45 -6,-12 -19,-22 -37,-25l13 -3c-8,-14 -16,-27 -26,-39l-7 8c2,-14 2,-28 -8,-39 -9,-9 -22,-14 -38,-13l7 -4c-10,-8 -20,-16 -32,-22l-3 10c-3,-10 -7,-19 -17,-24 -8,-4 -19,-4 -30,1l8 -9c-17,-7 -35,-13 -54,-17l1 7c-5,-6 -11,-11 -19,-11 -7,-1 -14,3 -20,10l3 -10c-4,0 -8,-1 -12,-1 -6,0 -12,0 -17,0 -5,0 -8,0 -13,1l2 8c-5,-7 -12,-11 -19,-10 -9,0 -14,5 -19,11l0 -5c-18,4 -36,9 -53,16l7 8c-10,-5 -21,-6 -29,-2 -10,5 -15,15 -17,25l-3 -9c-12,6 -22,14 -32,22l6 3c-15,-1 -29,4 -37,13 -10,11 -11,25 -9,39l-7 -8zm298 185c50,-5 57,-50 101,-79 25,-8 46,-6 55,7 14,21 -11,66 -57,100 -45,34 -94,44 -108,22 -7,-11 -3,-30 9,-50zm-235 -78c43,28 51,74 101,78 11,20 16,40 9,51 -15,21 -63,11 -109,-23 -45,-33 -70,-78 -56,-100 8,-13 29,-14 55,-6z"/>
  <path class="fil1 str1" d="M5163 1699c-14,-5 -28,-8 -42,-9 -13,-1 -24,-1 -37,-1 -13,0 -26,0 -43,2 -16,2 -36,7 -50,9 -14,1 -22,0 -32,-3 -9,-2 -19,-5 -26,-8l8 -14c-20,8 -35,0 -45,-25 0,6 -2,23 0,34 3,10 7,16 10,22 4,5 8,11 17,18 8,6 22,12 40,18 18,6 41,11 61,16 20,5 36,10 49,14 14,4 24,8 33,13 10,4 20,10 28,23 9,12 16,30 26,51 11,21 25,45 46,60 22,15 52,22 81,29l0 -71c0,-16 4,-30 10,-43 0,-1 -1,-1 -3,-2 -3,-2 -1,-1 -3,-2 -2,-2 -5,-5 -9,-8 -4,-4 -9,-9 -14,-13 -4,-5 -7,-10 -11,-16 -3,-6 -7,-12 -11,-20 -3,-7 -6,-14 -8,-20 -3,-5 -5,-8 -9,-13 -3,-4 -8,-9 -13,-13 -5,-5 -10,-8 -19,-13 -9,-5 -21,-11 -34,-15zm-83 11c18,5 30,18 27,30 -3,11 -20,16 -38,11 -19,-5 -31,-18 -28,-29 3,-11 20,-17 39,-12zm-86 -1c11,3 19,11 17,18 -2,8 -12,12 -24,9 -11,-3 -19,-11 -17,-19 2,-7 13,-11 24,-8zm142 37c7,-14 29,-17 49,-6 21,10 32,29 25,43 -7,13 -29,16 -49,6 -21,-10 -32,-30 -25,-43zm63 69c14,-12 38,-7 52,10 15,18 15,42 1,53 -14,12 -37,7 -51,-10 -15,-18 -16,-42 -2,-53z"/>
  <path class="fil1 str1" d="M5018 1896c-13,-6 -29,-10 -47,-9 -19,2 -40,8 -56,15 -15,7 -23,14 -36,23 -12,10 -29,22 -43,32 -15,10 -29,18 -44,19 -15,1 -32,-5 -44,-8l-10 -3 8 -13c-17,4 -28,-1 -35,-15 0,-1 0,-2 -1,-3 0,0 0,0 -1,1 -2,2 -6,12 -6,20 0,7 4,14 10,21 6,8 14,17 26,25 11,8 25,15 40,18 14,4 29,4 41,3 12,-1 22,-3 33,-7 12,-4 25,-9 37,-13 12,-4 23,-6 33,-8 10,-2 18,-2 30,1 13,3 28,10 41,17 12,7 20,13 27,22 8,9 14,19 21,29 7,10 15,19 26,30 11,11 25,25 41,37 16,11 33,21 56,29 22,7 49,13 70,11 21,-1 36,-10 46,-16l6 -4 0 -129c-8,-7 -16,-13 -28,-18 -15,-6 -36,-5 -58,-5 -22,0 -47,-2 -63,-7 -16,-6 -23,-16 -31,-25 -8,-9 -16,-17 -25,-24 -8,-8 -18,-14 -28,-22 -11,-8 -22,-17 -36,-24zm-106 63c-2,-12 13,-25 33,-29 21,-3 39,4 42,16 2,13 -13,26 -34,29 -20,4 -39,-3 -41,-16zm-32 14c3,7 -6,16 -19,20 -13,4 -25,2 -27,-5 -3,-8 6,-17 19,-21 13,-4 25,-1 27,6zm133 -8c12,-15 36,-14 56,1 19,15 25,39 14,54 -12,14 -37,14 -56,-1 -19,-16 -26,-40 -14,-54zm104 87c9,-25 47,-33 86,-18 39,14 63,45 54,69 -9,24 -47,33 -86,18 -39,-14 -63,-45 -54,-69z"/>
  <path class="fil1 str1" d="M5238 2205c-20,-6 -51,-12 -81,-7 -26,4 -52,16 -85,23 21,10 48,32 96,44 35,9 80,13 126,13 -4,-11 -7,-23 -7,-36l0 -11 0 -4c-12,-8 -33,-17 -49,-22z"/>
  <path class="fil1 str1" d="M5014 2228c-31,-5 -64,-19 -90,-14 -32,7 -52,30 -66,42 42,-2 88,-8 120,-16 15,-3 26,-8 36,-12z"/>
  <path class="fil1 str1" d="M5859 2015l0 120c4,3 10,7 16,10 10,6 24,15 45,16 22,2 49,-4 72,-12 22,-7 40,-17 55,-29 16,-11 30,-25 42,-37 11,-11 19,-20 26,-30 7,-9 13,-20 20,-29 8,-9 16,-15 28,-22 13,-7 29,-14 41,-17 12,-3 20,-3 30,-1 10,2 21,4 33,8 13,4 26,9 37,13 12,4 22,6 34,7 12,1 27,1 41,-3 15,-3 29,-10 40,-18 12,-8 20,-17 26,-25 6,-8 10,-14 10,-22 0,-8 -4,-17 -6,-19 0,-1 -1,-1 -1,-1 -3,14 -12,19 -30,17l7 12c-4,1 -9,3 -15,5 -12,3 -29,9 -44,8 -15,-1 -29,-9 -44,-19 -15,-10 -31,-22 -44,-32 -12,-10 -21,-17 -36,-23 -15,-7 -37,-14 -56,-15 -18,-2 -34,2 -47,9 -14,6 -26,15 -36,23 -11,8 -20,15 -29,22 -9,8 -17,16 -25,25 -7,9 -15,19 -31,25 -16,5 -40,7 -63,7 -22,0 -43,-1 -58,5 -16,7 -24,10 -38,20l0 2zm437 -37c-13,-4 -21,-13 -19,-21 2,-7 15,-9 28,-5 12,4 21,13 19,20 -3,7 -15,10 -28,6zm-310 128c-38,14 -77,6 -86,-18 -9,-24 15,-56 54,-70 39,-14 78,-6 86,18 9,24 -15,56 -54,70zm144 -103c-19,15 -44,16 -55,1 -12,-14 -6,-38 14,-54 19,-15 44,-15 55,-1 12,15 6,39 -14,54zm74 -43c-20,-4 -35,-17 -33,-29 2,-13 20,-20 41,-16 20,3 35,16 33,29 -2,12 -20,19 -41,16z"/>
  <path class="fil1 str1" d="M5982 2198c-30,-5 -60,0 -81,7 -17,5 -31,14 -42,21l0 17c0,7 -1,15 -2,22 22,-2 43,-5 61,-10 53,-14 81,-39 103,-47 -14,-4 -26,-8 -39,-10z"/>
  <path class="fil1 str1" d="M5933 1919c22,-15 36,-39 46,-60 11,-21 18,-39 26,-52 9,-12 18,-18 28,-23 10,-4 20,-8 33,-12 13,-4 30,-9 50,-14 19,-5 43,-10 61,-16 18,-6 31,-12 40,-19 8,-6 12,-12 16,-18 4,-5 8,-11 10,-22 3,-10 4,-26 4,-31 -1,-3 -2,-3 -3,-3 -2,3 -4,6 -6,9 -10,12 -22,16 -36,13l11 14c-1,1 -3,2 -5,3 -7,4 -18,7 -27,9 -10,3 -18,4 -32,3 -14,-2 -34,-7 -51,-9 -16,-3 -30,-3 -42,-3 -13,0 -25,0 -38,2 -13,1 -28,4 -41,8 -13,5 -25,11 -34,16 -9,4 -15,8 -20,12 -5,5 -9,10 -12,14 -4,4 -6,8 -9,13 -2,5 -5,13 -9,20 -3,7 -7,14 -11,20 -3,6 -6,11 -11,15 -4,5 -9,10 -13,14 -4,3 -7,6 -9,7l-1 1c7,14 11,30 11,47l0 69c26,-6 55,-14 74,-27zm186 -190c-2,-8 6,-16 17,-19 12,-2 22,1 24,9 2,7 -6,15 -17,18 -11,3 -22,-1 -24,-8zm-58 23c-18,5 -35,0 -38,-11 -3,-11 9,-24 27,-29 19,-5 36,0 39,11 3,11 -9,24 -28,29zm-130 64c14,12 13,35 -2,53 -14,17 -37,22 -51,11 -14,-12 -14,-36 1,-53 14,-18 38,-23 52,-11zm38 -26c-20,10 -42,8 -49,-6 -7,-14 4,-33 25,-43 20,-10 42,-8 49,6 7,14 -4,33 -25,43z"/>
  <path class="fil1 str1" d="M5859 1946l0 -69c0,-17 -4,-33 -11,-47 -16,-31 -47,-53 -83,-56 -3,0 -6,0 -9,0l-357 0 -8 0c-42,0 -77,24 -94,60 -6,13 -10,27 -10,43l0 71 0 73 0 129 0 0 0 77 0 4 0 11c0,13 3,25 7,36 28,0 56,-1 82,-4 24,-2 45,-5 66,-9 35,-6 66,-14 96,-23 52,10 103,19 171,24 46,3 100,3 148,-1 1,-7 2,-15 2,-22l0 -17 0 -73 0 -18 0 -120 0 -2 0 -67 0 0zm-444 279l0 -319c-1,-15 10,-27 23,-30 2,-1 3,-1 5,-1 6,-1 13,1 20,4l285 164 0 0 10 9c7,11 6,25 -9,34l-289 165c-14,7 -27,5 -36,-3 -5,-6 -9,-13 -9,-23z"/>
  <path class="fil2 str1" d="M5748 2043l-285 -164c-7,-3 -14,-5 -20,-4 -2,0 -4,1 -5,1 -13,3 -24,15 -23,30l0 319c0,10 4,17 9,23 9,8 22,10 36,3l289 -165c15,-9 16,-23 9,-34l-10 -9 0 0z"/>
  <path class="fil2 str1" d="M5415 1603c46,34 94,44 109,23 7,-11 2,-31 -9,-51 -50,-4 -58,-50 -101,-78 -26,-8 -47,-7 -55,6 -14,22 11,67 56,100zm2 -88c13,11 20,25 15,31 -5,6 -20,3 -33,-8 -14,-11 -21,-24 -16,-30 5,-7 20,-3 34,7z"/>
  <path class="fil2 str1" d="M5649 1575c-12,20 -16,39 -9,50 14,22 63,12 108,-22 46,-34 71,-79 57,-100 -9,-13 -30,-15 -55,-7 -44,29 -51,74 -101,79zm116 -38c-14,11 -29,14 -34,8 -4,-6 2,-20 16,-30 13,-11 28,-14 33,-8 5,6 -2,20 -15,30z"/>
  <path class="fil1 str2" d="M5432 1546c5,-6 -2,-20 -15,-31 -14,-10 -29,-14 -34,-7 -5,6 2,19 16,30 13,11 28,14 33,8z"/>
  <path class="fil1 str2" d="M5747 1515c-14,10 -20,24 -16,30 5,6 20,3 34,-8 13,-10 20,-24 15,-30 -5,-6 -20,-3 -33,8z"/>
  <path class="fil2 str1" d="M3513 1537c13,-10 20,-24 15,-30 -5,-6 -20,-3 -33,8 -14,10 -21,24 -16,30 5,6 20,3 34,-8z"/>
  <path class="fil2 str1" d="M3180 1546c5,-6 -2,-20 -16,-31 -13,-10 -28,-14 -33,-7 -5,6 2,19 16,30 13,11 28,14 33,8z"/>
  <path class="fil2 str1" d="M5117 2052c-9,24 15,55 54,69 39,15 77,6 86,-18 9,-24 -15,-55 -54,-69 -39,-15 -77,-7 -86,18z"/>
  <path class="fil2 str1" d="M5027 2019c19,15 44,15 56,1 11,-15 5,-39 -14,-54 -20,-15 -44,-16 -56,-1 -12,14 -5,38 14,54z"/>
  <path class="fil2 str1" d="M4953 1975c21,-3 36,-16 34,-29 -3,-12 -21,-19 -42,-16 -20,4 -35,17 -33,29 2,13 21,20 41,16z"/>
  <path class="fil2 str1" d="M4861 1993c13,-4 22,-13 19,-20 -2,-7 -14,-10 -27,-6 -13,4 -22,13 -19,21 2,7 14,9 27,5z"/>
  <path class="fil2 str1" d="M5199 1815c-14,11 -13,35 2,53 14,17 37,22 51,10 14,-11 14,-35 -1,-53 -14,-17 -38,-22 -52,-10z"/>
  <path class="fil2 str1" d="M5161 1789c20,10 42,7 49,-6 7,-14 -4,-33 -25,-43 -20,-11 -42,-8 -49,6 -7,13 4,33 25,43z"/>
  <path class="fil2 str1" d="M5069 1751c18,5 35,0 38,-11 3,-12 -9,-25 -27,-30 -19,-5 -36,1 -39,12 -3,11 9,24 28,29z"/>
  <path class="fil2 str1" d="M5011 1727c2,-7 -6,-15 -17,-18 -11,-3 -22,1 -24,8 -2,8 6,16 17,19 12,3 22,-1 24,-9z"/>
  <path class="fil2 str1" d="M5954 2018c-39,14 -63,46 -54,70 9,24 48,32 86,18 39,-14 63,-46 54,-70 -8,-24 -47,-32 -86,-18z"/>
  <path class="fil2 str1" d="M6089 1950c-20,16 -26,40 -14,54 11,15 36,14 55,-1 20,-15 26,-39 14,-54 -11,-14 -36,-14 -55,1z"/>
  <path class="fil2 str1" d="M6171 1931c-2,12 13,25 33,29 21,3 39,-4 41,-16 2,-13 -13,-26 -33,-29 -21,-4 -39,3 -41,16z"/>
  <path class="fil2 str1" d="M6277 1957c-2,8 6,17 19,21 13,4 25,1 28,-6 2,-7 -7,-16 -19,-20 -13,-4 -26,-2 -28,5z"/>
  <path class="fil2 str1" d="M5929 1869c15,-18 16,-41 2,-53 -14,-12 -38,-7 -52,11 -15,17 -15,41 -1,53 14,11 37,6 51,-11z"/>
  <path class="fil2 str1" d="M5920 1784c7,14 29,16 49,6 21,-10 32,-29 25,-43 -7,-14 -29,-16 -49,-6 -21,10 -32,29 -25,43z"/>
  <path class="fil2 str1" d="M6023 1741c3,11 20,16 38,11 19,-5 31,-18 28,-29 -3,-11 -20,-16 -39,-11 -18,5 -30,18 -27,29z"/>
  <path class="fil2 str1" d="M6119 1729c2,7 13,11 24,8 11,-3 19,-11 17,-18 -2,-8 -12,-11 -24,-9 -11,3 -19,11 -17,19z"/>
  <path class="fil3 str3" d="M1416 7539c-1,-2 0,-2 0,0zm0 0c9,25 24,33 45,25l-9 14c8,4 18,7 27,9 9,2 18,4 32,2 14,-1 33,-6 50,-9 16,-2 30,-2 42,-2 13,0 25,0 38,1 13,2 28,5 41,9 14,4 26,10 34,15 9,5 15,9 20,13 5,4 9,10 13,14 3,4 5,7 8,13 3,5 5,13 9,20 3,7 7,14 11,20 3,5 7,10 11,15 4,5 9,10 13,13 4,4 7,6 9,8 3,2 1,1 3,2 3,1 3,2 4,2 16,-35 52,-60 93,-60l9 0c-47,-57 -91,-135 -105,-231 0,-15 1,-30 4,-45l-124 -77c-39,-26 -31,-33 24,-20 26,2 51,-10 66,-32 14,-22 16,-50 4,-73 -25,-30 -19,-35 18,-15l0 0c21,10 44,11 66,3 21,-7 38,-23 48,-44l-2 -5c-9,-30 -2,-30 21,-1l8 10 3 4c11,12 26,14 46,13 23,-2 43,-15 53,-35l1 -12c3,-23 8,-21 15,5l1 7c6,15 21,24 36,24 16,0 29,-10 35,-25l1 -4c7,-26 12,-28 14,-5l1 12c11,20 31,33 53,35 20,2 40,-6 53,-21l5 -6c23,-29 30,-29 20,1l-1 4c10,21 27,38 48,46 21,7 45,6 65,-4 38,-20 44,-15 19,15 -12,24 -11,51 4,73 14,22 39,34 65,32 55,-13 63,-6 24,20l-123 78c2,14 3,28 3,43 -14,95 -57,173 -103,231 36,3 66,25 82,55l1 0c3,-2 5,-4 9,-8 4,-4 10,-8 14,-13 4,-5 7,-10 11,-16 3,-5 7,-12 11,-19 3,-8 6,-15 9,-21 2,-5 5,-8 8,-12 3,-5 8,-10 13,-14 5,-5 10,-8 19,-13 9,-5 21,-11 34,-15 14,-5 29,-7 42,-9 13,-1 25,-1 37,-1 13,0 26,0 43,2 17,3 36,7 50,9 14,2 23,0 32,-2 10,-3 21,-6 28,-10 2,-1 3,-2 4,-2l-10 -14c13,3 25,-2 35,-14 1,-1 2,-2 3,-4 1,-2 3,-4 4,-4 1,-1 2,-1 2,2 1,6 -1,21 -3,32 -3,10 -6,16 -10,22 -4,6 -8,12 -17,18 -8,6 -21,12 -40,18 -18,6 -41,11 -61,16 -20,5 -36,10 -49,14 -13,4 -23,8 -33,13 -10,5 -20,11 -28,23 -8,12 -16,30 -26,51 -11,21 -25,45 -46,60 -19,14 -48,21 -74,27l0 1 0 66c14,-10 22,-12 37,-19 15,-7 36,-6 59,-6 22,0 47,-1 62,-7 16,-6 24,-16 32,-25 8,-9 16,-17 25,-24 8,-8 18,-14 28,-22 11,-8 23,-17 36,-24 14,-6 29,-10 48,-9 18,2 40,8 55,15 16,7 24,14 37,23 12,10 29,22 44,32 15,10 28,18 43,19 16,1 33,-4 45,-8 6,-2 11,-3 15,-4l-7 -12c17,2 27,-4 29,-18 1,0 1,0 2,1 2,3 5,12 5,20 0,8 -3,14 -9,22 -6,7 -15,16 -26,24 -12,8 -26,15 -40,19 -15,3 -29,3 -42,2 -12,-1 -22,-3 -33,-7 -12,-3 -25,-8 -37,-12 -12,-4 -23,-7 -33,-9 -10,-1 -18,-2 -31,1 -12,3 -28,10 -40,17 -12,7 -21,14 -28,22 -7,9 -13,20 -20,30 -8,10 -16,18 -27,30 -11,11 -25,25 -41,37 -16,11 -33,21 -56,29 -22,8 -50,13 -71,12 -21,-2 -36,-11 -46,-16 -5,-4 -11,-8 -15,-11l0 19 0 72c10,-7 25,-15 42,-21 20,-6 51,-12 81,-7 13,2 25,6 38,11 2,-1 3,-1 4,-2 21,-5 36,10 76,21 26,-7 55,-27 93,-17 47,12 52,25 67,36 5,0 9,-1 14,-1 47,-2 67,-12 91,-9 24,2 52,18 89,21 3,0 5,1 8,1l0 -1068c0,-160 -130,-290 -289,-290l-1200 0c-159,0 -289,130 -289,290l0 1066c13,-5 25,-9 36,-10 24,-3 44,8 91,10 14,0 30,0 47,-1 14,-12 34,-35 66,-41 26,-5 58,9 89,14 21,-8 33,-15 48,-11 4,1 7,2 11,4 33,-7 59,-19 85,-24 30,-4 60,1 81,8 16,5 36,14 49,21l0 -76 0 -1 -7 5c-9,6 -24,14 -45,16 -21,1 -48,-4 -71,-12 -22,-8 -40,-17 -55,-29 -16,-12 -30,-25 -41,-37 -12,-11 -20,-20 -27,-29 -7,-10 -13,-21 -20,-30 -7,-8 -16,-15 -28,-22 -12,-7 -28,-13 -40,-17 -12,-3 -21,-2 -30,-1 -10,2 -21,5 -34,9 -12,4 -25,9 -36,12 -12,4 -21,6 -34,7 -12,1 -26,1 -41,-2 -14,-4 -28,-11 -40,-19 -11,-8 -19,-17 -25,-24 -6,-8 -10,-14 -10,-22 0,-8 4,-17 6,-20 0,0 0,-1 1,0 0,0 1,1 1,2 7,15 18,20 34,16l-7 12 9 3c12,4 29,9 44,8 16,-1 29,-8 44,-18 15,-10 31,-23 44,-32 12,-10 21,-17 36,-23 15,-7 37,-14 55,-15 19,-1 34,2 48,9 13,6 25,15 35,23 11,8 20,15 29,22 9,7 17,15 25,24 7,9 15,19 31,25 16,6 40,7 63,7 22,1 42,-1 58,6 11,5 20,10 28,17l0 -72c-30,-7 -60,-14 -81,-30 -22,-15 -36,-38 -46,-59 -11,-21 -18,-40 -26,-52 -9,-12 -18,-18 -28,-23 -10,-5 -20,-8 -33,-13 -13,-4 -30,-9 -49,-14 -20,-5 -43,-10 -62,-16 -18,-5 -31,-12 -40,-18 -8,-6 -12,-12 -16,-18 -4,-6 -7,-11 -10,-22 -3,-10 0,-27 0,-34z"/>
  <path class="fil0 str4" d="M1581 8107c-15,-4 -27,3 -48,11 -9,4 -21,8 -35,12 -32,8 -79,13 -120,15 -17,1 -33,1 -47,1 -47,-2 -67,-13 -91,-10 -11,1 -23,5 -36,10l0 133c0,159 130,290 289,290l1200 0c159,0 289,-131 289,-290l0 -131c-3,0 -5,-1 -8,-1 -37,-3 -65,-19 -89,-21 -24,-3 -44,7 -91,9 -5,0 -9,1 -14,1 -47,0 -112,-6 -153,-17 -2,0 -5,-1 -7,-2 -40,-11 -55,-26 -76,-21 -1,1 -2,1 -4,2 -21,7 -49,33 -102,46 -18,5 -39,8 -62,10 -47,5 -101,4 -148,1 -68,-4 -119,-14 -170,-23 -31,8 -61,16 -97,23 -20,4 -42,7 -66,9 -25,2 -53,4 -82,4 -45,-1 -91,-4 -125,-13 -48,-12 -75,-34 -96,-44 -4,-2 -7,-3 -11,-4z"/>
  <path class="fil6 str6" d="M1718 7290l127 28c8,-13 16,-26 26,-38l-83 -95c12,23 10,51 -4,73 -15,22 -40,34 -66,32z"/>
  <path class="fil6 str6" d="M1813 7174l105 58c10,-8 20,-16 31,-22l-29 -81c-10,21 -27,37 -48,44 -22,8 -45,7 -66,-3l7 4z"/>
  <path class="fil6 str6" d="M1950 7137l42 51c17,-7 35,-12 53,-16l4 -57c-10,20 -30,33 -53,35 -20,1 -35,-1 -46,-13z"/>
  <path class="fil6 str6" d="M2066 7115l15 53c4,0 8,-1 12,-1 6,0 12,0 18,1 4,0 8,0 12,1l14 -55c-6,15 -19,25 -35,25 -15,0 -30,-9 -36,-24z"/>
  <path class="fil6 str6" d="M2153 7117l5 56c18,4 36,9 53,17l3 -4 45 -55c-13,15 -33,23 -53,21 -22,-2 -42,-15 -53,-35z"/>
  <path class="fil6 str6" d="M2283 7130l-29 81c11,7 22,14 32,23l104 -58 6 -4c-20,10 -44,11 -65,4 -21,-8 -38,-25 -48,-46z"/>
  <path class="fil6 str6" d="M2415 7187l-83 95c9,12 18,25 25,38l127 -28c-26,2 -51,-10 -65,-32 -15,-22 -16,-49 -4,-73z"/>
  <path class="fil7 str7" d="M2316 7250c-8,-9 -22,-14 -37,-12l7 -4c-10,-9 -21,-16 -32,-23l-4 11c-2,-10 -7,-20 -17,-25 -8,-4 -19,-4 -29,2l7 -9c-17,-8 -35,-13 -53,-17l0 7c-5,-6 -10,-12 -19,-12 -6,0 -14,3 -19,10l3 -9c-4,-1 -8,-1 -12,-1 -6,-1 -12,-1 -18,-1 -4,0 -8,1 -12,1l2 8c-6,-7 -13,-10 -20,-10 -8,0 -14,5 -18,12l0 -6c-18,4 -36,9 -53,16l7 8c-11,-5 -22,-5 -30,-1 -10,5 -14,14 -16,25l-4 -10c-11,6 -21,14 -31,22l6 4c-16,-2 -29,3 -38,12 -10,12 -10,26 -8,39l-7 -7c-10,12 -18,25 -26,38l13 3c-18,3 -31,13 -36,26 -8,15 -4,30 3,45l-7 -5c-3,15 -4,30 -4,45 14,96 58,174 105,231l357 0c3,0 6,0 9,1 46,-58 89,-136 103,-231 0,-15 -1,-29 -3,-43l-7 4c7,-14 10,-30 3,-45 -6,-13 -19,-23 -36,-26l12 -3c-7,-13 -16,-26 -25,-38l-7 7c2,-13 1,-27 -9,-39zm-148 214c51,-4 58,-50 101,-78 26,-9 47,-7 55,6 14,21 -11,66 -56,100 -46,34 -94,44 -109,23 -7,-11 -2,-31 9,-51zm-235 -78c44,29 51,74 101,79 12,20 16,39 9,50 -14,22 -63,12 -108,-22 -46,-34 -71,-79 -57,-100 9,-13 30,-15 55,-7z"/>
  <path class="fil7 str7" d="M1682 7588c-13,-4 -28,-7 -41,-9 -13,-1 -25,-1 -38,-1 -12,0 -26,0 -42,2 -17,3 -36,8 -50,9 -14,2 -23,0 -32,-2 -9,-2 -19,-5 -27,-9l9 -14c-21,8 -36,0 -45,-25 0,7 -3,24 0,34 3,11 6,16 10,22 4,6 8,12 16,18 9,6 22,13 40,18 19,6 42,11 62,16 19,5 36,10 49,14 13,5 23,8 33,13 10,5 19,11 28,23 8,12 15,31 26,52 10,21 24,44 46,59 21,16 51,23 81,30l0 -72c0,-15 3,-30 10,-43 -1,0 -1,-1 -4,-2 -2,-1 0,0 -3,-2 -2,-2 -5,-4 -9,-8 -4,-3 -9,-8 -13,-13 -4,-5 -8,-10 -11,-15 -4,-6 -8,-13 -11,-20 -4,-7 -6,-15 -9,-20 -3,-6 -5,-9 -8,-13 -4,-4 -8,-10 -13,-14 -5,-4 -11,-8 -20,-13 -8,-5 -20,-11 -34,-15zm-121 23c3,-11 20,-16 38,-11 18,5 31,18 28,29 -3,11 -21,16 -39,11 -18,-5 -30,-18 -27,-29zm-48 -13c12,3 19,11 17,19 -1,7 -12,11 -23,8 -11,-3 -19,-11 -17,-18 2,-8 12,-11 23,-9zm143 37c6,-13 29,-16 49,-6 20,10 32,30 25,43 -7,14 -29,17 -50,6 -20,-10 -31,-29 -24,-43zm63 69c14,-12 37,-7 52,11 14,17 15,41 1,53 -14,11 -37,7 -52,-11 -15,-18 -15,-41 -1,-53z"/>
  <path class="fil7 str7" d="M1658 7880c-16,-6 -24,-16 -31,-25 -8,-9 -16,-17 -25,-24 -9,-7 -18,-14 -29,-22 -10,-8 -22,-17 -35,-23 -14,-7 -29,-10 -48,-9 -18,1 -40,8 -55,15 -15,6 -24,13 -36,23 -13,9 -29,22 -44,32 -15,10 -28,17 -44,18 -15,1 -32,-4 -44,-8l-9 -3 7 -12c-16,4 -27,-1 -34,-16 -1,-1 -1,-2 -1,-2 -1,-1 -1,0 -1,0 -2,3 -6,12 -6,20 0,8 4,14 10,22 6,7 14,16 25,24 12,8 26,15 40,19 15,3 29,3 41,2 13,-1 22,-3 34,-7 11,-3 24,-8 36,-12 13,-4 24,-7 34,-9 9,-1 18,-2 30,1 12,4 28,10 40,17 12,7 21,14 28,22 7,9 13,20 20,30 7,9 15,18 27,29 11,12 25,25 41,37 15,12 33,21 55,29 23,8 50,13 71,12 21,-2 36,-10 45,-16l7 -5 0 -129c-8,-7 -17,-12 -28,-17 -16,-7 -36,-5 -58,-6 -23,0 -47,-1 -63,-7zm-70 -25c19,16 26,40 14,54 -11,15 -36,14 -56,-1 -19,-15 -25,-39 -13,-54 11,-14 36,-14 55,1zm-188 7c2,8 -6,17 -19,21 -13,4 -25,1 -28,-6 -2,-7 7,-16 19,-20 13,-5 26,-2 28,5zm106 -26c2,12 -13,25 -33,29 -21,3 -39,-4 -41,-16 -2,-13 12,-26 33,-29 21,-4 39,3 41,16zm130 105c9,-24 48,-32 87,-18 38,14 63,45 54,70 -9,24 -48,32 -87,18 -38,-15 -63,-46 -54,-70z"/>
  <path class="fil7 str7" d="M1758 8095c-21,-7 -51,-12 -81,-8 -26,5 -52,17 -85,24 21,10 48,32 96,44 34,9 80,12 125,13 -4,-12 -6,-24 -6,-36l0 -12 0 -4c-13,-7 -33,-16 -49,-21z"/>
  <path class="fil7 str7" d="M1533 8118c-31,-5 -63,-19 -89,-14 -32,6 -52,29 -66,41 41,-2 88,-7 120,-15 14,-4 26,-8 35,-12z"/>
  <path class="fil7 str7" d="M2379 8115l0 17c0,8 -1,15 -3,22 23,-2 44,-5 62,-10 53,-13 81,-39 102,-46 -13,-5 -25,-9 -38,-11 -30,-5 -61,1 -81,7 -17,6 -32,14 -42,21z"/>
  <path class="fil7 str7" d="M2713 8100c-38,-10 -67,10 -93,17 2,1 5,2 7,2 41,11 106,17 153,17 -15,-11 -20,-24 -67,-36z"/>
  <path class="fil7 str7" d="M2420 7977c-9,-24 15,-55 54,-69 38,-15 77,-7 86,18 9,24 -15,55 -54,69 -39,15 -78,6 -86,-18zm91 62c23,-8 40,-18 56,-29 16,-12 30,-26 41,-37 11,-12 19,-20 27,-30 7,-10 13,-21 20,-30 7,-8 16,-15 28,-22 12,-7 28,-14 40,-17 13,-3 21,-2 31,-1 10,2 21,5 33,9 12,4 25,9 37,12 11,4 21,6 33,7 13,1 27,1 42,-2 14,-4 28,-11 40,-19 11,-8 20,-17 26,-24 6,-8 9,-14 9,-22 0,-8 -3,-17 -5,-20 -1,-1 -1,-1 -2,-1 -2,14 -12,20 -29,18l7 12c-4,1 -9,2 -15,4 -12,4 -29,9 -45,8 -15,-1 -28,-9 -43,-19 -15,-10 -32,-22 -44,-32 -13,-9 -21,-16 -37,-23 -15,-7 -37,-13 -55,-15 -19,-1 -34,3 -48,9 -13,7 -25,16 -36,24 -10,8 -20,14 -28,22 -9,7 -17,15 -25,24 -8,9 -16,19 -32,25 -15,6 -40,7 -62,7 -23,0 -44,-1 -59,6 -15,7 -23,9 -37,19l0 3 0 119c4,3 10,7 15,11 10,5 25,14 46,16 21,1 49,-4 71,-12zm83 -145c-11,-15 -5,-39 14,-54 19,-15 44,-16 56,-1 11,14 5,38 -14,54 -19,15 -44,15 -56,1zm222 -27c-13,-4 -22,-13 -19,-20 2,-7 14,-10 27,-6 13,4 22,13 19,21 -2,7 -14,9 -27,5zm-92 -18c-21,-3 -36,-16 -34,-29 2,-12 21,-19 41,-16 21,4 36,17 34,29 -2,12 -21,20 -41,16z"/>
  <path class="fil7 str7" d="M2379 7835c26,-6 55,-13 74,-27 21,-15 35,-39 46,-60 10,-21 18,-39 26,-51 8,-12 18,-18 28,-23 10,-5 20,-9 33,-13 13,-4 29,-9 49,-14 20,-5 43,-10 61,-16 19,-6 32,-12 40,-18 9,-6 13,-12 17,-18 4,-6 7,-12 10,-22 2,-11 4,-26 3,-32 0,-3 -1,-3 -2,-2 -2,3 -4,6 -7,8 -10,12 -22,17 -35,14l10 14c-1,0 -2,1 -4,2 -7,4 -18,7 -28,10 -9,2 -18,4 -32,2 -14,-2 -33,-6 -50,-9 -17,-2 -30,-2 -43,-2 -12,0 -24,0 -37,1 -13,2 -28,4 -42,9 -13,4 -25,10 -34,15 -9,5 -14,8 -19,13 -5,4 -10,9 -13,14 -3,4 -6,7 -8,12 -3,6 -6,13 -9,21 -4,7 -8,14 -11,19 -4,6 -7,11 -11,16 -4,5 -10,9 -14,13 -4,4 -6,6 -9,8l-1 0c8,15 12,31 12,47l0 69zm260 -217c-2,-7 6,-15 17,-18 11,-3 22,1 23,8 2,8 -5,16 -17,19 -11,2 -22,-1 -23,-9zm-190 140c-15,18 -38,23 -52,11 -14,-12 -13,-35 1,-53 15,-17 38,-22 52,-11 14,12 14,36 -1,53zm132 -116c-18,5 -36,-1 -39,-12 -3,-11 10,-24 28,-29 18,-5 35,0 38,12 3,11 -9,24 -27,29zm-92 38c-21,10 -43,7 -50,-6 -6,-14 5,-33 25,-44 21,-10 43,-7 49,7 7,13 -4,32 -24,43z"/>
  <path class="fil8 str8" d="M1825 7392c-7,-15 -11,-30 -3,-45 5,-13 18,-23 36,-26l-13 -3 -127 -28c-55,-13 -63,-6 -24,20l124 77 7 5z"/>
  <path class="fil8 str8" d="M1788 7185l83 95 7 7c-2,-13 -2,-27 8,-39 9,-9 22,-14 38,-12l-6 -4 -105 -58 -7 -4 0 0c-37,-20 -43,-15 -18,15z"/>
  <path class="fil8 str8" d="M1920 7129l29 81 4 10c2,-11 6,-20 16,-25 8,-4 19,-4 30,1l-7 -8 -42 -51c-1,-1 -2,-3 -3,-4l-8 -10c-23,-29 -30,-29 -21,1l2 5z"/>
  <path class="fil8 str8" d="M2049 7115l-4 57 0 6c4,-7 10,-12 18,-12 7,0 14,3 20,10l-2 -8 -15 -53 -1 -7c-7,-26 -12,-28 -15,-5l-1 12z"/>
  <path class="fil8 str8" d="M2137 7114l-14 55 -3 9c5,-7 13,-10 19,-10 9,0 14,6 19,12l0 -7 -5 -56 -1 -12c-2,-23 -7,-21 -14,5l-1 4z"/>
  <path class="fil8 str8" d="M2259 7131l-45 55 -3 4 -7 9c10,-6 21,-6 29,-2 10,5 15,15 17,25l4 -11 29 -81 1 -4c10,-30 3,-30 -20,-1 -2,2 -3,4 -5,6z"/>
  <path class="fil8 str8" d="M2390 7176l-104 58 -7 4c15,-2 29,3 37,12 10,12 11,26 9,39l7 -7 83 -95c25,-30 19,-35 -19,-15l-6 4z"/>
  <path class="fil8 str8" d="M2484 7292l-127 28 -12 3c17,3 30,13 36,26 7,15 4,31 -3,45l7 -4 123 -78c39,-26 31,-33 -24,-20z"/>
  <path class="fil2 str9" d="M2034 7465c-50,-5 -57,-50 -101,-79 -25,-8 -46,-6 -55,7 -14,21 11,66 57,100 45,34 94,44 108,22 7,-11 3,-30 -9,-50zm-98 -60c14,10 20,24 16,30 -5,6 -20,3 -34,-8 -13,-10 -20,-24 -15,-30 5,-6 20,-3 33,8z"/>
  <path class="fil2 str9" d="M2168 7464c-11,20 -16,40 -9,51 15,21 63,11 109,-23 45,-34 70,-79 56,-100 -8,-13 -29,-15 -55,-6 -43,28 -50,74 -101,78zm116 -37c-13,10 -28,14 -33,8 -5,-7 2,-20 15,-31 14,-10 29,-14 34,-8 5,7 -2,20 -16,31z"/>
  <path class="fil1 str10" d="M1952 7435c4,-6 -2,-20 -16,-30 -13,-11 -28,-14 -33,-8 -5,6 2,20 15,30 14,11 29,14 34,8z"/>
  <path class="fil1 str10" d="M2266 7404c-13,11 -20,24 -15,31 5,6 20,2 33,-8 14,-11 21,-24 16,-31 -5,-6 -20,-2 -34,8z"/>
  <path class="fil5 str5" d="M2276 7663l-357 0 -9 0c-41,0 -77,25 -93,60 -7,13 -10,28 -10,43l0 72 0 72 0 129 0 1 0 76 0 4 0 12c0,12 2,24 6,36 29,0 57,-2 82,-4 24,-2 46,-5 66,-9l-18 -18c-5,-5 -8,-13 -8,-23l0 -318c-1,-16 9,-28 23,-31 1,0 3,0 4,-1 7,0 14,1 20,5l286 163 0 0 9 10 102 101 0 -19 0 -119 0 -3 0 -66 0 -1 0 -69c0,-16 -4,-32 -12,-47 -16,-30 -46,-52 -82,-55 -3,-1 -6,-1 -9,-1z"/>
  <path class="fil9 str11" d="M2269 7975l-289 166c-14,7 -28,5 -37,-4l18 18c36,-7 66,-15 97,-23 51,9 102,19 170,23 47,3 101,4 148,-1 2,-7 3,-14 3,-22l0 -17 0 -72 -102 -101c8,11 6,25 -8,33z"/>
  <path class="fil10 str12" d="M1777 7993c9,-25 -16,-56 -54,-70 -39,-14 -78,-6 -87,18 -9,24 16,55 54,70 39,14 78,6 87,-18z"/>
  <path class="fil10 str12" d="M1602 7909c12,-14 5,-38 -14,-54 -19,-15 -44,-15 -55,-1 -12,15 -6,39 13,54 20,15 45,16 56,1z"/>
  <path class="fil10 str12" d="M1473 7865c20,-4 35,-17 33,-29 -2,-13 -20,-20 -41,-16 -21,3 -35,16 -33,29 2,12 20,19 41,16z"/>
  <path class="fil10 str12" d="M1381 7883c13,-4 21,-13 19,-21 -2,-7 -15,-10 -28,-5 -12,4 -21,13 -19,20 3,7 15,10 28,6z"/>
  <path class="fil10 str12" d="M2474 7908c-39,14 -63,45 -54,69 8,24 47,33 86,18 39,-14 63,-45 54,-69 -9,-25 -48,-33 -86,-18z"/>
  <path class="fil10 str12" d="M2608 7840c-19,15 -25,39 -14,54 12,14 37,14 56,-1 19,-16 25,-40 14,-54 -12,-15 -37,-14 -56,1z"/>
  <path class="fil10 str12" d="M2690 7820c-2,13 13,26 34,29 20,4 39,-4 41,-16 2,-12 -13,-25 -34,-29 -20,-3 -39,4 -41,16z"/>
  <path class="fil10 str12" d="M2797 7847c-3,7 6,16 19,20 13,4 25,2 27,-5 3,-8 -6,-17 -19,-21 -13,-4 -25,-1 -27,6z"/>
  <path class="fil10 str12" d="M2449 7758c15,-17 15,-41 1,-53 -14,-11 -37,-6 -52,11 -14,18 -15,41 -1,53 14,12 37,7 52,-11z"/>
  <path class="fil10 str12" d="M2439 7674c7,13 29,16 50,6 20,-11 31,-30 24,-43 -6,-14 -28,-17 -49,-7 -20,11 -31,30 -25,44z"/>
  <path class="fil10 str12" d="M2542 7630c3,11 21,17 39,12 18,-5 30,-18 27,-29 -3,-12 -20,-17 -38,-12 -18,5 -31,18 -28,29z"/>
  <path class="fil10 str12" d="M2656 7600c-11,3 -19,11 -17,18 1,8 12,11 23,9 12,-3 19,-11 17,-19 -1,-7 -12,-11 -23,-8z"/>
  <path class="fil10 str12" d="M1772 7768c14,-12 13,-36 -1,-53 -15,-18 -38,-23 -52,-11 -14,12 -14,35 1,53 15,18 38,22 52,11z"/>
  <path class="fil10 str12" d="M1680 7678c21,11 43,8 50,-6 7,-13 -5,-33 -25,-43 -20,-10 -43,-7 -49,6 -7,14 4,33 24,43z"/>
  <path class="fil10 str12" d="M1588 7640c18,5 36,0 39,-11 3,-11 -10,-24 -28,-29 -18,-5 -35,0 -38,11 -3,11 9,24 27,29z"/>
  <path class="fil10 str12" d="M1530 7617c2,-8 -5,-16 -17,-19 -11,-2 -21,1 -23,9 -2,7 6,15 17,18 11,3 22,-1 23,-8z"/>
  <path class="fil1 str10" d="M1935 7796l0 318c0,10 3,18 8,23 9,9 23,11 37,4l289 -166c14,-8 16,-22 8,-33l-9 -10 0 0 -286 -163c-6,-4 -13,-5 -20,-5 -2,1 -3,1 -4,1 -14,3 -24,15 -23,31z"/>
  <path class="fil4" d="M3815 7281l-56 0 -149 440 -150 -440 -56 0 -80 501 48 0 66 -435 149 435 45 0 150 -435 65 435 49 0 -81 -501zm329 467c-82,0 -142,-57 -145,-154l176 0c101,0 110,-43 110,-81 0,-82 -74,-128 -145,-128 -102,0 -185,79 -185,205 0,114 76,199 185,199 59,0 105,-14 143,-44l-30 -32c-30,23 -62,35 -109,35zm-7 -323c52,0 104,31 104,87 0,20 -4,42 -72,42l-169 0c9,-65 64,-129 137,-129zm226 159c0,102 57,205 178,205 48,0 84,-14 115,-45l13 38 32 0 0 -576 -44 0 0 218c-39,-28 -70,-39 -116,-39 -114,0 -178,100 -178,199zm45 0c0,-81 49,-158 133,-158 42,0 88,18 116,55l0 202c-30,47 -70,64 -115,64 -89,0 -134,-77 -134,-163zm407 198l43 0 0 -390 -43 0 0 390zm21 -532c-19,0 -34,15 -34,34 0,19 15,34 34,34 19,0 34,-15 34,-34 0,-19 -15,-34 -34,-34zm310 135c-109,0 -192,87 -192,202 0,118 75,202 169,202 49,0 89,-16 115,-41l12 34 31 0 0 -359c-36,-21 -77,-38 -135,-38zm91 309c-25,32 -65,54 -108,54 -85,0 -130,-79 -130,-161 0,-95 64,-161 151,-161 34,0 61,7 87,23l0 245zm470 -485c0,2 -6,10 -18,23 -5,6 -8,10 -8,13 0,4 4,5 11,5 9,0 14,2 17,5l0 1c0,4 -14,20 -42,50 -30,33 -60,66 -91,99 -31,33 -47,51 -48,53 0,3 38,43 115,121 76,78 114,118 114,122 -3,4 -8,6 -17,6 -8,0 -12,2 -12,6 0,3 3,7 9,13 13,16 20,25 20,27l0 2c-3,4 -20,6 -51,6l-48 0 -97 -101c-65,-67 -100,-101 -106,-101 -3,0 -6,7 -7,20 -2,14 -3,40 -4,79 -1,61 -4,94 -8,98 -1,2 -5,3 -10,4l-4 0c-6,0 -11,-1 -14,-3 -5,-2 -9,-4 -10,-6 -1,0 -1,-1 -2,-1 -2,0 -5,2 -9,4 -4,4 -10,6 -17,6l-6 0 -16 -3 -2 -268 0 -118c0,-102 1,-155 2,-159 2,-4 9,-7 20,-8l2 0c9,0 16,3 19,7 2,2 4,3 5,3 1,0 2,0 3,-1 1,-1 5,-3 11,-6 5,-2 10,-3 15,-3l4 0c7,2 12,6 14,13 1,7 2,29 3,65 1,51 4,76 7,76 3,0 30,-25 82,-77l77 -78 49 0c32,0 48,2 48,6zm185 162c9,-3 25,-5 47,-5 7,0 14,1 23,1l50 1 1 46 0 12c0,17 -1,27 -3,30 -3,5 -15,9 -36,12 -17,4 -32,11 -46,22 -19,16 -31,33 -36,51 -5,18 -9,57 -11,115l-3 108 -101 0 0 -131c0,-65 1,-105 3,-119 1,-14 7,-31 16,-51 10,-20 24,-39 43,-57 19,-18 36,-29 53,-35zm157 90c9,-17 19,-32 30,-45 11,-12 21,-22 32,-29 11,-7 22,-13 34,-18 11,-4 22,-7 33,-8 11,-1 22,-2 33,-3 6,0 11,-1 16,-1 5,0 10,1 15,1 55,1 97,9 126,23 29,14 52,39 70,75 9,20 15,38 16,52 2,14 3,54 3,118l0 131 -61 2c-28,2 -56,3 -84,4 -29,1 -49,2 -61,2 -9,2 -19,2 -30,2 -3,0 -7,0 -10,-1l-26 0c-1,1 -1,1 -2,1 -4,0 -9,-1 -16,-3 -8,-2 -13,-3 -16,-5 -3,-1 -8,-4 -17,-9 -20,-10 -36,-22 -49,-34 -13,-12 -25,-30 -36,-52 -7,-12 -11,-24 -12,-36 -2,-12 -3,-34 -3,-66 0,-31 1,-53 3,-65 1,-12 5,-24 12,-36zm225 7c-13,-6 -24,-9 -33,-9l-2 0c-9,1 -22,6 -39,14 -19,9 -34,22 -46,40 -13,18 -19,36 -19,53 0,28 14,53 41,76 22,20 44,29 65,29 5,0 9,0 14,-1 16,-2 32,-11 49,-26 17,-15 29,-31 37,-49 6,-13 9,-22 9,-28 0,-5 -2,-14 -7,-26 -7,-16 -17,-30 -29,-44 -13,-13 -26,-23 -40,-29zm203 21l0 -121c0,-104 1,-158 2,-163 1,-4 11,-6 30,-6l15 0 42 1 2 124c1,83 3,128 6,134 0,2 1,2 2,2 6,0 24,-14 53,-44l51 -51 52 0c35,0 53,2 55,5l0 1c0,4 -6,13 -18,26 -5,7 -8,12 -8,15 0,4 3,6 9,6 8,0 14,2 17,5l0 1c0,6 -21,31 -64,73l-69 69 69 69c43,43 64,67 64,73l0 1c-3,4 -9,5 -17,5 -7,0 -11,2 -11,6 0,3 3,7 8,13 13,16 20,26 20,29 -2,4 -20,5 -55,5l-52 0 -50 -50c-33,-33 -52,-50 -55,-50 -3,0 -5,16 -5,47 0,26 -2,42 -7,49 -3,4 -6,5 -10,5 -5,0 -10,-2 -17,-6 -3,-2 -5,-4 -8,-4 -3,0 -6,1 -9,3 -6,4 -12,5 -18,5l-6 0 -16 -2 -2 -275zm447 -112c18,-8 50,-12 96,-12 40,0 70,4 91,11 21,8 43,22 64,43 21,22 35,41 41,59 7,18 10,45 10,81l0 64 -137 2c-91,1 -139,3 -143,7 -1,1 -1,2 -1,3 0,3 3,6 8,10 7,7 16,14 27,20 11,6 21,10 30,12 3,1 7,1 10,1 7,0 13,-1 18,-4 9,-3 15,-6 18,-10 1,0 2,-1 4,-1 3,0 8,2 13,4 4,4 8,5 12,5 2,0 4,0 7,-2 6,-2 11,-5 16,-8 1,0 2,-1 3,-1 5,0 12,4 20,11 7,7 10,12 11,14 0,4 -3,8 -9,14 -6,7 -9,11 -9,13 0,3 3,7 8,13 5,6 8,11 8,15 0,2 0,4 -1,5 -3,6 -13,13 -30,21 -11,6 -22,9 -34,11 -12,2 -31,3 -58,3 -29,0 -50,-1 -61,-3 -11,-2 -25,-7 -40,-15 -72,-36 -108,-98 -108,-186 0,-6 0,-13 1,-21 5,-86 43,-146 115,-179zm127 103c-9,-4 -17,-7 -26,-7l-3 0c-9,1 -22,5 -38,13 -27,14 -41,25 -41,34 0,2 1,4 2,6 3,4 28,6 77,6 3,1 7,1 10,1 41,0 63,-2 66,-6l0 -2c0,-4 -5,-10 -14,-20 -11,-11 -22,-19 -33,-25zm306 -94c13,-6 26,-11 39,-13 7,0 17,-1 31,-1 11,0 25,1 41,1 39,1 64,2 74,4 11,2 23,8 37,18 19,14 36,31 51,49 18,24 29,50 35,76 4,24 6,63 6,118l0 23 -2 116 -94 0 -3 -108c-2,-51 -4,-83 -6,-96 -2,-12 -8,-25 -16,-39 -12,-16 -27,-30 -47,-41 -17,-8 -31,-13 -44,-13 -3,0 -6,1 -9,1 -28,6 -54,24 -78,56 -9,12 -15,24 -17,36 -2,12 -4,44 -5,96l-3 108 -101 0 0 -131c0,-59 1,-97 2,-114 2,-17 6,-33 12,-47 9,-19 23,-38 40,-56 18,-18 37,-33 57,-43z"/>
  <path class="fil0 str4" d="M5528 7458c1,-2 17,-20 48,-53 31,-33 61,-66 91,-99 28,-30 42,-46 42,-50l0 -1c-3,-3 -8,-5 -17,-5 -7,0 -11,-1 -11,-5 0,-3 3,-7 8,-13 12,-13 18,-21 18,-23 0,-4 -16,-6 -48,-6l-49 0 -77 78c-52,52 -79,77 -82,77 -3,0 -6,-25 -7,-76 -1,-36 -2,-58 -3,-65 -2,-7 -7,-11 -14,-13l-4 0c-5,0 -10,1 -15,3 -6,3 -10,5 -11,6 -1,1 -2,1 -3,1 -1,0 -3,-1 -5,-3 -3,-4 -10,-7 -19,-7l-2 0c-11,1 -18,4 -20,8 -1,4 -2,57 -2,159l0 118 2 268 16 3 6 0c7,0 13,-2 17,-6 4,-2 7,-4 9,-4 1,0 1,1 2,1 1,2 5,4 10,6 3,2 8,3 14,3l4 0c5,-1 9,-2 10,-4 4,-4 7,-37 8,-98 1,-39 2,-65 4,-79 1,-13 4,-20 7,-20 6,0 41,34 106,101l97 101 48 0c31,0 48,-2 51,-6l0 -2c0,-2 -7,-11 -20,-27 -6,-6 -9,-10 -9,-13 0,-4 4,-6 12,-6 9,0 14,-2 17,-6 0,-4 -38,-44 -114,-122 -77,-78 -115,-118 -115,-121z"/>
  <path class="fil0 str4" d="M5796 7463c-9,20 -15,37 -16,51 -2,14 -3,54 -3,119l0 131 101 0 3 -108c2,-58 6,-97 11,-115 5,-18 17,-35 36,-51 14,-11 29,-18 46,-22 21,-3 33,-7 36,-12 2,-3 3,-13 3,-30l0 -12 -1 -46 -50 -1c-9,0 -16,-1 -23,-1 -22,0 -38,2 -47,5 -17,6 -34,17 -53,35 -19,18 -33,37 -43,57z"/>
  <path class="fil0 str4" d="M6079 7416c-11,13 -21,28 -30,45 -7,12 -11,24 -12,36 -2,12 -3,34 -3,65 0,32 1,54 3,66 1,12 5,24 12,36 11,22 23,40 36,52 13,12 29,24 49,34 9,5 14,8 17,9 3,2 8,3 16,5 7,2 12,3 16,3 1,0 1,0 2,-1l26 0c3,1 7,1 10,1 11,0 21,0 30,-2 12,0 32,-1 61,-2 28,-1 56,-2 84,-4l61 -2 0 -131c0,-64 -1,-104 -3,-118 -1,-14 -7,-32 -16,-52 -18,-36 -41,-61 -70,-75 -29,-14 -71,-22 -126,-23 -5,0 -10,-1 -15,-1 -5,0 -10,1 -16,1 -11,1 -22,2 -33,3 -11,1 -22,4 -33,8 -12,5 -23,11 -34,18 -11,7 -21,17 -32,29zm162 43c9,0 20,3 33,9 14,6 27,16 40,29 12,14 22,28 29,44 5,12 7,21 7,26 0,6 -3,15 -9,28 -8,18 -20,34 -37,49 -17,15 -33,24 -49,26 -5,1 -9,1 -14,1 -21,0 -43,-9 -65,-29 -27,-23 -41,-48 -41,-76 0,-17 6,-35 19,-53 12,-18 27,-31 46,-40 17,-8 30,-13 39,-14l2 0z"/>
  <path class="fil0 str4" d="M6477 7368l0 121 2 275 16 2 6 0c6,0 12,-1 18,-5 3,-2 6,-3 9,-3 3,0 5,2 8,4 7,4 12,6 17,6 4,0 7,-1 10,-5 5,-7 7,-23 7,-49 0,-31 2,-47 5,-47 3,0 22,17 55,50l50 50 52 0c35,0 53,-1 55,-5 0,-3 -7,-13 -20,-29 -5,-6 -8,-10 -8,-13 0,-4 4,-6 11,-6 8,0 14,-1 17,-5l0 -1c0,-6 -21,-30 -64,-73l-69 -69 69 -69c43,-42 64,-67 64,-73l0 -1c-3,-3 -9,-5 -17,-5 -6,0 -9,-2 -9,-6 0,-3 3,-8 8,-15 12,-13 18,-22 18,-26l0 -1c-2,-3 -20,-5 -55,-5l-52 0 -51 51c-29,30 -47,44 -53,44 -1,0 -2,0 -2,-2 -3,-6 -5,-51 -6,-134l-2 -124 -42 -1 -15 0c-19,0 -29,2 -30,6 -1,5 -2,59 -2,163z"/>
  <path class="fil0 str4" d="M6924 7377c-72,33 -110,93 -115,179 -1,8 -1,15 -1,21 0,88 36,150 108,186 15,8 29,13 40,15 11,2 32,3 61,3 27,0 46,-1 58,-3 12,-2 23,-5 34,-11 17,-8 27,-15 30,-21 1,-1 1,-3 1,-5 0,-4 -3,-9 -8,-15 -5,-6 -8,-10 -8,-13 0,-2 3,-6 9,-13 6,-6 9,-10 9,-14 -1,-2 -4,-7 -11,-14 -8,-7 -15,-11 -20,-11 -1,0 -2,1 -3,1 -5,3 -10,6 -16,8 -3,2 -5,2 -7,2 -4,0 -8,-1 -12,-5 -5,-2 -10,-4 -13,-4 -2,0 -3,1 -4,1 -3,4 -9,7 -18,10 -5,3 -11,4 -18,4 -3,0 -7,0 -10,-1 -9,-2 -19,-6 -30,-12 -11,-6 -20,-13 -27,-20 -5,-4 -8,-7 -8,-10 0,-1 0,-2 1,-3 4,-4 52,-6 143,-7l137 -2 0 -64c0,-36 -3,-63 -10,-81 -6,-18 -20,-37 -41,-59 -21,-21 -43,-35 -64,-43 -21,-7 -51,-11 -91,-11 -46,0 -78,4 -96,12zm98 155c-49,0 -74,-2 -77,-6 -1,-2 -2,-4 -2,-6 0,-9 14,-20 41,-34 16,-8 29,-12 38,-13l3 0c9,0 17,3 26,7 11,6 22,14 33,25 9,10 14,16 14,20l0 2c-3,4 -25,6 -66,6 -3,0 -7,0 -10,-1z"/>
  <path class="fil0 str4" d="M7300 7429c-17,18 -31,37 -40,56 -6,14 -10,30 -12,47 -1,17 -2,55 -2,114l0 131 101 0 3 -108c1,-52 3,-84 5,-96 2,-12 8,-24 17,-36 24,-32 50,-50 78,-56 3,0 6,-1 9,-1 13,0 27,5 44,13 20,11 35,25 47,41 8,14 14,27 16,39 2,13 4,45 6,96l3 108 94 0 2 -116 0 -23c0,-55 -2,-94 -6,-118 -6,-26 -17,-52 -35,-76 -15,-18 -32,-35 -51,-49 -14,-10 -26,-16 -37,-18 -10,-2 -35,-3 -74,-4 -16,0 -30,-1 -41,-1 -14,0 -24,1 -31,1 -13,2 -26,7 -39,13 -20,10 -39,25 -57,43z"/>
  <polygon class="fil5 str5" points="3896,7782 3815,7281 3759,7281 3610,7721 3460,7281 3404,7281 3324,7782 3372,7782 3438,7347 3587,7782 3632,7782 3782,7347 3847,7782 "/>
  <path class="fil5 str5" d="M3955 7590c0,114 76,199 185,199 59,0 105,-14 143,-44l-30 -32c-30,23 -62,35 -109,35 -82,0 -142,-57 -145,-154l176 0c101,0 110,-43 110,-81 0,-82 -74,-128 -145,-128 -102,0 -185,79 -185,205zm214 -36l-169 0c9,-65 64,-129 137,-129 52,0 104,31 104,87 0,20 -4,42 -72,42z"/>
  <path class="fil5 str5" d="M4541 7385c-114,0 -178,100 -178,199 0,102 57,205 178,205 48,0 84,-14 115,-45l13 38 32 0 0 -576 -44 0 0 218c-39,-28 -70,-39 -116,-39zm0 41c42,0 88,18 116,55l0 202c-30,47 -70,64 -115,64 -89,0 -134,-77 -134,-163 0,-81 49,-158 133,-158z"/>
  <polygon class="fil5 str5" points="4815,7392 4815,7782 4858,7782 4858,7392 "/>
  <path class="fil5 str5" d="M4836 7318c19,0 34,-15 34,-34 0,-19 -15,-34 -34,-34 -19,0 -34,15 -34,34 0,19 15,34 34,34z"/>
  <path class="fil5 str5" d="M5146 7385c-109,0 -192,87 -192,202 0,118 75,202 169,202 49,0 89,-16 115,-41l12 34 31 0 0 -359c-36,-21 -77,-38 -135,-38zm4 41c34,0 61,7 87,23l0 245c-25,32 -65,54 -108,54 -85,0 -130,-79 -130,-161 0,-95 64,-161 151,-161z"/>
 </g>
</svg>
