<?xml version="1.0" encoding="UTF-8"?>
<!DOCTYPE svg PUBLIC "-//W3C//DTD SVG 1.1//EN" "http://www.w3.org/Graphics/SVG/1.1/DTD/svg11.dtd">
<!-- Creator: CorelDRAW X7 -->
<svg xmlns="http://www.w3.org/2000/svg" xml:space="preserve" width="86.6986mm" height="86.6986mm" version="1.1" style="shape-rendering:geometricPrecision; text-rendering:geometricPrecision; image-rendering:optimizeQuality; fill-rule:evenodd; clip-rule:evenodd"
viewBox="0 0 8670 8670"
 xmlns:xlink="http://www.w3.org/1999/xlink">
 <defs>
  <style type="text/css">
   <![CDATA[
    .str1 {stroke:#2C2D45;stroke-width:8.47}
    .str6 {stroke:#373435;stroke-width:8.47}
    .str0 {stroke:#414242;stroke-width:8.47}
    .str4 {stroke:#626567;stroke-width:8.47}
    .str8 {stroke:#882F30;stroke-width:8.47}
    .str5 {stroke:#AD9E7E;stroke-width:8.47}
    .str2 {stroke:#BA3538;stroke-width:8.47}
    .str3 {stroke:#F4E2BC;stroke-width:8.47}
    .str9 {stroke:#FBCEA8;stroke-width:8.47}
    .str7 {stroke:#FEFEFE;stroke-width:8.47}
    .str10 {stroke:#373435;stroke-width:7.62}
    .fil10 {fill:none}
    .fil2 {fill:#2C2D45}
    .fil1 {fill:#373435}
    .fil0 {fill:#414242}
    .fil5 {fill:#626567}
    .fil8 {fill:#882F30}
    .fil6 {fill:#AD9E7E}
    .fil3 {fill:#BA3538}
    .fil4 {fill:#F4E2BC}
    .fil9 {fill:#FBCEA8}
    .fil7 {fill:#FEFEFE}
   ]]>
  </style>
 </defs>
 <g id="Layer_x0020_1">
  <metadata id="CorelCorpID_0Corel-Layer"/>
  <path class="fil0 str0" d="M5215 2114c-1,-4 0,-5 0,0zm0 0c20,52 51,69 95,53l-18 29c16,7 36,13 55,18 20,5 38,8 67,5 30,-4 71,-14 106,-19 35,-5 63,-5 90,-5 26,0 51,0 78,3 28,3 59,9 87,18 28,9 54,22 72,32 19,10 30,18 41,27 10,9 20,20 27,29 7,9 12,16 17,27 6,11 12,27 19,42 7,15 16,30 23,42 8,12 14,22 23,32 9,10 20,20 28,28 9,8 15,13 20,16 5,4 0,2 5,4 5,3 7,4 8,4 34,-73 109,-125 196,-125l19 0c-99,-120 -191,-284 -221,-485 0,-33 3,-64 9,-94l-260 -163c-82,-56 -65,-70 50,-43 55,5 107,-21 138,-66 30,-46 33,-105 8,-153 -53,-65 -40,-75 39,-32l0 0c43,21 93,23 137,7 45,-16 82,-50 102,-93l-4 -11c-20,-63 -5,-63 43,-2l17 20 8 10c22,23 54,29 96,26 48,-3 90,-31 112,-73l2 -26c5,-48 15,-44 30,12l3 14c13,31 43,50 76,50 33,0 61,-21 73,-52l2 -8c14,-56 24,-60 30,-12l2 27c22,42 64,69 111,73 43,3 83,-14 112,-44l9 -12c49,-62 64,-61 44,1l-3 8c20,45 56,80 100,96 45,16 95,14 138,-6 79,-44 92,-33 39,31 -25,49 -22,107 8,153 30,46 83,71 138,67 115,-28 132,-13 50,43l-260 162c5,29 8,60 8,91 -29,200 -120,364 -218,485 76,7 141,53 174,117l2 -1c5,-4 11,-9 19,-17 9,-7 20,-17 28,-27 9,-10 16,-21 23,-33 8,-12 16,-26 24,-41 7,-15 13,-31 18,-43 6,-11 11,-18 18,-27 7,-8 16,-19 27,-29 10,-9 22,-16 40,-27 19,-10 44,-22 72,-31 28,-10 59,-16 87,-19 28,-3 52,-3 79,-3 26,0 55,0 90,6 35,5 76,15 105,18 30,3 47,0 67,-5 21,-5 43,-12 59,-20 3,-2 6,-3 9,-5l-22 -29c28,6 53,-4 75,-28 1,-3 3,-6 5,-9 3,-4 6,-9 8,-10 3,-1 4,0 5,5 2,12 -2,45 -7,67 -5,22 -13,34 -21,46 -8,12 -16,25 -34,38 -19,13 -46,27 -85,39 -38,12 -87,23 -128,33 -42,11 -76,21 -104,30 -28,9 -49,16 -69,26 -21,10 -41,23 -59,49 -17,25 -32,64 -55,108 -22,44 -51,94 -96,126 -41,28 -101,44 -156,57l0 1 0 140c29,-22 46,-27 79,-42 32,-14 75,-11 122,-11 48,0 99,-4 133,-16 33,-12 49,-33 66,-52 16,-19 33,-36 52,-51 18,-16 38,-30 60,-46 22,-17 47,-36 75,-49 29,-14 61,-22 100,-19 39,2 85,16 117,31 32,14 50,28 77,49 26,20 60,46 92,67 31,21 60,37 92,39 32,2 67,-9 93,-17 13,-4 23,-7 31,-9l-15 -25c37,4 58,-8 63,-37 1,0 1,0 3,2 4,5 11,25 11,41 0,17 -7,30 -20,46 -13,16 -30,36 -54,52 -24,17 -54,32 -84,39 -31,7 -62,7 -87,5 -26,-2 -46,-7 -70,-14 -25,-8 -53,-19 -78,-27 -26,-8 -49,-14 -70,-17 -21,-4 -38,-5 -64,2 -26,6 -59,21 -85,35 -26,14 -43,28 -59,47 -15,18 -28,41 -43,62 -14,20 -32,39 -55,62 -23,24 -53,53 -87,78 -33,25 -70,45 -117,61 -47,17 -105,29 -149,25 -45,-3 -76,-21 -96,-34 -12,-7 -25,-15 -33,-21l0 38 0 153c22,-15 52,-33 89,-44 43,-14 106,-25 169,-15 27,4 53,12 81,22 3,-1 6,-2 8,-3 44,-11 76,20 160,44 54,-14 116,-56 196,-36 97,25 110,53 139,75 11,0 21,-1 30,-1 100,-4 142,-26 192,-20 50,6 109,39 187,45 5,1 11,1 17,1l0 -2244c0,-335 -274,-609 -609,-609l-2520 0c-335,0 -609,274 -609,609l0 2240c28,-9 54,-18 77,-20 50,-6 92,16 192,20 28,1 62,1 98,-1 29,-25 70,-74 138,-88 55,-10 123,19 188,30 44,-17 69,-31 101,-23 7,2 15,5 22,9 70,-15 124,-41 179,-50 63,-10 127,2 170,15 34,11 77,30 103,47l0 -162 0 0 -14 9c-20,12 -51,30 -95,34 -44,3 -102,-9 -149,-25 -47,-16 -83,-37 -117,-61 -33,-25 -62,-54 -86,-78 -23,-23 -40,-41 -55,-62 -15,-20 -28,-43 -43,-62 -15,-18 -33,-32 -58,-46 -26,-14 -59,-29 -85,-35 -25,-7 -43,-6 -64,-2 -20,3 -43,9 -69,17 -26,8 -53,19 -77,27 -24,7 -45,12 -70,14 -26,2 -57,2 -87,-5 -30,-7 -60,-22 -84,-39 -23,-16 -41,-35 -54,-51 -12,-16 -20,-30 -20,-46 0,-17 8,-36 12,-41 1,-2 2,-2 2,-2 1,1 2,3 3,5 14,31 38,42 72,33l-15 27 20 6c25,7 60,19 92,16 32,-2 60,-18 92,-38 31,-21 65,-47 91,-67 26,-21 45,-35 77,-49 32,-14 77,-28 116,-31 39,-3 71,5 99,19 29,13 53,32 76,49 22,16 41,30 60,45 18,16 35,33 51,52 17,19 33,40 66,52 34,12 85,15 132,15 47,0 90,-2 122,11 24,11 43,22 59,37l0 -152c-62,-15 -125,-30 -170,-62 -45,-32 -74,-81 -97,-125 -22,-45 -37,-83 -55,-109 -17,-25 -38,-38 -58,-48 -21,-10 -42,-18 -70,-27 -27,-8 -62,-19 -103,-29 -42,-11 -91,-21 -129,-34 -38,-12 -66,-25 -84,-38 -18,-13 -26,-26 -34,-38 -8,-12 -16,-24 -21,-46 -6,-23 -1,-58 -1,-71z"/>
  <path class="fil1" d="M2293 5041l-73 0 -197 577 -196 -577 -74 0 -106 658 64 0 86 -573 197 573 59 0 196 -573 87 573 63 0 -106 -658zm432 613c-108,0 -186,-76 -190,-203l231 0c132,0 145,-56 145,-106 0,-108 -97,-168 -191,-168 -134,0 -243,104 -243,269 0,151 100,262 243,262 78,0 138,-19 188,-58l-39 -42c-40,30 -82,46 -144,46zm-9 -424c68,0 137,40 137,114 0,26 -5,55 -95,55l-222 0c12,-86 84,-169 180,-169zm297 209c0,134 76,269 234,269 63,0 111,-18 151,-60l18 51 41 0 0 -758 -57 0 0 287c-52,-37 -92,-51 -153,-51 -150,0 -234,131 -234,262zm60 0c0,-107 64,-208 174,-208 56,0 116,24 153,72l0 266c-40,61 -92,84 -151,84 -117,0 -176,-102 -176,-214zm534 260l58 0 0 -514 -58 0 0 514zm28 -700c-25,0 -45,20 -45,45 0,25 20,45 45,45 25,0 46,-20 46,-45 0,-25 -21,-45 -46,-45zm407 178c-143,0 -252,114 -252,265 0,155 99,266 223,266 63,0 117,-21 150,-54l16 45 42 0 0 -472c-48,-29 -101,-50 -179,-50zm121 405c-34,43 -86,72 -143,72 -111,0 -170,-104 -170,-212 0,-124 84,-211 198,-211 44,0 81,9 115,29l0 322zm617 -636c0,3 -7,13 -23,30 -7,7 -11,13 -11,17 0,5 5,7 15,7 11,0 19,2 22,6l0 2c0,4 -18,26 -55,65 -40,43 -80,87 -120,130 -41,43 -62,67 -63,70 0,4 51,57 151,159 100,102 150,155 150,161 -3,5 -11,8 -22,8 -11,0 -16,2 -16,7 0,4 4,10 12,17 17,21 26,32 26,36l0 3c-3,5 -26,7 -67,7l-63 0 -127 -132c-85,-89 -132,-133 -140,-133 -4,0 -7,9 -10,26 -2,18 -3,52 -4,104 -2,80 -5,123 -11,129 -2,2 -6,3 -13,5l-5 0c-8,0 -14,-1 -19,-4 -7,-3 -11,-6 -13,-8 -1,-1 -1,-1 -2,-1 -3,0 -7,2 -12,5 -5,6 -13,8 -23,8l-7 0 -21 -4 -3 -352 0 -155c0,-134 1,-204 3,-209 2,-6 11,-10 26,-11l2 0c13,0 21,3 25,10 3,2 5,3 7,3 2,0 3,0 4,-1 2,-2 7,-4 14,-8 7,-2 13,-4 20,-4l5 0c10,2 16,8 18,17 2,9 4,38 5,86 2,66 5,100 9,100 3,0 39,-34 108,-101l101 -103 64 0c42,0 63,3 63,8zm244 213c12,-5 33,-7 61,-7 9,0 19,1 31,2l65 1 2 60 0 16c0,22 -2,35 -4,40 -5,6 -20,11 -48,15 -21,5 -42,14 -60,29 -25,21 -41,44 -48,67 -7,24 -11,74 -14,151l-4 142 -133 0 0 -172c0,-86 2,-138 4,-157 2,-19 9,-41 21,-66 14,-27 32,-51 57,-75 25,-24 48,-39 70,-46zm206 118c12,-23 25,-42 39,-59 14,-17 29,-30 43,-39 14,-9 28,-17 44,-23 15,-6 30,-10 44,-11 14,-1 28,-2 43,-3 8,-1 15,-2 21,-2 7,0 14,1 20,2 72,1 128,10 165,29 38,19 69,52 92,100 13,26 20,48 22,67 2,19 3,71 3,156l0 172 -80 3c-37,2 -74,3 -111,4 -37,2 -64,3 -79,4 -13,2 -26,2 -40,2 -4,0 -9,0 -13,-1l-34 0c-1,1 -2,1 -3,1 -5,0 -12,-1 -21,-4 -10,-2 -17,-4 -21,-6 -3,-2 -11,-6 -22,-12 -27,-14 -48,-29 -65,-45 -16,-17 -32,-39 -47,-68 -9,-16 -14,-32 -16,-47 -3,-16 -4,-45 -4,-87 0,-41 1,-70 4,-86 2,-15 7,-31 16,-47zm296 9c-18,-8 -32,-11 -44,-11l-2 0c-12,0 -30,7 -51,18 -25,11 -45,29 -62,53 -16,23 -24,46 -24,69 0,36 18,69 54,100 29,25 57,38 85,38 7,0 13,0 19,-1 21,-4 42,-15 64,-35 22,-20 38,-41 49,-64 8,-17 12,-30 12,-37 0,-7 -3,-18 -9,-34 -10,-21 -23,-40 -39,-58 -16,-17 -34,-30 -52,-38zm267 28l0 -159c0,-137 1,-208 2,-214 2,-6 15,-8 40,-8l19 0 56 1 2 163c2,109 5,167 8,176 0,2 1,3 3,3 8,0 31,-19 69,-58l67 -67 69 0c45,0 70,2 72,7l0 1c0,5 -8,16 -24,34 -7,9 -10,15 -10,20 0,4 4,7 12,8 10,0 18,2 22,6l0 2c0,7 -28,39 -84,95l-91 91 91 91c56,56 84,88 84,96l0 1c-4,5 -12,7 -22,7 -10,0 -15,2 -15,8 0,3 4,9 11,17 17,21 26,33 26,38 -2,4 -27,6 -72,6l-69 0 -65 -65c-44,-44 -68,-66 -73,-66 -4,0 -6,21 -6,62 0,33 -3,54 -9,64 -4,5 -8,7 -13,7 -7,0 -14,-3 -23,-8 -3,-4 -7,-5 -10,-5 -5,0 -9,1 -12,3 -8,5 -16,7 -24,7l-8 0 -21 -3 -2 -361zm587 -147c24,-11 66,-16 126,-16 53,0 93,5 121,14 27,10 55,29 83,57 28,28 46,54 55,77 8,23 12,59 12,107l0 84 -180 3c-120,1 -183,4 -188,9 -1,1 -1,2 -1,4 0,3 3,8 10,13 9,9 21,17 36,26 15,8 28,13 39,16 5,1 9,1 13,1 9,0 17,-1 24,-5 11,-4 19,-9 24,-13 1,-1 2,-1 5,-1 4,0 10,1 17,5 5,4 11,7 16,7 2,0 6,-1 9,-3 8,-4 15,-7 21,-11 2,-1 3,-1 4,-1 7,0 16,5 26,15 9,8 14,14 15,18 0,4 -4,10 -12,18 -8,9 -12,15 -12,17 0,4 4,10 11,17 7,8 10,15 10,20 0,3 0,5 -1,7 -5,8 -18,17 -40,27 -14,7 -29,12 -44,15 -16,2 -41,4 -77,4 -38,0 -65,-2 -80,-4 -15,-3 -32,-9 -52,-20 -95,-47 -142,-129 -142,-244 0,-9 0,-18 1,-28 6,-114 57,-192 151,-235zm167 135c-11,-6 -23,-9 -34,-9l-4 0c-12,1 -29,6 -50,17 -36,18 -54,32 -54,45 0,2 1,5 3,8 3,5 37,7 101,7 4,1 9,2 13,2 55,0 83,-3 87,-8l0 -3c0,-5 -6,-14 -18,-26 -15,-15 -30,-26 -44,-33zm402 -123c18,-9 35,-15 52,-18 8,0 22,-1 40,-1 15,0 33,1 54,1 52,1 85,3 98,6 14,2 30,10 48,23 26,19 48,40 67,65 24,31 39,65 46,100 6,30 8,82 8,155l0 30 -2 153 -124 0 -4 -142c-3,-68 -5,-110 -8,-127 -2,-16 -9,-33 -21,-51 -15,-22 -35,-40 -62,-54 -22,-11 -41,-17 -58,-17 -4,0 -8,1 -11,1 -37,7 -71,32 -103,74 -12,16 -20,31 -22,47 -3,15 -5,57 -7,127l-4 142 -132 0 0 -173c0,-78 1,-128 3,-150 2,-23 7,-43 15,-61 12,-26 30,-50 53,-75 23,-24 48,-42 74,-55z"/>
  <path class="fil2 str1" d="M4545 5273c1,-3 22,-27 63,-70 40,-43 80,-87 120,-130 37,-39 55,-61 55,-65l0 -2c-3,-4 -11,-6 -22,-6 -10,0 -15,-2 -15,-7 0,-4 4,-10 11,-17 16,-17 23,-27 23,-30 0,-5 -21,-8 -63,-8l-64 0 -101 103c-69,67 -105,101 -108,101 -4,0 -7,-34 -9,-100 -1,-48 -3,-77 -5,-86 -2,-9 -8,-15 -18,-17l-5 0c-7,0 -13,2 -20,4 -7,4 -12,6 -14,8 -1,1 -2,1 -4,1 -2,0 -4,-1 -7,-3 -4,-7 -12,-10 -25,-10l-2 0c-15,1 -24,5 -26,11 -2,5 -3,75 -3,209l0 155 3 352 21 4 7 0c10,0 18,-2 23,-8 5,-3 9,-5 12,-5 1,0 1,0 2,1 2,2 6,5 13,8 5,3 11,4 19,4l5 0c7,-2 11,-3 13,-5 6,-6 9,-49 11,-129 1,-52 2,-86 4,-104 3,-17 6,-26 10,-26 8,0 55,44 140,133l127 132 63 0c41,0 64,-2 67,-7l0 -3c0,-4 -9,-15 -26,-36 -8,-7 -12,-13 -12,-17 0,-5 5,-7 16,-7 11,0 19,-3 22,-8 0,-6 -50,-59 -150,-161 -100,-102 -151,-155 -151,-159z"/>
  <path class="fil2 str1" d="M4897 5280c-12,25 -19,47 -21,66 -2,19 -4,71 -4,157l0 172 133 0 4 -142c3,-77 7,-127 14,-151 7,-23 23,-46 48,-67 18,-15 39,-24 60,-29 28,-4 43,-9 48,-15 2,-5 4,-18 4,-40l0 -16 -2 -60 -65 -1c-12,-1 -22,-2 -31,-2 -28,0 -49,2 -61,7 -22,7 -45,22 -70,46 -25,24 -43,48 -57,75z"/>
  <path class="fil2 str1" d="M5269 5218c-14,17 -27,36 -39,59 -9,16 -14,32 -16,47 -3,16 -4,45 -4,86 0,42 1,71 4,87 2,15 7,31 16,47 15,29 31,51 47,68 17,16 38,31 65,45 11,6 19,10 22,12 4,2 11,4 21,6 9,3 16,4 21,4 1,0 2,0 3,-1l34 0c4,1 9,1 13,1 14,0 27,0 40,-2 15,-1 42,-2 79,-4 37,-1 74,-2 111,-4l80 -3 0 -172c0,-85 -1,-137 -3,-156 -2,-19 -9,-41 -22,-67 -23,-48 -54,-81 -92,-100 -37,-19 -93,-28 -165,-29 -6,-1 -13,-2 -20,-2 -6,0 -13,1 -21,2 -15,1 -29,2 -43,3 -14,1 -29,5 -44,11 -16,6 -30,14 -44,23 -14,9 -29,22 -43,39zm213 57c12,0 26,3 44,11 18,8 36,21 52,38 16,18 29,37 39,58 6,16 9,27 9,34 0,7 -4,20 -12,37 -11,23 -27,44 -49,64 -22,20 -43,31 -64,35 -6,1 -12,1 -19,1 -28,0 -56,-13 -85,-38 -36,-31 -54,-64 -54,-100 0,-23 8,-46 24,-69 17,-24 37,-42 62,-53 21,-11 39,-18 51,-18l2 0z"/>
  <path class="fil2 str1" d="M5793 5155l0 159 2 361 21 3 8 0c8,0 16,-2 24,-7 3,-2 7,-3 12,-3 3,0 7,1 10,5 9,5 16,8 23,8 5,0 9,-2 13,-7 6,-10 9,-31 9,-64 0,-41 2,-62 6,-62 5,0 29,22 73,66l65 65 69 0c45,0 70,-2 72,-6 0,-5 -9,-17 -26,-38 -7,-8 -11,-14 -11,-17 0,-6 5,-8 15,-8 10,0 18,-2 22,-7l0 -1c0,-8 -28,-40 -84,-96l-91 -91 91 -91c56,-56 84,-88 84,-95l0 -2c-4,-4 -12,-6 -22,-6 -8,-1 -12,-4 -12,-8 0,-5 3,-11 10,-20 16,-18 24,-29 24,-34l0 -1c-2,-5 -27,-7 -72,-7l-69 0 -67 67c-38,39 -61,58 -69,58 -2,0 -3,-1 -3,-3 -3,-9 -6,-67 -8,-176l-2 -163 -56 -1 -19 0c-25,0 -38,2 -40,8 -1,6 -2,77 -2,214z"/>
  <path class="fil2 str1" d="M6380 5167c-94,43 -145,121 -151,235 -1,10 -1,19 -1,28 0,115 47,197 142,244 20,11 37,17 52,20 15,2 42,4 80,4 36,0 61,-2 77,-4 15,-3 30,-8 44,-15 22,-10 35,-19 40,-27 1,-2 1,-4 1,-7 0,-5 -3,-12 -10,-20 -7,-7 -11,-13 -11,-17 0,-2 4,-8 12,-17 8,-8 12,-14 12,-18 -1,-4 -6,-10 -15,-18 -10,-10 -19,-15 -26,-15 -1,0 -2,0 -4,1 -6,4 -13,7 -21,11 -3,2 -7,3 -9,3 -5,0 -11,-3 -16,-7 -7,-4 -13,-5 -17,-5 -3,0 -4,0 -5,1 -5,4 -13,9 -24,13 -7,4 -15,5 -24,5 -4,0 -8,0 -13,-1 -11,-3 -24,-8 -39,-16 -15,-9 -27,-17 -36,-26 -7,-5 -10,-10 -10,-13 0,-2 0,-3 1,-4 5,-5 68,-8 188,-9l180 -3 0 -84c0,-48 -4,-84 -12,-107 -9,-23 -27,-49 -55,-77 -28,-28 -56,-47 -83,-57 -28,-9 -68,-14 -121,-14 -60,0 -102,5 -126,16zm129 203c-64,0 -98,-2 -101,-7 -2,-3 -3,-6 -3,-8 0,-13 18,-27 54,-45 21,-11 38,-16 50,-17l4 0c11,0 23,3 34,9 14,7 29,18 44,33 12,12 18,21 18,26l0 3c-4,5 -32,8 -87,8 -4,0 -9,-1 -13,-2z"/>
  <path class="fil2 str1" d="M6875 5234c-23,25 -41,49 -53,75 -8,18 -13,38 -15,61 -2,22 -3,72 -3,150l0 173 132 0 4 -142c2,-70 4,-112 7,-127 2,-16 10,-31 22,-47 32,-42 66,-67 103,-74 3,0 7,-1 11,-1 17,0 36,6 58,17 27,14 47,32 62,54 12,18 19,35 21,51 3,17 5,59 8,127l4 142 124 0 2 -153 0 -30c0,-73 -2,-125 -8,-155 -7,-35 -22,-69 -46,-100 -19,-25 -41,-46 -67,-65 -18,-13 -34,-21 -48,-23 -13,-3 -46,-5 -98,-6 -21,0 -39,-1 -54,-1 -18,0 -32,1 -40,1 -17,3 -34,9 -52,18 -26,13 -51,31 -74,55z"/>
  <polygon class="fil3 str2" points="2399,5699 2293,5041 2220,5041 2023,5618 1827,5041 1753,5041 1647,5699 1711,5699 1797,5126 1994,5699 2053,5699 2249,5126 2336,5699 "/>
  <path class="fil3 str2" d="M2477 5446c0,151 100,262 243,262 78,0 138,-19 188,-58l-39 -42c-40,30 -82,46 -144,46 -108,0 -186,-76 -190,-203l231 0c132,0 145,-56 145,-106 0,-108 -97,-168 -191,-168 -134,0 -243,104 -243,269zm281 -47l-222 0c12,-86 84,-169 180,-169 68,0 137,40 137,114 0,26 -5,55 -95,55z"/>
  <path class="fil3 str2" d="M3247 5177c-150,0 -234,131 -234,262 0,134 76,269 234,269 63,0 111,-18 151,-60l18 51 41 0 0 -758 -57 0 0 287c-52,-37 -92,-51 -153,-51zm0 54c56,0 116,24 153,72l0 266c-40,61 -92,84 -151,84 -117,0 -176,-102 -176,-214 0,-107 64,-208 174,-208z"/>
  <polygon class="fil3 str2" points="3607,5185 3607,5699 3665,5699 3665,5185 "/>
  <path class="fil3 str2" d="M3635 5089c25,0 46,-20 46,-45 0,-25 -21,-45 -46,-45 -25,0 -45,20 -45,45 0,25 20,45 45,45z"/>
  <path class="fil3 str2" d="M4042 5177c-143,0 -252,114 -252,265 0,155 99,266 223,266 63,0 117,-21 150,-54l16 45 42 0 0 -472c-48,-29 -101,-50 -179,-50zm6 54c44,0 81,9 115,29l0 322c-34,43 -86,72 -143,72 -111,0 -170,-104 -170,-212 0,-124 84,-211 198,-211z"/>
  <path class="fil2 str1" d="M5563 3306c-32,-8 -57,6 -101,23 -20,9 -44,17 -74,25 -67,17 -165,29 -252,33 -36,2 -70,2 -98,1 -100,-4 -142,-26 -192,-20 -23,2 -49,11 -77,20l0 280c0,335 274,609 609,609l2520 0c335,0 609,-274 609,-609l0 -276c-6,0 -12,0 -17,-1 -78,-6 -137,-39 -187,-45 -50,-6 -92,16 -192,20 -9,0 -19,1 -30,1 -98,0 -234,-13 -320,-35 -5,-1 -10,-2 -15,-4 -84,-24 -116,-55 -160,-44 -2,1 -5,2 -8,3 -45,15 -103,70 -215,98 -38,10 -82,17 -130,21 -99,9 -213,8 -310,2 -143,-9 -250,-30 -358,-50 -65,18 -129,35 -204,49 -42,8 -88,14 -138,19 -54,5 -113,8 -172,8 -96,0 -191,-8 -265,-27 -100,-25 -157,-71 -201,-92 -7,-4 -15,-7 -22,-9z"/>
  <path class="fil4 str3" d="M5851 1589l267 60c15,-29 34,-56 54,-81l-175 -198c25,48 22,107 -8,153 -31,45 -83,71 -138,66z"/>
  <path class="fil4 str3" d="M6050 1346l220 122c21,-16 43,-33 66,-47l-61 -169c-20,43 -57,77 -102,93 -44,16 -94,14 -137,-7l14 8z"/>
  <path class="fil4 str3" d="M6339 1269l87 107c36,-15 73,-26 111,-33l10 -121c-22,42 -64,70 -112,73 -42,3 -74,-3 -96,-26z"/>
  <path class="fil4 str3" d="M6582 1222l30 111c10,-1 17,-1 27,-1 12,-1 24,0 37,1 8,0 16,1 25,1l30 -114c-12,31 -40,52 -73,52 -33,0 -63,-19 -76,-50z"/>
  <path class="fil4 str3" d="M6765 1227l9 116c39,9 77,20 113,36l6 -7 95 -116c-29,30 -69,47 -112,44 -47,-4 -89,-31 -111,-73z"/>
  <path class="fil4 str3" d="M7038 1253l-61 171c23,14 46,30 67,48l218 -122 14 -7c-43,20 -93,22 -138,6 -44,-16 -80,-51 -100,-96z"/>
  <path class="fil4 str3" d="M7315 1374l-175 198c21,25 39,53 54,82l267 -60c-55,4 -108,-21 -138,-67 -30,-46 -33,-104 -8,-153z"/>
  <path class="fil5 str4" d="M7107 1506c-17,-19 -45,-30 -78,-26l15 -8c-21,-18 -44,-34 -67,-48l-8 22c-5,-21 -14,-41 -36,-52 -17,-8 -39,-8 -61,4l15 -19c-36,-16 -74,-27 -113,-36l1 15c-10,-13 -22,-24 -39,-24 -15,-1 -30,6 -41,21l6 -21c-9,0 -17,-1 -25,-1 -13,-1 -25,-2 -37,-1 -10,0 -17,0 -27,1l5 17c-11,-14 -27,-21 -41,-21 -17,1 -30,12 -39,24l0 -10c-38,7 -75,18 -111,33l14 17c-22,-11 -44,-12 -61,-3 -22,10 -31,30 -36,52l-7 -21c-23,14 -45,31 -66,47l13 8c-33,-4 -61,7 -79,26 -21,24 -22,53 -18,82l-14 -16c-20,25 -39,52 -54,81l26 6c-36,7 -64,27 -76,53 -15,33 -8,65 7,95l-14 -8c-6,30 -9,61 -9,94 30,201 122,365 221,485l749 0c6,0 13,0 19,1 98,-121 189,-285 218,-485 0,-31 -3,-62 -8,-91l-14 9c14,-30 22,-62 7,-95 -13,-26 -40,-47 -77,-54l27 -5c-15,-29 -33,-57 -54,-82l-14 16c4,-28 3,-58 -19,-82zm-311 449c106,-9 122,-104 213,-165 53,-17 97,-13 115,14 30,45 -23,140 -119,211 -95,71 -197,92 -227,47 -15,-23 -6,-64 18,-107zm-494 -163c92,60 107,155 213,164 24,43 34,84 19,107 -30,45 -132,24 -228,-47 -95,-71 -148,-166 -118,-211 18,-27 61,-30 114,-13z"/>
  <path class="fil5 str4" d="M5775 2216c-28,-9 -59,-15 -87,-18 -27,-3 -52,-3 -78,-3 -27,0 -55,0 -90,5 -35,5 -76,15 -106,19 -29,3 -47,0 -67,-5 -19,-5 -39,-11 -55,-18l18 -29c-44,16 -75,-1 -95,-53 0,13 -5,48 1,71 5,22 13,34 21,46 8,12 16,25 34,38 18,13 46,26 84,38 38,13 87,23 129,34 41,10 76,21 103,29 28,9 49,17 70,27 20,10 41,23 58,48 18,26 33,64 55,109 23,44 52,93 97,125 45,32 108,47 170,62l0 -150c0,-33 8,-64 21,-92 -1,0 -3,-1 -8,-4 -5,-2 0,0 -5,-4 -5,-3 -11,-8 -20,-16 -8,-8 -19,-18 -28,-28 -9,-10 -15,-20 -23,-32 -7,-12 -16,-27 -23,-42 -7,-15 -13,-31 -19,-42 -5,-11 -10,-18 -17,-27 -7,-9 -17,-20 -27,-29 -11,-9 -22,-17 -41,-27 -18,-10 -44,-23 -72,-32zm-255 49c6,-24 42,-35 81,-24 38,10 64,37 58,61 -7,24 -43,34 -81,24 -39,-10 -65,-38 -58,-61zm-100 -27c24,6 40,23 36,38 -3,16 -26,24 -49,18 -24,-6 -40,-23 -36,-38 3,-16 26,-24 49,-18zm299 77c15,-29 61,-34 104,-13 43,22 66,62 52,91 -14,28 -61,34 -104,13 -43,-22 -66,-62 -52,-91zm133 145c30,-25 79,-15 109,22 31,37 32,87 3,112 -30,24 -78,14 -109,-23 -31,-37 -32,-87 -3,-111z"/>
  <path class="fil5 str4" d="M5724 2830c-33,-12 -49,-33 -66,-52 -16,-19 -33,-36 -51,-52 -19,-15 -38,-29 -60,-45 -23,-17 -47,-36 -76,-49 -28,-14 -60,-22 -99,-19 -39,3 -84,17 -116,31 -32,14 -51,28 -77,49 -26,20 -60,46 -91,67 -32,20 -60,36 -92,38 -32,3 -67,-9 -92,-16l-20 -6 15 -27c-34,9 -58,-2 -72,-33 -1,-1 -2,-3 -3,-5 0,0 -1,0 -2,2 -4,5 -12,24 -12,41 0,16 8,30 20,46 13,16 31,35 54,51 24,17 54,32 84,39 30,7 61,7 87,5 25,-2 46,-7 70,-14 24,-8 51,-19 77,-27 26,-8 49,-14 69,-17 21,-4 39,-5 64,2 26,6 59,21 85,35 25,14 43,28 58,46 15,19 28,42 43,62 15,21 32,39 55,62 24,24 53,53 86,78 34,24 70,45 117,61 47,16 105,28 149,25 44,-4 75,-22 95,-34l14 -9 0 -272c-16,-15 -35,-26 -59,-37 -32,-13 -75,-11 -122,-11 -47,0 -98,-3 -132,-15zm-146 -52c40,32 53,82 29,113 -24,31 -77,29 -117,-3 -41,-32 -54,-82 -29,-113 24,-30 76,-29 117,3zm-396 14c4,16 -14,35 -41,43 -27,9 -52,3 -57,-12 -5,-15 13,-34 40,-43 27,-8 53,-3 58,12zm223 -56c5,26 -27,54 -70,61 -43,8 -82,-8 -86,-34 -5,-26 27,-53 70,-60 43,-8 82,7 86,33zm274 222c19,-51 100,-68 181,-38 82,30 132,95 114,146 -19,51 -100,68 -182,38 -81,-30 -132,-95 -113,-146z"/>
  <path class="fil5 str4" d="M5934 3280c-43,-13 -107,-25 -170,-15 -55,9 -109,35 -179,50 44,21 101,67 201,92 74,19 169,27 265,27 -9,-24 -14,-49 -14,-75l0 -25 0 -7c-26,-17 -69,-36 -103,-47z"/>
  <path class="fil5 str4" d="M5462 3329c-65,-11 -133,-40 -188,-30 -68,14 -109,63 -138,88 87,-4 185,-16 252,-33 30,-8 54,-16 74,-25z"/>
  <path class="fil5 str4" d="M7239 3324l0 35c0,16 -2,32 -6,47 48,-4 92,-11 130,-21 112,-28 170,-83 215,-98 -28,-10 -54,-18 -81,-22 -63,-10 -126,1 -169,15 -37,11 -67,29 -89,44z"/>
  <path class="fil5 str4" d="M7942 3292c-80,-20 -142,22 -196,36 5,2 10,3 15,4 86,22 222,35 320,35 -29,-22 -42,-50 -139,-75z"/>
  <path class="fil5 str4" d="M7325 3034c-19,-51 32,-117 113,-147 82,-30 163,-13 182,38 19,51 -32,117 -114,147 -81,30 -163,13 -181,-38zm192 129c47,-16 84,-36 117,-61 34,-25 64,-54 87,-78 23,-23 41,-42 55,-62 15,-21 28,-44 43,-62 16,-19 33,-33 59,-47 26,-14 59,-29 85,-35 26,-7 43,-6 64,-2 21,3 44,9 70,17 25,8 53,19 78,27 24,7 44,12 70,14 25,2 56,2 87,-5 30,-7 60,-22 84,-39 24,-16 41,-36 54,-52 13,-16 20,-29 20,-46 0,-16 -7,-36 -11,-41 -2,-2 -2,-2 -3,-2 -5,29 -26,41 -63,37l15 25c-8,2 -18,5 -31,9 -26,8 -61,19 -93,17 -32,-2 -61,-18 -92,-39 -32,-21 -66,-47 -92,-67 -27,-21 -45,-35 -77,-49 -32,-15 -78,-29 -117,-31 -39,-3 -71,5 -100,19 -28,13 -53,32 -75,49 -22,16 -42,30 -60,46 -19,15 -36,32 -52,51 -17,19 -33,40 -66,52 -34,12 -85,16 -133,16 -47,0 -90,-3 -122,11 -33,15 -50,20 -79,42l0 4 0 252c8,6 21,14 33,21 20,13 51,31 96,34 44,4 102,-8 149,-25zm175 -304c-24,-31 -11,-82 29,-114 40,-32 93,-33 117,-2 24,30 11,81 -29,113 -41,32 -93,33 -117,3zm466 -56c-28,-8 -46,-28 -41,-43 5,-15 31,-21 58,-12 27,8 45,27 40,43 -5,15 -30,20 -57,12zm-194 -38c-44,-8 -75,-35 -70,-61 4,-26 43,-41 86,-34 43,8 75,35 70,61 -4,26 -43,41 -86,34z"/>
  <path class="fil5 str4" d="M7239 2736c55,-13 115,-29 156,-57 45,-32 74,-82 96,-126 23,-44 38,-83 55,-108 18,-26 38,-39 59,-49 20,-10 41,-17 69,-26 28,-9 62,-19 104,-30 41,-10 90,-21 128,-33 39,-12 66,-26 85,-39 18,-13 26,-26 34,-38 8,-12 16,-24 21,-46 5,-22 9,-55 7,-67 -1,-5 -2,-6 -5,-5 -4,7 -9,13 -13,19 -22,24 -47,34 -75,28l22 29c-3,2 -6,3 -9,5 -16,8 -38,15 -59,20 -20,5 -37,8 -67,5 -29,-3 -70,-13 -105,-18 -35,-6 -64,-6 -90,-6 -27,0 -51,0 -79,3 -28,3 -59,9 -87,19 -28,9 -53,21 -72,31 -18,11 -30,18 -40,27 -11,10 -20,21 -27,29 -7,9 -12,16 -18,27 -5,12 -11,28 -18,43 -8,15 -16,29 -24,41 -7,12 -14,23 -23,33 -8,10 -19,20 -28,27 -8,8 -14,13 -19,17l-2 1c15,30 24,63 24,99l0 145zm546 -457c-4,-15 12,-33 36,-38 24,-6 46,2 50,17 4,16 -12,33 -36,39 -24,6 -46,-2 -50,-18zm-398 295c-31,37 -80,47 -109,22 -30,-24 -29,-74 2,-111 31,-37 79,-47 109,-22 29,24 28,74 -2,111zm277 -245c-39,10 -75,-1 -81,-24 -6,-24 19,-51 58,-61 38,-11 74,0 81,24 6,23 -20,50 -58,61zm-194 80c-43,21 -89,15 -104,-13 -14,-29 9,-70 52,-91 43,-22 90,-16 104,13 14,29 -9,69 -52,91z"/>
  <path class="fil6 str5" d="M6075 1803c-15,-30 -22,-62 -7,-95 12,-26 40,-46 76,-53l-26 -6 -267 -60c-115,-27 -132,-13 -50,43l260 163 14 8z"/>
  <path class="fil6 str5" d="M5997 1370l175 198 14 16c-4,-29 -3,-58 18,-82 18,-19 46,-30 79,-26l-13 -8 -220 -122 -14 -8 0 0c-79,-43 -92,-33 -39,32z"/>
  <path class="fil6 str5" d="M6275 1252l61 169 7 21c5,-22 14,-42 36,-52 17,-9 39,-8 61,3l-14 -17 -87 -107c-3,-3 -6,-6 -8,-10l-17 -20c-48,-61 -63,-61 -43,2l4 11z"/>
  <path class="fil6 str5" d="M6547 1222l-10 121 0 10c9,-12 22,-23 39,-24 14,0 30,7 41,21l-5 -17 -30 -111 -3 -14c-15,-56 -25,-60 -30,-12l-2 26z"/>
  <path class="fil6 str5" d="M6731 1220l-30 114 -6 21c11,-15 26,-22 41,-21 17,0 29,11 39,24l-1 -15 -9 -116 -2 -27c-6,-48 -16,-44 -30,12l-2 8z"/>
  <path class="fil6 str5" d="M6988 1256l-95 116 -6 7 -15 19c22,-12 44,-12 61,-4 22,11 31,31 36,52l8 -22 61 -171 3 -8c20,-62 5,-63 -44,-1 -3,4 -6,8 -9,12z"/>
  <path class="fil6 str5" d="M7262 1350l-218 122 -15 8c33,-4 61,7 78,26 22,24 23,54 19,82l14 -16 175 -198c53,-64 40,-75 -39,-31l-14 7z"/>
  <path class="fil6 str5" d="M7461 1594l-267 60 -27 5c37,7 64,28 77,54 15,33 7,65 -7,95l14 -9 260 -162c82,-56 65,-71 -50,-43z"/>
  <path class="fil1 str6" d="M6515 1956c-106,-9 -121,-104 -213,-164 -53,-17 -96,-14 -114,13 -30,45 23,140 118,211 96,71 198,92 228,47 15,-23 5,-64 -19,-107zm-206 -125c28,22 43,51 32,64 -10,13 -41,6 -69,-17 -29,-22 -43,-50 -33,-63 10,-14 41,-6 70,16z"/>
  <path class="fil1 str6" d="M6796 1955c-24,43 -33,84 -18,107 30,45 132,24 227,-47 96,-71 149,-166 119,-211 -18,-27 -62,-31 -115,-14 -91,61 -107,156 -213,165zm244 -78c-28,22 -59,30 -70,17 -10,-13 5,-42 33,-64 28,-22 60,-30 70,-17 10,13 -5,42 -33,64z"/>
  <path class="fil7 str7" d="M6341 1895c11,-13 -4,-42 -32,-64 -29,-22 -60,-30 -70,-16 -10,13 4,41 33,63 28,23 59,30 69,17z"/>
  <path class="fil7 str7" d="M7003 1830c-28,22 -43,51 -33,64 11,13 42,5 70,-17 28,-22 43,-51 33,-64 -10,-13 -42,-5 -70,17z"/>
  <path class="fil3 str2" d="M7022 2374l-749 0 -19 0c-87,0 -162,52 -196,125 -13,28 -21,59 -21,92l0 150 0 152 0 272 0 0 0 162 0 7 0 25c0,26 5,51 14,75 59,0 118,-3 172,-8 50,-5 96,-11 138,-19l-37 -37c-11,-11 -18,-27 -18,-48l0 -670c-2,-32 20,-57 48,-64 3,0 6,-1 9,-1 14,-2 29,1 42,9l600 344 1 0 20 19 213 212 0 -38 0 -252 0 -4 0 -140 0 -1 0 -145c0,-36 -9,-69 -24,-99 -33,-64 -98,-110 -174,-117 -6,-1 -13,-1 -19,-1z"/>
  <path class="fil8 str8" d="M7008 3029l-607 348c-29,15 -59,11 -77,-7l37 37c75,-14 139,-31 204,-49 108,20 215,41 358,50 97,6 211,7 310,-2 4,-15 6,-31 6,-47l0 -35 0 -153 -213 -212c16,23 12,53 -18,70z"/>
  <path class="fil9 str9" d="M5974 3066c18,-51 -32,-116 -114,-146 -81,-30 -162,-13 -181,38 -19,51 32,116 113,146 82,30 163,13 182,-38z"/>
  <path class="fil9 str9" d="M5607 2891c24,-31 11,-81 -29,-113 -41,-32 -93,-33 -117,-3 -25,31 -12,81 29,113 40,32 93,34 117,3z"/>
  <path class="fil9 str9" d="M5335 2797c43,-7 75,-35 70,-61 -4,-26 -43,-41 -86,-33 -43,7 -75,34 -70,60 4,26 43,42 86,34z"/>
  <path class="fil9 str9" d="M5141 2835c27,-8 45,-27 41,-43 -5,-15 -31,-20 -58,-12 -27,9 -45,28 -40,43 5,15 30,21 57,12z"/>
  <path class="fil9 str9" d="M7438 2887c-81,30 -132,96 -113,147 18,51 100,68 181,38 82,-30 133,-96 114,-147 -19,-51 -100,-68 -182,-38z"/>
  <path class="fil9 str9" d="M7721 2745c-40,32 -53,83 -29,114 24,30 76,29 117,-3 40,-32 53,-83 29,-113 -24,-31 -77,-30 -117,2z"/>
  <path class="fil9 str9" d="M7894 2704c-5,26 26,53 70,61 43,7 82,-8 86,-34 5,-26 -27,-53 -70,-61 -43,-7 -82,8 -86,34z"/>
  <path class="fil9 str9" d="M8117 2760c-5,15 13,35 41,43 27,8 52,3 57,-12 5,-16 -13,-35 -40,-43 -27,-9 -53,-3 -58,12z"/>
  <path class="fil9 str9" d="M7387 2574c30,-37 31,-87 2,-111 -30,-25 -78,-15 -109,22 -31,37 -32,87 -2,111 29,25 78,15 109,-22z"/>
  <path class="fil9 str9" d="M7366 2396c15,28 61,34 104,13 43,-22 66,-62 52,-91 -14,-29 -61,-35 -104,-13 -43,21 -66,62 -52,91z"/>
  <path class="fil9 str9" d="M7583 2305c6,23 42,34 81,24 38,-11 64,-38 58,-61 -7,-24 -43,-35 -81,-24 -39,10 -64,37 -58,61z"/>
  <path class="fil9 str9" d="M7821 2241c-24,5 -40,23 -36,38 4,16 26,24 50,18 24,-6 40,-23 36,-39 -4,-15 -26,-23 -50,-17z"/>
  <path class="fil9 str9" d="M5964 2594c29,-25 28,-75 -3,-112 -30,-37 -79,-47 -109,-22 -29,24 -28,74 3,111 31,37 79,47 109,23z"/>
  <path class="fil9 str9" d="M5771 2406c43,21 90,15 104,-13 14,-29 -9,-69 -52,-91 -43,-21 -89,-16 -104,13 -14,29 9,69 52,91z"/>
  <path class="fil9 str9" d="M5578 2326c38,10 74,0 81,-24 6,-24 -20,-51 -58,-61 -39,-11 -75,0 -81,24 -7,23 19,51 58,61z"/>
  <path class="fil9 str9" d="M5456 2276c4,-15 -12,-32 -36,-38 -23,-6 -46,2 -49,18 -4,15 12,32 36,38 23,6 46,-2 49,-18z"/>
  <path class="fil7 str7" d="M6306 2652l0 670c0,21 7,37 18,48 18,18 48,22 77,7l607 -348c30,-17 34,-47 18,-70l-20 -19 -1 0 -600 -344c-13,-8 -28,-11 -42,-9 -3,0 -6,1 -9,1 -28,7 -50,32 -48,64z"/>
  <path class="fil10 str10" d="M1766 3161l-15 10c-21,13 -53,32 -98,35 -46,3 -105,-9 -154,-26 -48,-17 -86,-37 -120,-63 -34,-25 -65,-55 -89,-80 -24,-24 -42,-43 -57,-64 -16,-21 -29,-45 -44,-64 -16,-18 -34,-33 -60,-47 -27,-15 -61,-30 -88,-37 -26,-7 -44,-5 -66,-2 -21,4 -45,10 -71,18 -27,9 -55,20 -80,27 -25,8 -46,13 -72,15 -27,2 -59,2 -90,-5 -31,-8 -62,-23 -86,-40 -25,-17 -43,-37 -56,-53 -13,-17 -21,-31 -21,-47 0,-17 8,-38 12,-43 1,-2 2,-2 3,-2 1,1 2,3 2,6 15,31 40,43 75,33l-16 28 21 6c26,8 62,20 95,17 33,-2 62,-18 95,-40 32,-21 67,-48 94,-69 27,-20 46,-35 79,-50 33,-15 80,-29 120,-32 40,-3 73,6 103,20 29,14 54,33 77,50 23,17 43,31 62,47 19,16 37,34 54,53 17,20 33,41 67,54 35,12 88,15 136,16 49,0 93,-3 126,11 26,11 44,23 62,39l0 -158c-64,-15 -130,-31 -176,-63 -47,-33 -77,-85 -100,-130 -23,-46 -39,-86 -57,-112 -18,-26 -39,-39 -60,-50 -21,-10 -43,-18 -72,-27 -28,-9 -64,-20 -107,-31 -43,-10 -93,-22 -132,-34 -40,-13 -68,-27 -87,-40 -19,-14 -27,-27 -36,-39 -8,-13 -16,-25 -21,-48 -6,-23 -1,-60 -1,-73 20,54 53,72 98,54l-18 31c16,7 37,13 56,18 21,5 39,9 70,5 30,-3 73,-14 109,-19 36,-5 65,-5 92,-5 28,0 53,0 82,3 28,3 60,9 89,19 29,9 55,22 74,33 20,10 32,18 42,27 11,10 21,21 28,30 8,9 13,16 18,28 6,12 12,28 20,44 7,15 16,30 23,43 8,12 15,23 24,33 9,11 21,21 29,29 9,8 15,13 20,17 5,4 1,1 6,4 5,3 6,4 8,4m202 -129l20 0m-436 -810c54,-5 111,-22 142,-69 32,-47 25,-104 9,-158m40 -32c0,0 0,0 1,0 44,21 95,23 141,6 46,-16 84,-51 105,-95l-4 -12m45 -2l16 21 9 10c23,24 56,31 99,27 49,-3 93,-32 115,-75l2 -27m35 27c23,27 44,52 78,52 34,0 53,-25 76,-55m32 -19l3 26c22,44 66,72 115,76 43,3 85,-14 114,-45l10 -13m45 2l-3 8c21,46 58,82 104,99 46,17 97,14 142,-7m38 35c-16,52 -21,108 10,156 32,47 84,63 140,69m-251 927l2 -2c5,-4 11,-9 20,-17 8,-8 20,-18 29,-28 9,-11 16,-21 24,-34 7,-12 16,-27 24,-43 7,-15 13,-32 19,-44 5,-11 10,-18 18,-27 7,-9 17,-21 28,-30 10,-10 23,-18 42,-28 19,-10 45,-23 74,-33 29,-10 61,-16 90,-19 28,-3 53,-3 81,-3 27,0 56,0 92,6 36,5 79,15 109,19 31,3 49,0 70,-6 20,-5 44,-12 60,-20 4,-2 7,-4 10,-6l-24 -29c30,5 56,-4 78,-30 1,-2 3,-5 5,-9 3,-4 6,-8 9,-10 2,-1 4,0 5,6 2,12 -2,45 -8,68 -5,23 -13,36 -21,48 -9,13 -17,26 -36,39 -18,14 -47,28 -87,40 -39,13 -89,24 -132,35 -43,11 -79,21 -107,30 -29,9 -51,17 -72,27 -21,11 -42,24 -60,50 -18,27 -34,67 -57,112 -23,46 -53,97 -100,130 -42,30 -104,45 -161,59m0 145c31,-22 48,-28 82,-42 33,-15 78,-12 126,-12 49,0 102,-4 137,-16 35,-13 51,-34 68,-54 17,-19 35,-37 54,-53 19,-16 39,-31 62,-48 23,-17 48,-36 78,-50 29,-14 63,-23 103,-20 40,3 87,17 120,32 33,15 52,30 79,51 28,21 63,48 95,69 33,22 62,38 95,40 33,3 70,-9 96,-17 14,-4 24,-7 33,-9l-15 -26c37,4 59,-8 64,-38 1,-1 2,0 3,1 4,6 12,26 12,43 0,17 -8,31 -21,48 -13,16 -31,36 -56,53 -24,18 -55,33 -87,40 -31,8 -63,8 -90,6 -26,-3 -47,-7 -72,-15 -25,-8 -54,-19 -80,-28 -27,-8 -51,-14 -72,-18 -21,-3 -40,-5 -66,2 -27,7 -61,22 -88,37 -26,15 -45,29 -61,48 -15,19 -28,43 -44,64 -15,21 -33,40 -57,65 -24,24 -55,54 -89,80 -35,25 -73,46 -121,63 -49,17 -109,29 -155,26 -45,-3 -77,-22 -98,-35 -12,-7 -26,-16 -35,-22l0 39 0 158m523 4c57,-15 121,-58 203,-37 101,25 113,54 144,77m421 25c6,1 12,1 18,1l0 -2316c0,-345 -283,-628 -628,-628l-2601 0c-345,0 -628,283 -628,628l0 2312m378 -1c31,-26 73,-77 143,-90 56,-11 127,19 194,30m127 -15c72,-15 128,-42 185,-51 65,-10 131,2 175,16 35,11 79,30 107,47m1239 -199l0 -260 0 -149 0 -151c0,-36 -9,-71 -24,-101 -35,-67 -101,-115 -179,-122 -7,0 -14,0 -20,0l-773 0 -20 0c-89,0 -167,53 -202,129 -14,29 -21,61 -21,94l0 155 0 158 0 280 0 175 0 25c0,27 5,53 14,77 61,0 122,-3 177,-8 52,-5 99,-11 143,-19l-38 -39c-12,-11 -19,-28 -19,-49l0 -691c-3,-53 55,-86 102,-58l620 354c0,0 0,0 0,0m-1848 -852c-1,-4 0,-5 0,0zm0 0c-1,-4 0,-5 0,0zm863 1362c-99,0 -198,-8 -273,-27 -104,-27 -163,-74 -208,-96 -8,-4 -16,-7 -23,-8 -32,-9 -59,6 -104,23 -20,9 -45,18 -76,26 -70,18 -171,30 -261,34 -36,2 -71,2 -101,1 -102,-5 -146,-27 -198,-21 -24,3 -50,12 -79,21l0 289c0,345 283,628 628,628l2601 0c345,0 628,-283 628,-628l0 -285c-6,0 -12,0 -18,-1 -80,-6 -140,-41 -192,-47 -52,-6 -96,17 -198,21 -10,0 -20,1 -31,1 -102,1 -242,-13 -331,-36 -5,-1 -10,-2 -16,-4 -86,-25 -119,-57 -164,-45 -3,1 -5,1 -8,2m-356 124c-103,9 -220,8 -320,1 -148,-9 -259,-30 -370,-51 -67,18 -133,36 -210,51m-39 -40l1 1c18,19 48,23 78,8l627 -359c31,-18 35,-49 19,-72m-684 -385c-4,1 -7,1 -9,2m-1252 255c28,-9 47,-29 42,-45 -5,-15 -32,-21 -60,-12 -28,8 -46,28 -41,44 5,16 31,21 59,13zm200 -40c45,-8 77,-36 72,-63 -4,-27 -44,-42 -89,-34 -44,7 -77,35 -72,62 5,27 44,43 89,35zm280 97c25,-31 12,-84 -30,-117 -41,-33 -95,-34 -120,-3 -25,32 -12,84 30,117 41,33 95,35 120,3zm379 181c19,-52 -33,-120 -117,-151 -84,-31 -168,-14 -187,39 -20,52 33,120 117,151 84,31 167,14 187,-39zm2212 -316c-5,16 14,35 41,44 28,9 55,3 60,-12 5,-16 -14,-36 -42,-45 -27,-9 -54,-3 -59,13zm-231 -58c-5,27 28,55 72,63 45,7 85,-8 90,-35 4,-27 -28,-55 -73,-63 -44,-8 -84,8 -89,35zm-178 43c-42,33 -55,85 -30,117 25,31 79,30 121,-3 41,-33 55,-86 30,-117 -25,-32 -79,-30 -121,3zm-104 185c-20,-52 -104,-70 -188,-39 -84,31 -136,99 -117,152 19,52 103,69 187,39 84,-31 137,-99 118,-152zm207 -706c-24,6 -41,24 -37,40 4,16 27,24 52,18 24,-6 41,-24 37,-40 -4,-16 -27,-24 -52,-18zm-246 66c7,24 44,35 84,25 39,-11 66,-39 60,-63 -7,-25 -44,-36 -84,-25 -39,11 -66,39 -60,63zm-223 94c15,29 63,35 107,13 45,-22 69,-64 54,-93 -15,-30 -63,-36 -107,-14 -45,22 -69,64 -54,94zm-89 92c-32,38 -33,90 -2,115 30,25 80,15 112,-23 32,-38 33,-90 2,-115 -30,-25 -80,-15 -112,23zm-1882 -215c4,-16 -13,-34 -37,-40 -24,-6 -47,2 -51,18 -4,16 12,34 37,40 24,6 47,-2 51,-18zm125 51c40,11 77,0 84,-25 6,-24 -20,-52 -60,-63 -40,-11 -77,1 -83,25 -7,24 20,52 59,63zm200 82c44,23 92,17 107,-13 15,-30 -9,-72 -53,-94 -45,-22 -93,-16 -107,14 -15,29 9,71 53,93zm86 171c32,38 82,48 113,23 30,-25 29,-77 -3,-115 -31,-38 -82,-48 -112,-23 -30,25 -29,77 2,115zm1655 -1008l-273 61 -27 6c38,7 66,28 79,55 16,34 7,67 -7,98l14 -9 268 -167c85,-58 64,-72 -54,-44zm-203 -252l-225 126 -15 8c34,-4 63,7 81,27 22,25 23,55 19,85l15 -17 180 -204c55,-67 41,-78 -40,-33l-15 8zm-283 -97l-98 119 -5 8 -16 19c22,-12 46,-12 63,-4 22,11 32,32 37,54l8 -23 63 -176 3 -8c21,-65 6,-65 -45,-2 -3,4 -6,9 -10,13zm-264 -38l-32 119 -6 21c12,-15 28,-23 42,-22 18,1 31,12 41,25l-1 -15 -9 -121 -3 -26c-5,-50 -16,-46 -30,12l-2 7zm-191 3l-9 124 -1 11c10,-13 22,-24 41,-25 14,0 30,7 42,22l-5 -17 -31 -115 -4 -15c-14,-58 -25,-62 -31,-12l-2 27zm-280 31l63 175 7 20c5,-22 15,-42 37,-53 17,-9 41,-9 63,3l-14 -18 -90 -110c-3,-3 -6,-6 -9,-10l-16 -21c-51,-63 -66,-62 -45,2l4 12zm-287 121l180 205 15 16c-4,-30 -3,-60 19,-84 18,-20 47,-31 81,-28l-14 -7 -227 -126 -13 -8c-1,0 -1,0 -1,0 -81,-45 -95,-34 -40,32zm73 350c13,-27 41,-49 79,-55l-27 -7 -276 -61c-119,-28 -136,-14 -51,44l268 168 14 9c-14,-31 -23,-65 -7,-98zm1003 174c-29,23 -61,30 -72,17 -10,-14 5,-43 34,-66 29,-23 62,-31 72,-17 11,13 -4,43 -34,66zm-251 80c-25,45 -35,87 -19,110 31,47 136,25 234,-48 99,-74 154,-171 123,-218 -18,-28 -64,-31 -118,-14m-723 42c29,23 44,53 33,66 -10,14 -42,6 -72,-17 -29,-23 -44,-52 -33,-66 10,-13 42,-6 72,17zm-7 -40c-55,-18 -100,-15 -118,14 -31,46 24,144 122,217 99,74 204,95 235,48 15,-23 6,-65 -19,-109m-661 450c-15,30 -63,36 -107,13 -44,-22 -68,-64 -53,-93 14,-30 62,-36 107,-14 44,22 68,64 53,94zm1674 900c-65,-11 -131,1 -175,15 -38,12 -69,31 -92,46l0 36c0,17 -1,33 -5,49 49,-5 94,-12 133,-22 116,-30 176,-85 223,-102 -29,-9 -56,-18 -84,-22zm-2355 -1188c-1,-4 0,-5 0,0zm0 0c-1,-4 0,-5 0,0zm1848 852l240 239m-2088 -1091c-1,-4 0,-5 0,0zm864 -232c30,207 126,377 228,501m-228 -501c0,-34 3,-66 9,-97m59 -151c16,-29 35,-57 55,-83m101 -103c22,-17 45,-34 69,-48m93 -48c36,-15 75,-26 115,-34m77 -9c10,-1 17,-2 27,-2 12,0 25,0 39,1 8,0 17,1 25,2m197 40c0,0 1,-1 1,-2m378 535c-30,207 -124,376 -224,500m224 -500c0,-32 -3,-64 -8,-94m-59 -150c-16,-30 -34,-58 -55,-84m-100 -103c-22,-19 -45,-35 -69,-50m-92 -46c-38,-16 -77,-29 -117,-37m-549 432c167,58 151,213 317,201m537 -202c-167,57 -151,213 -318,200m1260 240l-24 -29c36,7 67,-9 92,-49m392 660l-15 -26c37,4 59,-8 64,-38m-3707 89l16 -28c-37,10 -63,-3 -77,-39m403 -616c20,54 53,72 98,54l-18 31"/>
 </g>
</svg>
